%TF.GenerationSoftware,KiCad,Pcbnew,9.0.4*%
%TF.CreationDate,2025-12-01T14:59:28-06:00*%
%TF.ProjectId,VNA_Project,564e415f-5072-46f6-9a65-63742e6b6963,rev?*%
%TF.SameCoordinates,Original*%
%TF.FileFunction,Copper,L4,Inr*%
%TF.FilePolarity,Positive*%
%FSLAX46Y46*%
G04 Gerber Fmt 4.6, Leading zero omitted, Abs format (unit mm)*
G04 Created by KiCad (PCBNEW 9.0.4) date 2025-12-01 14:59:28*
%MOMM*%
%LPD*%
G01*
G04 APERTURE LIST*
G04 Aperture macros list*
%AMRoundRect*
0 Rectangle with rounded corners*
0 $1 Rounding radius*
0 $2 $3 $4 $5 $6 $7 $8 $9 X,Y pos of 4 corners*
0 Add a 4 corners polygon primitive as box body*
4,1,4,$2,$3,$4,$5,$6,$7,$8,$9,$2,$3,0*
0 Add four circle primitives for the rounded corners*
1,1,$1+$1,$2,$3*
1,1,$1+$1,$4,$5*
1,1,$1+$1,$6,$7*
1,1,$1+$1,$8,$9*
0 Add four rect primitives between the rounded corners*
20,1,$1+$1,$2,$3,$4,$5,0*
20,1,$1+$1,$4,$5,$6,$7,0*
20,1,$1+$1,$6,$7,$8,$9,0*
20,1,$1+$1,$8,$9,$2,$3,0*%
G04 Aperture macros list end*
%TA.AperFunction,ComponentPad*%
%ADD10R,2.000000X4.600000*%
%TD*%
%TA.AperFunction,ComponentPad*%
%ADD11O,2.000000X4.200000*%
%TD*%
%TA.AperFunction,ComponentPad*%
%ADD12O,4.200000X2.000000*%
%TD*%
%TA.AperFunction,ComponentPad*%
%ADD13O,2.200000X3.500000*%
%TD*%
%TA.AperFunction,ComponentPad*%
%ADD14R,1.500000X2.500000*%
%TD*%
%TA.AperFunction,ComponentPad*%
%ADD15O,1.500000X2.500000*%
%TD*%
%TA.AperFunction,ComponentPad*%
%ADD16RoundRect,0.250001X1.149999X1.149999X-1.149999X1.149999X-1.149999X-1.149999X1.149999X-1.149999X0*%
%TD*%
%TA.AperFunction,ComponentPad*%
%ADD17C,2.800000*%
%TD*%
%TA.AperFunction,ComponentPad*%
%ADD18C,2.050000*%
%TD*%
%TA.AperFunction,ComponentPad*%
%ADD19C,2.250000*%
%TD*%
%TA.AperFunction,HeatsinkPad*%
%ADD20O,1.000000X2.100000*%
%TD*%
%TA.AperFunction,HeatsinkPad*%
%ADD21O,1.000000X1.800000*%
%TD*%
%TA.AperFunction,ComponentPad*%
%ADD22R,1.700000X1.700000*%
%TD*%
%TA.AperFunction,ComponentPad*%
%ADD23C,1.700000*%
%TD*%
%TA.AperFunction,ComponentPad*%
%ADD24C,1.890000*%
%TD*%
%TA.AperFunction,ComponentPad*%
%ADD25R,1.900000X1.900000*%
%TD*%
%TA.AperFunction,ComponentPad*%
%ADD26C,1.900000*%
%TD*%
%TA.AperFunction,ComponentPad*%
%ADD27C,2.600000*%
%TD*%
%TA.AperFunction,ComponentPad*%
%ADD28O,3.500000X2.200000*%
%TD*%
%TA.AperFunction,ComponentPad*%
%ADD29R,2.500000X1.500000*%
%TD*%
%TA.AperFunction,ComponentPad*%
%ADD30O,2.500000X1.500000*%
%TD*%
%TA.AperFunction,ComponentPad*%
%ADD31RoundRect,0.250001X-1.149999X-1.149999X1.149999X-1.149999X1.149999X1.149999X-1.149999X1.149999X0*%
%TD*%
%TA.AperFunction,ViaPad*%
%ADD32C,0.600000*%
%TD*%
%TA.AperFunction,Conductor*%
%ADD33C,0.200000*%
%TD*%
%TA.AperFunction,Conductor*%
%ADD34C,0.300000*%
%TD*%
%TA.AperFunction,Conductor*%
%ADD35C,0.160000*%
%TD*%
%TA.AperFunction,Conductor*%
%ADD36C,0.400000*%
%TD*%
%TA.AperFunction,Conductor*%
%ADD37C,0.250000*%
%TD*%
%TA.AperFunction,Conductor*%
%ADD38C,0.500000*%
%TD*%
G04 APERTURE END LIST*
D10*
%TO.N,+15V*%
%TO.C,J202*%
X211650000Y-116750000D03*
D11*
%TO.N,GND*%
X205350000Y-116750000D03*
D12*
%TO.N,N/C*%
X208750000Y-121550000D03*
%TD*%
D13*
%TO.N,*%
%TO.C,SW401*%
X311410000Y-101610000D03*
X319610000Y-101610000D03*
D14*
%TO.N,+3V0*%
X313510000Y-101610000D03*
D15*
%TO.N,Net-(SW401-B)*%
X315510000Y-101610000D03*
%TO.N,GND*%
X317510000Y-101610000D03*
%TD*%
D16*
%TO.N,VCO_TUNE*%
%TO.C,J302*%
X306600000Y-294400000D03*
D17*
%TO.N,GND*%
X301600000Y-294400000D03*
%TD*%
D13*
%TO.N,*%
%TO.C,SW202*%
X248500000Y-103700000D03*
X256700000Y-103700000D03*
D14*
%TO.N,Net-(SW202-A)*%
X250600000Y-103700000D03*
D15*
%TO.N,EN_inverting*%
X252600000Y-103700000D03*
%TO.N,Net-(J203-Pin_1)*%
X254600000Y-103700000D03*
%TD*%
D18*
%TO.N,clk_a_adc*%
%TO.C,J403*%
X355440000Y-199660000D03*
D19*
%TO.N,GND*%
X352900000Y-202200000D03*
X357980000Y-202200000D03*
X352900000Y-197120000D03*
X357980000Y-197120000D03*
%TD*%
D13*
%TO.N,*%
%TO.C,SW403*%
X336600000Y-101600000D03*
X344800000Y-101600000D03*
D14*
%TO.N,+3V0*%
X338700000Y-101600000D03*
D15*
%TO.N,Net-(SW403-B)*%
X340700000Y-101600000D03*
%TO.N,GND*%
X342700000Y-101600000D03*
%TD*%
D20*
%TO.N,unconnected-(J201-SHIELD-PadS1)*%
%TO.C,J201*%
X371990000Y-106540000D03*
D21*
%TO.N,unconnected-(J201-SHIELD-PadS1)_3*%
X371990000Y-102340000D03*
D20*
%TO.N,unconnected-(J201-SHIELD-PadS1)_1*%
X363350000Y-106540000D03*
D21*
%TO.N,unconnected-(J201-SHIELD-PadS1)_2*%
X363350000Y-102340000D03*
%TD*%
D22*
%TO.N,+3.3V*%
%TO.C,J301*%
X247190000Y-296050000D03*
D23*
%TO.N,/MCU [3]/CONN_SWDIO*%
X247190000Y-293510000D03*
%TO.N,GND*%
X249730000Y-296050000D03*
%TO.N,/MCU [3]/CONN_SWCLK*%
X249730000Y-293510000D03*
%TO.N,GND*%
X252270000Y-296050000D03*
%TO.N,/MCU [3]/CONN_SWO*%
X252270000Y-293510000D03*
%TO.N,unconnected-(J301-Pin_7-Pad7)*%
X254810000Y-296050000D03*
%TO.N,unconnected-(J301-Pin_8-Pad8)*%
X254810000Y-293510000D03*
%TO.N,GND*%
X257350000Y-296050000D03*
%TO.N,/MCU [3]/CONN_NRST*%
X257350000Y-293510000D03*
%TD*%
D13*
%TO.N,*%
%TO.C,SW402*%
X324050000Y-101700000D03*
X332250000Y-101700000D03*
D14*
%TO.N,+3V0*%
X326150000Y-101700000D03*
D15*
%TO.N,Net-(SW402-B)*%
X328150000Y-101700000D03*
%TO.N,GND*%
X330150000Y-101700000D03*
%TD*%
D24*
%TO.N,LED_REGOFF*%
%TO.C,J501*%
X205486000Y-198186000D03*
%TO.N,Net-(J501-PadL2)*%
X203966000Y-195646000D03*
%TO.N,Net-(J501-PadL3)*%
X205486000Y-188076000D03*
%TO.N,LED_INTSEL*%
X203966000Y-185536000D03*
D25*
%TO.N,TD+*%
X215206000Y-187416000D03*
D26*
%TO.N,RD+*%
X217746000Y-188686000D03*
%TO.N,/Ethernet [5]/CRD*%
X215206000Y-189956000D03*
%TO.N,TD-*%
X217746000Y-191226000D03*
%TO.N,/Ethernet [5]/CRD*%
X215206000Y-192496000D03*
%TO.N,RD-*%
X217746000Y-193766000D03*
%TO.N,unconnected-(J501-NC-PadR7)*%
X215206000Y-195036000D03*
%TO.N,GND*%
X217746000Y-196306000D03*
D27*
X211916000Y-184086000D03*
X211916000Y-199636000D03*
%TD*%
D13*
%TO.N,*%
%TO.C,SW301*%
X270930000Y-295307500D03*
X279130000Y-295307500D03*
D14*
%TO.N,GND*%
X273030000Y-295307500D03*
D15*
%TO.N,Net-(SW301-B)*%
X275030000Y-295307500D03*
%TO.N,+3.3V*%
X277030000Y-295307500D03*
%TD*%
D18*
%TO.N,GND*%
%TO.C,J401*%
X392760000Y-179010000D03*
D19*
%TO.N,Net-(J401-Ext)*%
X390220000Y-176470000D03*
X390220000Y-181550000D03*
X395300000Y-176470000D03*
X395300000Y-181550000D03*
%TD*%
D28*
%TO.N,*%
%TO.C,SW201*%
X201697500Y-166500000D03*
X201697500Y-158300000D03*
D29*
%TO.N,VBUS*%
X201697500Y-164400000D03*
D30*
%TO.N,/Power [2]/SW_POWER*%
X201697500Y-162400000D03*
%TO.N,+5V*%
X201697500Y-160400000D03*
%TD*%
D31*
%TO.N,Net-(J203-Pin_1)*%
%TO.C,J203*%
X264000000Y-102950000D03*
D17*
%TO.N,N/C*%
X269000000Y-102950000D03*
%TD*%
D18*
%TO.N,GND*%
%TO.C,J402*%
X392370000Y-209390000D03*
D19*
%TO.N,Net-(J402-Ext)*%
X389830000Y-206850000D03*
X389830000Y-211930000D03*
X394910000Y-206850000D03*
X394910000Y-211930000D03*
%TD*%
D32*
%TO.N,GND*%
X225790000Y-124500000D03*
X388790000Y-184320000D03*
X345029003Y-181548281D03*
X202610000Y-263860000D03*
X268860000Y-221100000D03*
X293300000Y-188800000D03*
X265552000Y-230893000D03*
X225100000Y-115250000D03*
X369500000Y-203320000D03*
X202910000Y-281710000D03*
X312500000Y-283300000D03*
X257150000Y-227370000D03*
X258600000Y-290700000D03*
X334100000Y-197100000D03*
X199730000Y-258130000D03*
X350660000Y-207880000D03*
X202610000Y-278040000D03*
X376160000Y-172790000D03*
X297700000Y-114800000D03*
X260170000Y-242230000D03*
X350710000Y-184760000D03*
X302800000Y-277200000D03*
X274800000Y-195100000D03*
X376990000Y-203440000D03*
X344200000Y-180370000D03*
X267660000Y-219720000D03*
X285170000Y-242960000D03*
X273721000Y-234144000D03*
X332350000Y-184050000D03*
X305500000Y-205800000D03*
X245600000Y-119150000D03*
X245950000Y-117800000D03*
X377130000Y-182570000D03*
X292100000Y-198800000D03*
X225850000Y-128250000D03*
X336300000Y-173400000D03*
X209700000Y-131600000D03*
X225830000Y-122200000D03*
X202590000Y-238720000D03*
X374270000Y-108170000D03*
X284000000Y-194500000D03*
X287300000Y-114800000D03*
X277500000Y-146900000D03*
X343560000Y-181300000D03*
X359730000Y-107550000D03*
X343990002Y-185700000D03*
X254660000Y-236490000D03*
X355650000Y-188780000D03*
X281600000Y-130400000D03*
X292000000Y-114800000D03*
X225700000Y-123050000D03*
X280650000Y-130300000D03*
X202550000Y-247880000D03*
X260900000Y-285300000D03*
X280300000Y-143400000D03*
X305100000Y-200100000D03*
X347930000Y-186680000D03*
X288000000Y-179100000D03*
X227680000Y-119220000D03*
X347990000Y-179650000D03*
X285910000Y-243360000D03*
X339900000Y-181700000D03*
X309200000Y-183700000D03*
X354660000Y-191010000D03*
X350260000Y-174780000D03*
X293600000Y-192400000D03*
X311400000Y-182200000D03*
X266517568Y-230865334D03*
X244300000Y-121050000D03*
X246600000Y-153370000D03*
X331900000Y-180420000D03*
X226080000Y-119130000D03*
X360510000Y-170010000D03*
X225000000Y-130700000D03*
X340770000Y-184870000D03*
X225900000Y-126900000D03*
X279250000Y-131400000D03*
X388150000Y-214610000D03*
X288650000Y-114800000D03*
X266051451Y-240455334D03*
X281750000Y-129100000D03*
X244500000Y-138100000D03*
X368890000Y-179250000D03*
X223400000Y-130800000D03*
X346930000Y-192570000D03*
X356630000Y-180690000D03*
X282150000Y-128000000D03*
X281400000Y-187200000D03*
X351980000Y-178970000D03*
X226050000Y-120060000D03*
X386900000Y-174850000D03*
X352170000Y-182760000D03*
X240000000Y-145350000D03*
X283900000Y-114800000D03*
X308900000Y-283500000D03*
X258931451Y-232125334D03*
X295000000Y-114850000D03*
X292500000Y-202900000D03*
X349960000Y-182669999D03*
X311890000Y-200540000D03*
X276100000Y-191300000D03*
X286820000Y-243290000D03*
X356520000Y-177800000D03*
X258050000Y-153450000D03*
X243500000Y-293400000D03*
X373300000Y-111670000D03*
X264100000Y-218850000D03*
X281500000Y-131550000D03*
X266523000Y-231859000D03*
X364040000Y-186720000D03*
X206860000Y-179760000D03*
X202640000Y-266000000D03*
X361050000Y-183640000D03*
X253500000Y-290600000D03*
X338890000Y-195970000D03*
X214471000Y-179039000D03*
X202660000Y-242480000D03*
X365510000Y-114780000D03*
X275100000Y-186100000D03*
X257170000Y-237170000D03*
X350310000Y-209200000D03*
X280700000Y-129200000D03*
X242806000Y-296500000D03*
X202740000Y-270150000D03*
X266501000Y-229994000D03*
X369550000Y-216060000D03*
X272500000Y-147500000D03*
X285207000Y-194275000D03*
X248000000Y-118400000D03*
X377200000Y-197340000D03*
X202310000Y-234670000D03*
X235800000Y-138250000D03*
X382780000Y-181810000D03*
X286980000Y-241240000D03*
X225830000Y-125810000D03*
X247150000Y-118850000D03*
X285550000Y-114700000D03*
X282750000Y-114850000D03*
X281100000Y-190400000D03*
X202610000Y-274130000D03*
X359940000Y-210760000D03*
X244900000Y-121850000D03*
X279600000Y-147123311D03*
X271553000Y-223414000D03*
X258500000Y-162000000D03*
X246300000Y-118650000D03*
X202440000Y-231020000D03*
X238950000Y-152200000D03*
X286950000Y-242420000D03*
X202410000Y-206617000D03*
X251000000Y-290500000D03*
X267544000Y-230899000D03*
X258502000Y-222030000D03*
X353600000Y-175000000D03*
X338940000Y-194560000D03*
X330420000Y-182120000D03*
X338900000Y-197310000D03*
X261251451Y-235005334D03*
X345300000Y-196680000D03*
X311930000Y-183799000D03*
X247050000Y-163400000D03*
%TO.N,+15V*%
X215900000Y-125300000D03*
X216750000Y-132800000D03*
%TO.N,VBUS*%
X365500000Y-104000000D03*
X369400000Y-104000000D03*
X206800000Y-267100000D03*
%TO.N,+5V*%
X354580000Y-210920000D03*
X360700000Y-178600000D03*
X330800000Y-151900000D03*
X231950000Y-121300000D03*
X220800000Y-117900000D03*
X362500000Y-186300000D03*
X374300000Y-181800000D03*
X206400000Y-261200000D03*
X338562500Y-156700000D03*
X224000000Y-168200000D03*
X215200000Y-147100000D03*
X362100000Y-214100000D03*
%TO.N,/Power [2]/SW_POWER*%
X242150000Y-124600000D03*
X232750000Y-155850000D03*
%TO.N,+3.3V*%
X326600000Y-191110000D03*
X291400000Y-200400000D03*
X290530000Y-238720000D03*
X268940000Y-233432231D03*
X334400000Y-194000000D03*
X241700000Y-115950000D03*
X201940000Y-284970000D03*
X286800000Y-180500000D03*
X285700000Y-186800000D03*
X280010000Y-141180000D03*
X267980000Y-139580000D03*
X248450000Y-125150000D03*
X201680000Y-255240000D03*
X276010000Y-243730000D03*
X278300000Y-291690000D03*
X309850000Y-201750000D03*
X308300000Y-181300000D03*
X259450000Y-118150000D03*
%TO.N,+3.3VA*%
X209900000Y-276200000D03*
X284600000Y-207200000D03*
X233400000Y-253200000D03*
X243500000Y-216700000D03*
X280300000Y-199600000D03*
X261700000Y-167800000D03*
%TO.N,+3V0*%
X231900000Y-250220000D03*
X313800000Y-151100000D03*
X208800000Y-273000000D03*
X309500000Y-148500000D03*
X236900000Y-245700000D03*
X342710000Y-183460000D03*
X342710000Y-175440000D03*
X237600000Y-157600000D03*
X236900000Y-167200000D03*
X244300000Y-144700000D03*
X337100000Y-170100000D03*
%TO.N,-5V*%
X282200000Y-125350000D03*
X376100000Y-205800000D03*
X278600000Y-118650000D03*
X339600000Y-145100000D03*
X382400000Y-171700000D03*
X279800000Y-120700000D03*
X379100000Y-183590000D03*
X271350000Y-129950000D03*
%TO.N,Net-(U206-SS{slash}TR)*%
X279850000Y-115850000D03*
X285000000Y-120450000D03*
%TO.N,+10V*%
X227100000Y-142200000D03*
X232300000Y-167000000D03*
X207800000Y-270500000D03*
X303100000Y-273800000D03*
X227100000Y-134600000D03*
X229500000Y-155000000D03*
X223900000Y-128800000D03*
%TO.N,NRST*%
X280800000Y-246200000D03*
X293500000Y-190800000D03*
X280157000Y-230893000D03*
X271444321Y-226573505D03*
X276555000Y-230930000D03*
%TO.N,Net-(C310-Pad1)*%
X319300000Y-182100000D03*
X313900000Y-201200000D03*
X310800000Y-183600000D03*
X312200000Y-191600000D03*
%TO.N,Net-(C402-Pad1)*%
X350894878Y-181994878D03*
X351100000Y-188400000D03*
%TO.N,Net-(C414-Pad1)*%
X339720000Y-183265979D03*
X339700000Y-180400000D03*
%TO.N,VREF_ADCD*%
X354660000Y-176670000D03*
X360310000Y-177410000D03*
X358500000Y-208870000D03*
X367570000Y-183710000D03*
%TO.N,/Ethernet [5]/CRD*%
X257388000Y-216477000D03*
X259673000Y-223379000D03*
X254701000Y-226044000D03*
X267886000Y-226435000D03*
X254679000Y-221594000D03*
X257108000Y-230473000D03*
X265775000Y-220409000D03*
%TO.N,debug_led1*%
X204640000Y-228700000D03*
X304770000Y-177030000D03*
%TO.N,debug_led2*%
X203430000Y-233530000D03*
X299240000Y-208440000D03*
%TO.N,debug_led3*%
X300090000Y-208420000D03*
X205980000Y-237060000D03*
%TO.N,debug_led4*%
X204610000Y-240640000D03*
X301140000Y-208390000D03*
%TO.N,debug_led8*%
X295120000Y-179540000D03*
X203810000Y-244800000D03*
%TO.N,LED_INTSEL*%
X263681451Y-232355334D03*
%TO.N,RD-*%
X249000000Y-215100000D03*
X246500000Y-212600000D03*
X254583654Y-219657157D03*
X260220052Y-224779948D03*
%TO.N,TD-*%
X255927157Y-218313654D03*
X259900000Y-218500000D03*
%TO.N,LED_REGOFF*%
X263392030Y-233101149D03*
%TO.N,RD+*%
X244200000Y-212800000D03*
X247300000Y-216100000D03*
X252200000Y-220800000D03*
X249600000Y-218400000D03*
%TO.N,I2C1_SDA*%
X296740000Y-180460000D03*
X285910000Y-246150000D03*
X289860000Y-275030000D03*
X285180000Y-239840000D03*
%TO.N,BOOT0*%
X275080000Y-288090000D03*
X296810000Y-183570000D03*
%TO.N,I2C1_SCL*%
X285100000Y-240960000D03*
X297539916Y-180471763D03*
X286690000Y-245670000D03*
X290590000Y-274340000D03*
%TO.N,alerttemp1*%
X299620380Y-191130380D03*
X291080000Y-236920000D03*
%TO.N,SWDIO*%
X301760000Y-189910000D03*
X272105000Y-249925000D03*
%TO.N,SWCLK*%
X294040000Y-178300000D03*
X305350000Y-178150000D03*
X277205000Y-247075000D03*
X295840000Y-177070000D03*
%TO.N,JTDO*%
X279700000Y-245960000D03*
X296480000Y-178950000D03*
%TO.N,I2C4_SDA*%
X293610000Y-184040000D03*
X294990000Y-188710000D03*
%TO.N,I2C4_SCL*%
X293320000Y-184880000D03*
X294950000Y-189620000D03*
%TO.N,alerttemp2*%
X318310000Y-181340000D03*
X275270000Y-144320000D03*
%TO.N,I2C5_SDA*%
X328350000Y-190510000D03*
X304420000Y-183690000D03*
%TO.N,I2C5_SCL*%
X326610000Y-189890000D03*
X304000000Y-184580000D03*
%TO.N,alerttemp3*%
X296500000Y-188040000D03*
X316140000Y-194190000D03*
%TO.N,debug_led5*%
X301680000Y-185530000D03*
X206240000Y-252610000D03*
%TO.N,debug_led6*%
X297810000Y-184480000D03*
X206320000Y-249780000D03*
%TO.N,debug_led7*%
X206310000Y-251180000D03*
X296800000Y-184430000D03*
%TO.N,OUTA2*%
X381170000Y-206590000D03*
X379960000Y-209835000D03*
%TO.N,diffout2_+*%
X351000000Y-212100000D03*
X348767690Y-180589324D03*
%TO.N,diffout_+*%
X357800521Y-182700521D03*
X349899479Y-186300521D03*
%TO.N,diffout2_-*%
X348100000Y-181029999D03*
X348525000Y-204600000D03*
%TO.N,diffout_-*%
X365600000Y-181200000D03*
X350500521Y-185699479D03*
%TO.N,Net-(U501-RXER{slash}PHYAD0)*%
X269945435Y-233069565D03*
%TO.N,Net-(SW401-B)*%
X344850000Y-176550000D03*
%TO.N,Net-(SW402-B)*%
X342300000Y-184800000D03*
X328800000Y-124600000D03*
%TO.N,Net-(SW403-B)*%
X345300000Y-174700000D03*
%TO.N,D11_A*%
X323750000Y-208650000D03*
X341200000Y-191500000D03*
%TO.N,ETH_RX_CLK*%
X287100000Y-208400000D03*
X270300000Y-228100000D03*
X289100000Y-195100000D03*
X286700000Y-215400000D03*
%TO.N,D6_A*%
X293400000Y-186900000D03*
X337100000Y-190189878D03*
%TO.N,D5_B*%
X307900000Y-169800000D03*
X335700000Y-176500000D03*
%TO.N,D10_A*%
X341206998Y-190697969D03*
X327800000Y-205800000D03*
%TO.N,D3_A*%
X282900000Y-181400000D03*
X327700000Y-178100000D03*
%TO.N,D4_B*%
X309200000Y-170000000D03*
X335800000Y-175200000D03*
%TO.N,D8_B*%
X314700000Y-193980000D03*
X317600000Y-190800000D03*
%TO.N,OTR_A*%
X325400000Y-206300000D03*
X341600000Y-185600000D03*
%TO.N,D3_B*%
X317100000Y-175600000D03*
X306400000Y-175100000D03*
%TO.N,D0_B*%
X341100000Y-184000000D03*
X302850000Y-183650000D03*
%TO.N,D1_A*%
X291900000Y-178200000D03*
X328900000Y-180800000D03*
%TO.N,DAC1_OUT*%
X309670000Y-280060000D03*
X294240000Y-195280000D03*
%TO.N,D7_B*%
X301500000Y-177200000D03*
X317200000Y-178100000D03*
%TO.N,D5_A*%
X337600000Y-189300000D03*
X293400000Y-185900000D03*
%TO.N,OTR_B*%
X303200000Y-202300000D03*
X331800000Y-192100000D03*
X340300000Y-182701000D03*
%TO.N,ETH_TXD0*%
X303500000Y-196000000D03*
X273515136Y-223435318D03*
%TO.N,D1_B*%
X341461000Y-181000000D03*
X303900000Y-179149000D03*
X317900000Y-179500000D03*
%TO.N,D8_A*%
X341150001Y-189000000D03*
X332300000Y-203400000D03*
%TO.N,D9_B*%
X318300000Y-191600000D03*
X317600000Y-193500000D03*
%TO.N,D9_A*%
X334500000Y-200200000D03*
X341150001Y-189900000D03*
%TO.N,D2_A*%
X328410122Y-179789878D03*
X284000000Y-181300000D03*
%TO.N,D6_B*%
X300510122Y-179010122D03*
X317100000Y-176700000D03*
%TO.N,D2_B*%
X325300000Y-179500000D03*
X341200000Y-177400000D03*
X303000000Y-179149000D03*
%TO.N,ETH_TX_EN*%
X303400000Y-199400000D03*
X273900000Y-224200000D03*
%TO.N,D10_B*%
X319500000Y-192700000D03*
X320000000Y-190100000D03*
%TO.N,ETH_TXD1*%
X303100000Y-195300000D03*
X273200000Y-222700000D03*
%TO.N,D4_A*%
X281800000Y-181400000D03*
X327010122Y-176589878D03*
%TO.N,D0_A*%
X292800000Y-177600000D03*
X331400000Y-184300000D03*
%TD*%
D33*
%TO.N,NRST*%
X289800000Y-191200000D02*
X281600000Y-199400000D01*
D34*
X280245000Y-230805000D02*
X280157000Y-230893000D01*
D33*
X293100000Y-191200000D02*
X289800000Y-191200000D01*
D35*
X272198505Y-226573505D02*
X273059000Y-227434000D01*
D33*
X281600000Y-200400000D02*
X281600000Y-216874000D01*
D35*
X271444321Y-226573505D02*
X272198505Y-226573505D01*
X276555000Y-230930000D02*
X273059000Y-227434000D01*
D33*
X293500000Y-190800000D02*
X293100000Y-191200000D01*
X281600000Y-199400000D02*
X281600000Y-200400000D01*
X281600000Y-245400000D02*
X280800000Y-246200000D01*
X281600000Y-226585000D02*
X281600000Y-230805000D01*
D34*
X281600000Y-216874000D02*
X281600000Y-226585000D01*
D33*
X281600000Y-230805000D02*
X280245000Y-230805000D01*
X281600000Y-230805000D02*
X281600000Y-245400000D01*
D35*
%TO.N,Net-(C402-Pad1)*%
X351100000Y-188400000D02*
X351600000Y-187900000D01*
X352200000Y-187300000D02*
X352200000Y-184700000D01*
X350894878Y-183394878D02*
X350894878Y-181994878D01*
X352200000Y-184700000D02*
X350894878Y-183394878D01*
X351600000Y-187900000D02*
X352200000Y-187300000D01*
D34*
%TO.N,debug_led1*%
X201530000Y-199180000D02*
X201530000Y-179970000D01*
X215740000Y-220460000D02*
X215740000Y-213390000D01*
X302100000Y-171620000D02*
X304770000Y-174290000D01*
X215740000Y-213390000D02*
X201530000Y-199180000D01*
X204640000Y-228700000D02*
X204700000Y-228640000D01*
X207560000Y-228640000D02*
X215740000Y-220460000D01*
X204700000Y-228640000D02*
X207560000Y-228640000D01*
X209880000Y-171620000D02*
X302100000Y-171620000D01*
X304770000Y-174290000D02*
X304770000Y-177030000D01*
X201530000Y-179970000D02*
X209880000Y-171620000D01*
%TO.N,debug_led2*%
X291180000Y-247760000D02*
X299240000Y-239700000D01*
X214760000Y-233530000D02*
X214890000Y-233400000D01*
X238860000Y-233400000D02*
X241330000Y-235870000D01*
X286520000Y-252240000D02*
X286700000Y-252240000D01*
X299240000Y-239700000D02*
X299240000Y-208440000D01*
X257700000Y-252240000D02*
X286520000Y-252240000D01*
X214890000Y-233400000D02*
X238860000Y-233400000D01*
X241330000Y-235870000D02*
X257700000Y-252240000D01*
X286700000Y-252240000D02*
X291180000Y-247760000D01*
X203430000Y-233530000D02*
X214760000Y-233530000D01*
%TO.N,debug_led3*%
X205980000Y-237060000D02*
X207040000Y-238120000D01*
X300090000Y-239750000D02*
X300090000Y-208420000D01*
X255950000Y-253610000D02*
X286210000Y-253610000D01*
X300080000Y-239740000D02*
X300090000Y-239750000D01*
X240460000Y-238120000D02*
X255950000Y-253610000D01*
X286210000Y-253610000D02*
X300080000Y-239740000D01*
X207040000Y-238120000D02*
X240460000Y-238120000D01*
%TO.N,debug_led4*%
X241160000Y-240640000D02*
X255340000Y-254820000D01*
X255340000Y-254820000D02*
X287010000Y-254820000D01*
X301320000Y-240510000D02*
X301320000Y-208570000D01*
X287010000Y-254820000D02*
X301320000Y-240510000D01*
X204610000Y-240640000D02*
X241160000Y-240640000D01*
X301320000Y-208570000D02*
X301140000Y-208390000D01*
D33*
%TO.N,debug_led8*%
X198040000Y-243740000D02*
X198710000Y-244410000D01*
X198710000Y-244410000D02*
X203420000Y-244410000D01*
X203420000Y-244410000D02*
X203810000Y-244800000D01*
X198040000Y-232060000D02*
X198040000Y-243740000D01*
X216710000Y-220840000D02*
X208070000Y-229480000D01*
X202420000Y-180640000D02*
X202420000Y-198750000D01*
X208070000Y-229480000D02*
X200620000Y-229480000D01*
X200620000Y-229480000D02*
X198040000Y-232060000D01*
X295120000Y-179540000D02*
X295050000Y-179470000D01*
X294310000Y-172200000D02*
X210860000Y-172200000D01*
X216710000Y-213040000D02*
X216710000Y-220840000D01*
X295050000Y-179470000D02*
X295050000Y-172940000D01*
X210860000Y-172200000D02*
X202420000Y-180640000D01*
X295050000Y-172940000D02*
X294310000Y-172200000D01*
X202420000Y-198750000D02*
X216710000Y-213040000D01*
D36*
%TO.N,Net-(J402-Ext)*%
X389830000Y-211930000D02*
X394910000Y-211930000D01*
X389830000Y-211930000D02*
X389830000Y-206850000D01*
D35*
X394910000Y-206850000D02*
X389830000Y-206850000D01*
D33*
%TO.N,LED_INTSEL*%
X262211451Y-232355334D02*
X258123059Y-228266941D01*
D37*
X245150000Y-228080000D02*
X244874000Y-227804000D01*
X203966000Y-188353466D02*
X203966000Y-185536000D01*
X239891000Y-227804000D02*
X215224000Y-203137000D01*
X215224000Y-203137000D02*
X215224000Y-199611466D01*
D33*
X263681451Y-232355334D02*
X262211451Y-232355334D01*
X257936118Y-228080000D02*
X258123059Y-228266941D01*
X245150000Y-228080000D02*
X257936118Y-228080000D01*
D37*
X215224000Y-199611466D02*
X203966000Y-188353466D01*
X244874000Y-227804000D02*
X239891000Y-227804000D01*
D33*
%TO.N,LED_REGOFF*%
X232748000Y-228230000D02*
X205486000Y-200968000D01*
X262081149Y-233101149D02*
X258070000Y-229090000D01*
X244750000Y-229090000D02*
X243890000Y-228230000D01*
X243890000Y-228230000D02*
X232748000Y-228230000D01*
X258070000Y-229090000D02*
X244750000Y-229090000D01*
X263392030Y-233101149D02*
X262081149Y-233101149D01*
X205486000Y-200968000D02*
X205486000Y-198186000D01*
%TO.N,I2C1_SDA*%
X329970000Y-280640000D02*
X323129000Y-287481000D01*
X297412736Y-179749000D02*
X311009000Y-179749000D01*
X330851000Y-279759000D02*
X329970000Y-280640000D01*
X283880000Y-244120000D02*
X283880000Y-241140000D01*
X302291000Y-287481000D02*
X289960000Y-275150000D01*
X296740000Y-180421736D02*
X297412736Y-179749000D01*
X330851000Y-191373900D02*
X330851000Y-279759000D01*
X314400000Y-183140000D02*
X322617100Y-183140000D01*
X289860000Y-275050000D02*
X289860000Y-275030000D01*
X296740000Y-180460000D02*
X296740000Y-180421736D01*
X289960000Y-275150000D02*
X289860000Y-275050000D01*
X311009000Y-179749000D02*
X314400000Y-183140000D01*
X323129000Y-287481000D02*
X302291000Y-287481000D01*
X322617100Y-183140000D02*
X330851000Y-191373900D01*
X285910000Y-246150000D02*
X283880000Y-244120000D01*
X283880000Y-241140000D02*
X285180000Y-239840000D01*
D34*
%TO.N,BOOT0*%
X318060000Y-219890000D02*
X321991000Y-215959000D01*
X321991000Y-190413190D02*
X317777810Y-186200000D01*
X296952000Y-183428000D02*
X296810000Y-183570000D01*
X317777810Y-186200000D02*
X317670000Y-186200000D01*
X318060000Y-245110000D02*
X318060000Y-219890000D01*
X317670000Y-186200000D02*
X303270654Y-186200000D01*
X303270654Y-186200000D02*
X300498654Y-183428000D01*
X300498654Y-183428000D02*
X296952000Y-183428000D01*
X275080000Y-288090000D02*
X318060000Y-245110000D01*
X321991000Y-215959000D02*
X321991000Y-190413190D01*
D33*
%TO.N,I2C1_SCL*%
X297861679Y-180150000D02*
X303230000Y-180150000D01*
X297539916Y-180471763D02*
X297861679Y-180150000D01*
X303230000Y-180150000D02*
X310790000Y-180150000D01*
X314220000Y-183580000D02*
X322490000Y-183580000D01*
X330350000Y-191440000D02*
X330450000Y-191540000D01*
X284569000Y-243549000D02*
X284569000Y-241491000D01*
X284569000Y-241491000D02*
X285100000Y-240960000D01*
X330450000Y-191540000D02*
X330450000Y-199210000D01*
X322200000Y-287080000D02*
X303330000Y-287080000D01*
X330450000Y-278830000D02*
X322200000Y-287080000D01*
X286690000Y-245670000D02*
X284569000Y-243549000D01*
X310790000Y-180150000D02*
X314220000Y-183580000D01*
X330450000Y-199210000D02*
X330450000Y-278830000D01*
X303330000Y-287080000D02*
X290590000Y-274340000D01*
X322490000Y-183580000D02*
X330350000Y-191440000D01*
%TO.N,alerttemp1*%
X299620380Y-191130380D02*
X296860000Y-193890760D01*
X296860000Y-193890760D02*
X296860000Y-194570000D01*
X296860000Y-231140000D02*
X291080000Y-236920000D01*
X296860000Y-194570000D02*
X296860000Y-231140000D01*
D34*
%TO.N,SWDIO*%
X297550000Y-194120000D02*
X301760000Y-189910000D01*
X272105000Y-249925000D02*
X285465000Y-249925000D01*
X297550000Y-237840000D02*
X297550000Y-208780000D01*
X297550000Y-208780000D02*
X297550000Y-194120000D01*
X285465000Y-249925000D02*
X289770000Y-245620000D01*
X289770000Y-245620000D02*
X297550000Y-237840000D01*
%TO.N,SWCLK*%
X277205000Y-196085000D02*
X280736000Y-192554000D01*
X299800000Y-176980000D02*
X300970000Y-178150000D01*
X280736000Y-192554000D02*
X280745000Y-192554000D01*
X285969654Y-187451000D02*
X286351000Y-187069654D01*
X300970000Y-178150000D02*
X305350000Y-178150000D01*
X286351000Y-186948000D02*
X294040000Y-179259000D01*
X295930000Y-176980000D02*
X299800000Y-176980000D01*
X277205000Y-247075000D02*
X277205000Y-196085000D01*
X285848000Y-187451000D02*
X285969654Y-187451000D01*
X280745000Y-192554000D02*
X285848000Y-187451000D01*
X294040000Y-179259000D02*
X294040000Y-178300000D01*
X286351000Y-187069654D02*
X286351000Y-186948000D01*
X295840000Y-177070000D02*
X295930000Y-176980000D01*
%TO.N,JTDO*%
X296480000Y-179100654D02*
X296480000Y-178950000D01*
X279700000Y-245960000D02*
X278920000Y-245180000D01*
X278920000Y-196660654D02*
X296480000Y-179100654D01*
X278920000Y-200770000D02*
X278920000Y-196660654D01*
X278920000Y-245180000D02*
X278920000Y-200770000D01*
D33*
%TO.N,I2C4_SDA*%
X294990000Y-188710000D02*
X294990000Y-185420000D01*
X294990000Y-185420000D02*
X293610000Y-184040000D01*
%TO.N,I2C4_SCL*%
X294950000Y-189620000D02*
X294200000Y-188870000D01*
X294200000Y-188870000D02*
X294200000Y-188420000D01*
X294200000Y-188420000D02*
X294200000Y-185760000D01*
X294200000Y-185760000D02*
X293320000Y-184880000D01*
D38*
%TO.N,alerttemp2*%
X317630000Y-180660000D02*
X315660000Y-180660000D01*
X318310000Y-181340000D02*
X317630000Y-180660000D01*
X315660000Y-180660000D02*
X279320000Y-144320000D01*
X279320000Y-144320000D02*
X275270000Y-144320000D01*
D33*
%TO.N,I2C5_SDA*%
X313710000Y-184140000D02*
X320560000Y-184140000D01*
X313451000Y-184399000D02*
X313560000Y-184290000D01*
X305170000Y-184410000D02*
X305181000Y-184399000D01*
X304450000Y-183690000D02*
X305170000Y-184410000D01*
X321980000Y-184140000D02*
X328350000Y-190510000D01*
X313560000Y-184290000D02*
X313710000Y-184140000D01*
X320560000Y-184140000D02*
X321980000Y-184140000D01*
X304420000Y-183690000D02*
X304450000Y-183690000D01*
X305181000Y-184399000D02*
X313451000Y-184399000D01*
%TO.N,I2C5_SCL*%
X304231000Y-184811000D02*
X321531000Y-184811000D01*
X304000000Y-184580000D02*
X304231000Y-184811000D01*
X321531000Y-184811000D02*
X326610000Y-189890000D01*
%TO.N,alerttemp3*%
X300490000Y-188040000D02*
X300740000Y-188290000D01*
X300740000Y-188290000D02*
X301540000Y-189090000D01*
X301540000Y-189090000D02*
X310830000Y-189090000D01*
X311040000Y-189090000D02*
X316140000Y-194190000D01*
X296500000Y-188040000D02*
X300490000Y-188040000D01*
X310830000Y-189090000D02*
X311040000Y-189090000D01*
%TO.N,debug_led5*%
X302980000Y-186830000D02*
X301680000Y-185530000D01*
X314230000Y-217940000D02*
X320980000Y-211190000D01*
X298930000Y-257800000D02*
X314230000Y-242500000D01*
X314230000Y-234510000D02*
X314230000Y-217940000D01*
X209190000Y-249660000D02*
X209190000Y-249620000D01*
X241350000Y-249620000D02*
X242180000Y-250450000D01*
X253410000Y-261680000D02*
X259940000Y-261680000D01*
X316730000Y-186830000D02*
X302980000Y-186830000D01*
X259940000Y-261680000D02*
X295050000Y-261680000D01*
X321540000Y-190600000D02*
X317770000Y-186830000D01*
X295050000Y-261680000D02*
X298930000Y-257800000D01*
X209190000Y-249620000D02*
X241350000Y-249620000D01*
X317770000Y-186830000D02*
X316730000Y-186830000D01*
X320980000Y-211190000D02*
X321540000Y-210630000D01*
X206240000Y-252610000D02*
X209190000Y-249660000D01*
X314230000Y-242500000D02*
X314230000Y-234510000D01*
X242180000Y-250450000D02*
X253410000Y-261680000D01*
X321540000Y-210630000D02*
X321540000Y-190600000D01*
%TO.N,debug_led6*%
X311400000Y-188420000D02*
X303930000Y-188420000D01*
X242820000Y-247610000D02*
X244470000Y-247610000D01*
X206320000Y-249780000D02*
X208490000Y-247610000D01*
X244470000Y-247610000D02*
X254600000Y-257740000D01*
X208490000Y-247610000D02*
X242820000Y-247610000D01*
X308029222Y-239636288D02*
X308029222Y-217540778D01*
X308029222Y-240850778D02*
X308029222Y-239636288D01*
X308029222Y-217540778D02*
X316910000Y-208660000D01*
X314380000Y-191400000D02*
X311400000Y-188420000D01*
X303930000Y-188420000D02*
X301750000Y-188420000D01*
X290920000Y-257960000D02*
X308029222Y-240850778D01*
X254600000Y-257740000D02*
X254820000Y-257960000D01*
X316910000Y-193930000D02*
X314380000Y-191400000D01*
X316910000Y-208660000D02*
X316910000Y-193930000D01*
X254820000Y-257960000D02*
X290920000Y-257960000D01*
X301750000Y-188420000D02*
X297810000Y-184480000D01*
%TO.N,debug_led7*%
X310230000Y-217940000D02*
X318290000Y-209880000D01*
X243020000Y-248690000D02*
X254140000Y-259810000D01*
X206310000Y-251180000D02*
X206500000Y-251180000D01*
X302198943Y-188019000D02*
X298058943Y-183879000D01*
X297351000Y-183879000D02*
X296800000Y-184430000D01*
X318660000Y-193330000D02*
X313349000Y-188019000D01*
X254140000Y-259810000D02*
X257530000Y-259810000D01*
X206500000Y-251180000D02*
X208950000Y-248730000D01*
X310230000Y-240870000D02*
X310230000Y-217940000D01*
X310230000Y-242830000D02*
X310230000Y-240870000D01*
X208990000Y-248690000D02*
X243020000Y-248690000D01*
X298058943Y-183879000D02*
X297351000Y-183879000D01*
X318660000Y-209510000D02*
X318660000Y-193330000D01*
X313349000Y-188019000D02*
X302198943Y-188019000D01*
X318290000Y-209880000D02*
X318660000Y-209510000D01*
X257530000Y-259810000D02*
X293250000Y-259810000D01*
X293250000Y-259810000D02*
X295560000Y-257500000D01*
X295560000Y-257500000D02*
X310230000Y-242830000D01*
X208950000Y-248730000D02*
X208990000Y-248690000D01*
D35*
%TO.N,Net-(SW401-B)*%
X344850000Y-176550000D02*
X344160000Y-175860000D01*
X344160000Y-130260000D02*
X339800000Y-125900000D01*
X315510000Y-109210000D02*
X315510000Y-101610000D01*
X344160000Y-175860000D02*
X344160000Y-130260000D01*
X332200000Y-125900000D02*
X315510000Y-109210000D01*
X339800000Y-125900000D02*
X332200000Y-125900000D01*
%TO.N,Net-(SW402-B)*%
X333200000Y-128200000D02*
X332400000Y-128200000D01*
X342300000Y-184800000D02*
X342041000Y-184541000D01*
X339100000Y-128200000D02*
X333200000Y-128200000D01*
X341400000Y-130500000D02*
X339100000Y-128200000D01*
X332400000Y-128200000D02*
X328800000Y-124600000D01*
X342041000Y-184541000D02*
X342041000Y-131141000D01*
X342041000Y-131141000D02*
X341400000Y-130500000D01*
%TO.N,Net-(SW403-B)*%
X340700000Y-101600000D02*
X340700000Y-119600000D01*
X347900000Y-172100000D02*
X345300000Y-174700000D01*
X347900000Y-126800000D02*
X347900000Y-172100000D01*
X340700000Y-119600000D02*
X347900000Y-126800000D01*
%TO.N,D5_B*%
X310900000Y-172800000D02*
X307900000Y-169800000D01*
X335700000Y-176500000D02*
X332000000Y-172800000D01*
X329900000Y-172800000D02*
X310900000Y-172800000D01*
X332000000Y-172800000D02*
X329900000Y-172800000D01*
%TO.N,D4_B*%
X311400000Y-172200000D02*
X309200000Y-170000000D01*
X333800000Y-173200000D02*
X332800000Y-172200000D01*
X332800000Y-172200000D02*
X324700000Y-172200000D01*
X335800000Y-175200000D02*
X333800000Y-173200000D01*
X324700000Y-172200000D02*
X311400000Y-172200000D01*
D34*
%TO.N,DAC1_OUT*%
X295825735Y-184304265D02*
X295825735Y-193694265D01*
X295825735Y-183633611D02*
X295825735Y-184304265D01*
X324520000Y-265210000D02*
X324520000Y-189600000D01*
X295825735Y-193694265D02*
X294240000Y-195280000D01*
X309670000Y-280060000D02*
X324520000Y-265210000D01*
X303470000Y-185650000D02*
X300430000Y-182610000D01*
X316130000Y-185650000D02*
X303470000Y-185650000D01*
X320570000Y-185650000D02*
X316130000Y-185650000D01*
X324520000Y-189600000D02*
X320570000Y-185650000D01*
X296849346Y-182610000D02*
X295825735Y-183633611D01*
X300430000Y-182610000D02*
X296849346Y-182610000D01*
D35*
%TO.N,OTR_B*%
X340300000Y-183900000D02*
X339600000Y-184600000D01*
X340300000Y-182701000D02*
X340300000Y-183700000D01*
X332100000Y-192100000D02*
X331800000Y-192100000D01*
X339600000Y-184600000D02*
X332100000Y-192100000D01*
X340300000Y-183700000D02*
X340300000Y-183900000D01*
%TO.N,D1_B*%
X329800000Y-181400000D02*
X326100000Y-181400000D01*
X341461000Y-181000000D02*
X330200000Y-181000000D01*
X325200000Y-180500000D02*
X324200000Y-179500000D01*
X330200000Y-181000000D02*
X329800000Y-181400000D01*
X324200000Y-179500000D02*
X317900000Y-179500000D01*
X326100000Y-181400000D02*
X325200000Y-180500000D01*
%TO.N,D2_B*%
X327500000Y-179500000D02*
X329600000Y-177400000D01*
X325300000Y-179500000D02*
X327500000Y-179500000D01*
X329600000Y-177400000D02*
X341200000Y-177400000D01*
%TD*%
M02*
