%TF.GenerationSoftware,KiCad,Pcbnew,9.0.2*%
%TF.CreationDate,2025-11-29T14:49:54-06:00*%
%TF.ProjectId,VNA_Project,564e415f-5072-46f6-9a65-63742e6b6963,rev?*%
%TF.SameCoordinates,Original*%
%TF.FileFunction,Legend,Bot*%
%TF.FilePolarity,Positive*%
%FSLAX46Y46*%
G04 Gerber Fmt 4.6, Leading zero omitted, Abs format (unit mm)*
G04 Created by KiCad (PCBNEW 9.0.2) date 2025-11-29 14:49:54*
%MOMM*%
%LPD*%
G01*
G04 APERTURE LIST*
%ADD10C,0.600000*%
%ADD11C,0.400000*%
%ADD12C,0.150000*%
%ADD13C,0.120000*%
%ADD14C,0.000000*%
G04 APERTURE END LIST*
D10*
X238508835Y-105251657D02*
X238133835Y-102251657D01*
X238312406Y-103680228D02*
X236598121Y-103680228D01*
X236794549Y-105251657D02*
X236419549Y-102251657D01*
X234990978Y-102251657D02*
X235294549Y-104680228D01*
X235294549Y-104680228D02*
X235187407Y-104965942D01*
X235187407Y-104965942D02*
X235062407Y-105108800D01*
X235062407Y-105108800D02*
X234794549Y-105251657D01*
X234794549Y-105251657D02*
X234223121Y-105251657D01*
X234223121Y-105251657D02*
X233919549Y-105108800D01*
X233919549Y-105108800D02*
X233758835Y-104965942D01*
X233758835Y-104965942D02*
X233580264Y-104680228D01*
X233580264Y-104680228D02*
X233276692Y-102251657D01*
X231026692Y-103680228D02*
X230615978Y-103823085D01*
X230615978Y-103823085D02*
X230490978Y-103965942D01*
X230490978Y-103965942D02*
X230383835Y-104251657D01*
X230383835Y-104251657D02*
X230437407Y-104680228D01*
X230437407Y-104680228D02*
X230615978Y-104965942D01*
X230615978Y-104965942D02*
X230776692Y-105108800D01*
X230776692Y-105108800D02*
X231080264Y-105251657D01*
X231080264Y-105251657D02*
X232223121Y-105251657D01*
X232223121Y-105251657D02*
X231848121Y-102251657D01*
X231848121Y-102251657D02*
X230848121Y-102251657D01*
X230848121Y-102251657D02*
X230580264Y-102394514D01*
X230580264Y-102394514D02*
X230455264Y-102537371D01*
X230455264Y-102537371D02*
X230348121Y-102823085D01*
X230348121Y-102823085D02*
X230383835Y-103108800D01*
X230383835Y-103108800D02*
X230562407Y-103394514D01*
X230562407Y-103394514D02*
X230723121Y-103537371D01*
X230723121Y-103537371D02*
X231026692Y-103680228D01*
X231026692Y-103680228D02*
X232026692Y-103680228D01*
X227508835Y-105251657D02*
X228330264Y-103823085D01*
X229223121Y-105251657D02*
X228848121Y-102251657D01*
X228848121Y-102251657D02*
X227705264Y-102251657D01*
X227705264Y-102251657D02*
X227437407Y-102394514D01*
X227437407Y-102394514D02*
X227312407Y-102537371D01*
X227312407Y-102537371D02*
X227205264Y-102823085D01*
X227205264Y-102823085D02*
X227258835Y-103251657D01*
X227258835Y-103251657D02*
X227437407Y-103537371D01*
X227437407Y-103537371D02*
X227598121Y-103680228D01*
X227598121Y-103680228D02*
X227901692Y-103823085D01*
X227901692Y-103823085D02*
X229044550Y-103823085D01*
X226223121Y-105251657D02*
X225848121Y-102251657D01*
X224919550Y-105108800D02*
X224508836Y-105251657D01*
X224508836Y-105251657D02*
X223794550Y-105251657D01*
X223794550Y-105251657D02*
X223490979Y-105108800D01*
X223490979Y-105108800D02*
X223330264Y-104965942D01*
X223330264Y-104965942D02*
X223151693Y-104680228D01*
X223151693Y-104680228D02*
X223115979Y-104394514D01*
X223115979Y-104394514D02*
X223223121Y-104108800D01*
X223223121Y-104108800D02*
X223348121Y-103965942D01*
X223348121Y-103965942D02*
X223615979Y-103823085D01*
X223615979Y-103823085D02*
X224169550Y-103680228D01*
X224169550Y-103680228D02*
X224437407Y-103537371D01*
X224437407Y-103537371D02*
X224562407Y-103394514D01*
X224562407Y-103394514D02*
X224669550Y-103108800D01*
X224669550Y-103108800D02*
X224633836Y-102823085D01*
X224633836Y-102823085D02*
X224455264Y-102537371D01*
X224455264Y-102537371D02*
X224294550Y-102394514D01*
X224294550Y-102394514D02*
X223990979Y-102251657D01*
X223990979Y-102251657D02*
X223276693Y-102251657D01*
X223276693Y-102251657D02*
X222865979Y-102394514D01*
X219705264Y-102251657D02*
X219080264Y-105251657D01*
X219080264Y-105251657D02*
X217705264Y-102251657D01*
X217080264Y-105251657D02*
X216705264Y-102251657D01*
X216705264Y-102251657D02*
X215365978Y-105251657D01*
X215365978Y-105251657D02*
X214990978Y-102251657D01*
X213973121Y-104394514D02*
X212544550Y-104394514D01*
X214365978Y-105251657D02*
X212990978Y-102251657D01*
X212990978Y-102251657D02*
X212365978Y-105251657D01*
X209133835Y-102251657D02*
X208508835Y-105251657D01*
X208508835Y-105251657D02*
X207133835Y-102251657D01*
X204937406Y-105251657D02*
X206651692Y-105251657D01*
X205794549Y-105251657D02*
X205419549Y-102251657D01*
X205419549Y-102251657D02*
X205758835Y-102680228D01*
X205758835Y-102680228D02*
X206080264Y-102965942D01*
X206080264Y-102965942D02*
X206383835Y-103108800D01*
D11*
X243584938Y-108066819D02*
X244251604Y-108066819D01*
X244382557Y-109114438D02*
X244132557Y-107114438D01*
X244132557Y-107114438D02*
X243180176Y-107114438D01*
X242382557Y-109114438D02*
X242561128Y-109019200D01*
X242561128Y-109019200D02*
X242632557Y-108828723D01*
X242632557Y-108828723D02*
X242418271Y-107114438D01*
X240763509Y-109114438D02*
X240632557Y-108066819D01*
X240632557Y-108066819D02*
X240703985Y-107876342D01*
X240703985Y-107876342D02*
X240882557Y-107781104D01*
X240882557Y-107781104D02*
X241263509Y-107781104D01*
X241263509Y-107781104D02*
X241465890Y-107876342D01*
X240751604Y-109019200D02*
X240953985Y-109114438D01*
X240953985Y-109114438D02*
X241430176Y-109114438D01*
X241430176Y-109114438D02*
X241608747Y-109019200D01*
X241608747Y-109019200D02*
X241680176Y-108828723D01*
X241680176Y-108828723D02*
X241656366Y-108638247D01*
X241656366Y-108638247D02*
X241537318Y-108447771D01*
X241537318Y-108447771D02*
X241334938Y-108352533D01*
X241334938Y-108352533D02*
X240858747Y-108352533D01*
X240858747Y-108352533D02*
X240656366Y-108257295D01*
X239930175Y-107781104D02*
X239168271Y-107781104D01*
X239561128Y-107114438D02*
X239775414Y-108828723D01*
X239775414Y-108828723D02*
X239703985Y-109019200D01*
X239703985Y-109019200D02*
X239525414Y-109114438D01*
X239525414Y-109114438D02*
X239334937Y-109114438D01*
X238668271Y-109114438D02*
X238501604Y-107781104D01*
X238549223Y-108162057D02*
X238430176Y-107971580D01*
X238430176Y-107971580D02*
X238323033Y-107876342D01*
X238323033Y-107876342D02*
X238120652Y-107781104D01*
X238120652Y-107781104D02*
X237930176Y-107781104D01*
X237430176Y-109114438D02*
X237263509Y-107781104D01*
X237180176Y-107114438D02*
X237287319Y-107209676D01*
X237287319Y-107209676D02*
X237203985Y-107304914D01*
X237203985Y-107304914D02*
X237096842Y-107209676D01*
X237096842Y-107209676D02*
X237180176Y-107114438D01*
X237180176Y-107114438D02*
X237203985Y-107304914D01*
X236477795Y-109114438D02*
X236311128Y-107781104D01*
X236334938Y-107971580D02*
X236227795Y-107876342D01*
X236227795Y-107876342D02*
X236025414Y-107781104D01*
X236025414Y-107781104D02*
X235739700Y-107781104D01*
X235739700Y-107781104D02*
X235561128Y-107876342D01*
X235561128Y-107876342D02*
X235489700Y-108066819D01*
X235489700Y-108066819D02*
X235620652Y-109114438D01*
X235489700Y-108066819D02*
X235370652Y-107876342D01*
X235370652Y-107876342D02*
X235168271Y-107781104D01*
X235168271Y-107781104D02*
X234882557Y-107781104D01*
X234882557Y-107781104D02*
X234703985Y-107876342D01*
X234703985Y-107876342D02*
X234632557Y-108066819D01*
X234632557Y-108066819D02*
X234763509Y-109114438D01*
X232287318Y-109114438D02*
X232037318Y-107114438D01*
X232037318Y-107114438D02*
X231561127Y-107114438D01*
X231561127Y-107114438D02*
X231287318Y-107209676D01*
X231287318Y-107209676D02*
X231120651Y-107400152D01*
X231120651Y-107400152D02*
X231049223Y-107590628D01*
X231049223Y-107590628D02*
X231001604Y-107971580D01*
X231001604Y-107971580D02*
X231037318Y-108257295D01*
X231037318Y-108257295D02*
X231180175Y-108638247D01*
X231180175Y-108638247D02*
X231299223Y-108828723D01*
X231299223Y-108828723D02*
X231513508Y-109019200D01*
X231513508Y-109019200D02*
X231811127Y-109114438D01*
X231811127Y-109114438D02*
X232287318Y-109114438D01*
X230287318Y-109114438D02*
X230120651Y-107781104D01*
X230168270Y-108162057D02*
X230049223Y-107971580D01*
X230049223Y-107971580D02*
X229942080Y-107876342D01*
X229942080Y-107876342D02*
X229739699Y-107781104D01*
X229739699Y-107781104D02*
X229549223Y-107781104D01*
X228275413Y-109019200D02*
X228477794Y-109114438D01*
X228477794Y-109114438D02*
X228858747Y-109114438D01*
X228858747Y-109114438D02*
X229037318Y-109019200D01*
X229037318Y-109019200D02*
X229108747Y-108828723D01*
X229108747Y-108828723D02*
X229013509Y-108066819D01*
X229013509Y-108066819D02*
X228894461Y-107876342D01*
X228894461Y-107876342D02*
X228692080Y-107781104D01*
X228692080Y-107781104D02*
X228311128Y-107781104D01*
X228311128Y-107781104D02*
X228132556Y-107876342D01*
X228132556Y-107876342D02*
X228061128Y-108066819D01*
X228061128Y-108066819D02*
X228084937Y-108257295D01*
X228084937Y-108257295D02*
X229061128Y-108447771D01*
X227418270Y-109019200D02*
X227239699Y-109114438D01*
X227239699Y-109114438D02*
X226858746Y-109114438D01*
X226858746Y-109114438D02*
X226656365Y-109019200D01*
X226656365Y-109019200D02*
X226537318Y-108828723D01*
X226537318Y-108828723D02*
X226525413Y-108733485D01*
X226525413Y-108733485D02*
X226596842Y-108543009D01*
X226596842Y-108543009D02*
X226775413Y-108447771D01*
X226775413Y-108447771D02*
X227061127Y-108447771D01*
X227061127Y-108447771D02*
X227239699Y-108352533D01*
X227239699Y-108352533D02*
X227311127Y-108162057D01*
X227311127Y-108162057D02*
X227299223Y-108066819D01*
X227299223Y-108066819D02*
X227180175Y-107876342D01*
X227180175Y-107876342D02*
X226977794Y-107781104D01*
X226977794Y-107781104D02*
X226692080Y-107781104D01*
X226692080Y-107781104D02*
X226513508Y-107876342D01*
X225715889Y-109114438D02*
X225465889Y-107114438D01*
X224858746Y-109114438D02*
X224727794Y-108066819D01*
X224727794Y-108066819D02*
X224799222Y-107876342D01*
X224799222Y-107876342D02*
X224977794Y-107781104D01*
X224977794Y-107781104D02*
X225263508Y-107781104D01*
X225263508Y-107781104D02*
X225465889Y-107876342D01*
X225465889Y-107876342D02*
X225573032Y-107971580D01*
X223049222Y-109114438D02*
X222918270Y-108066819D01*
X222918270Y-108066819D02*
X222989698Y-107876342D01*
X222989698Y-107876342D02*
X223168270Y-107781104D01*
X223168270Y-107781104D02*
X223549222Y-107781104D01*
X223549222Y-107781104D02*
X223751603Y-107876342D01*
X223037317Y-109019200D02*
X223239698Y-109114438D01*
X223239698Y-109114438D02*
X223715889Y-109114438D01*
X223715889Y-109114438D02*
X223894460Y-109019200D01*
X223894460Y-109019200D02*
X223965889Y-108828723D01*
X223965889Y-108828723D02*
X223942079Y-108638247D01*
X223942079Y-108638247D02*
X223823031Y-108447771D01*
X223823031Y-108447771D02*
X223620651Y-108352533D01*
X223620651Y-108352533D02*
X223144460Y-108352533D01*
X223144460Y-108352533D02*
X222942079Y-108257295D01*
X221930174Y-107781104D02*
X222144460Y-109495390D01*
X222144460Y-109495390D02*
X222263507Y-109685866D01*
X222263507Y-109685866D02*
X222465888Y-109781104D01*
X222465888Y-109781104D02*
X222561127Y-109781104D01*
X221846841Y-107114438D02*
X221953984Y-107209676D01*
X221953984Y-107209676D02*
X221870650Y-107304914D01*
X221870650Y-107304914D02*
X221763507Y-107209676D01*
X221763507Y-107209676D02*
X221846841Y-107114438D01*
X221846841Y-107114438D02*
X221870650Y-107304914D01*
X219620650Y-109114438D02*
X219370650Y-107114438D01*
X219370650Y-107114438D02*
X218477793Y-109114438D01*
X218477793Y-109114438D02*
X218227793Y-107114438D01*
X216894459Y-107114438D02*
X216513507Y-107114438D01*
X216513507Y-107114438D02*
X216334936Y-107209676D01*
X216334936Y-107209676D02*
X216168269Y-107400152D01*
X216168269Y-107400152D02*
X216120650Y-107781104D01*
X216120650Y-107781104D02*
X216203983Y-108447771D01*
X216203983Y-108447771D02*
X216346840Y-108828723D01*
X216346840Y-108828723D02*
X216561126Y-109019200D01*
X216561126Y-109019200D02*
X216763507Y-109114438D01*
X216763507Y-109114438D02*
X217144459Y-109114438D01*
X217144459Y-109114438D02*
X217323031Y-109019200D01*
X217323031Y-109019200D02*
X217489698Y-108828723D01*
X217489698Y-108828723D02*
X217537317Y-108447771D01*
X217537317Y-108447771D02*
X217453983Y-107781104D01*
X217453983Y-107781104D02*
X217311126Y-107400152D01*
X217311126Y-107400152D02*
X217096840Y-107209676D01*
X217096840Y-107209676D02*
X216894459Y-107114438D01*
X215465888Y-107114438D02*
X215049221Y-109114438D01*
X215049221Y-109114438D02*
X214132555Y-107114438D01*
X212061125Y-107304914D02*
X211953983Y-107209676D01*
X211953983Y-107209676D02*
X211751602Y-107114438D01*
X211751602Y-107114438D02*
X211275411Y-107114438D01*
X211275411Y-107114438D02*
X211096840Y-107209676D01*
X211096840Y-107209676D02*
X211013506Y-107304914D01*
X211013506Y-107304914D02*
X210942078Y-107495390D01*
X210942078Y-107495390D02*
X210965887Y-107685866D01*
X210965887Y-107685866D02*
X211096840Y-107971580D01*
X211096840Y-107971580D02*
X212382554Y-109114438D01*
X212382554Y-109114438D02*
X211144459Y-109114438D01*
X209656363Y-107114438D02*
X209465887Y-107114438D01*
X209465887Y-107114438D02*
X209287316Y-107209676D01*
X209287316Y-107209676D02*
X209203982Y-107304914D01*
X209203982Y-107304914D02*
X209132554Y-107495390D01*
X209132554Y-107495390D02*
X209084935Y-107876342D01*
X209084935Y-107876342D02*
X209144459Y-108352533D01*
X209144459Y-108352533D02*
X209287316Y-108733485D01*
X209287316Y-108733485D02*
X209406363Y-108923961D01*
X209406363Y-108923961D02*
X209513506Y-109019200D01*
X209513506Y-109019200D02*
X209715887Y-109114438D01*
X209715887Y-109114438D02*
X209906363Y-109114438D01*
X209906363Y-109114438D02*
X210084935Y-109019200D01*
X210084935Y-109019200D02*
X210168268Y-108923961D01*
X210168268Y-108923961D02*
X210239697Y-108733485D01*
X210239697Y-108733485D02*
X210287316Y-108352533D01*
X210287316Y-108352533D02*
X210227792Y-107876342D01*
X210227792Y-107876342D02*
X210084935Y-107495390D01*
X210084935Y-107495390D02*
X209965887Y-107304914D01*
X209965887Y-107304914D02*
X209858744Y-107209676D01*
X209858744Y-107209676D02*
X209656363Y-107114438D01*
X208251601Y-107304914D02*
X208144459Y-107209676D01*
X208144459Y-107209676D02*
X207942078Y-107114438D01*
X207942078Y-107114438D02*
X207465887Y-107114438D01*
X207465887Y-107114438D02*
X207287316Y-107209676D01*
X207287316Y-107209676D02*
X207203982Y-107304914D01*
X207203982Y-107304914D02*
X207132554Y-107495390D01*
X207132554Y-107495390D02*
X207156363Y-107685866D01*
X207156363Y-107685866D02*
X207287316Y-107971580D01*
X207287316Y-107971580D02*
X208573030Y-109114438D01*
X208573030Y-109114438D02*
X207334935Y-109114438D01*
X205275411Y-107114438D02*
X206227792Y-107114438D01*
X206227792Y-107114438D02*
X206442078Y-108066819D01*
X206442078Y-108066819D02*
X206334935Y-107971580D01*
X206334935Y-107971580D02*
X206132554Y-107876342D01*
X206132554Y-107876342D02*
X205656363Y-107876342D01*
X205656363Y-107876342D02*
X205477792Y-107971580D01*
X205477792Y-107971580D02*
X205394458Y-108066819D01*
X205394458Y-108066819D02*
X205323030Y-108257295D01*
X205323030Y-108257295D02*
X205382554Y-108733485D01*
X205382554Y-108733485D02*
X205501601Y-108923961D01*
X205501601Y-108923961D02*
X205608744Y-109019200D01*
X205608744Y-109019200D02*
X205811125Y-109114438D01*
X205811125Y-109114438D02*
X206287316Y-109114438D01*
X206287316Y-109114438D02*
X206465887Y-109019200D01*
X206465887Y-109019200D02*
X206549220Y-108923961D01*
X388242557Y-111884438D02*
X387992557Y-109884438D01*
X387385414Y-111884438D02*
X387254462Y-110836819D01*
X387254462Y-110836819D02*
X387325890Y-110646342D01*
X387325890Y-110646342D02*
X387504462Y-110551104D01*
X387504462Y-110551104D02*
X387790176Y-110551104D01*
X387790176Y-110551104D02*
X387992557Y-110646342D01*
X387992557Y-110646342D02*
X388099700Y-110741580D01*
X386552080Y-110551104D02*
X385790176Y-110551104D01*
X386183033Y-109884438D02*
X386397319Y-111598723D01*
X386397319Y-111598723D02*
X386325890Y-111789200D01*
X386325890Y-111789200D02*
X386147319Y-111884438D01*
X386147319Y-111884438D02*
X385956842Y-111884438D01*
X385409223Y-110551104D02*
X384647319Y-110551104D01*
X385040176Y-109884438D02*
X385254462Y-111598723D01*
X385254462Y-111598723D02*
X385183033Y-111789200D01*
X385183033Y-111789200D02*
X385004462Y-111884438D01*
X385004462Y-111884438D02*
X384813985Y-111884438D01*
X383980652Y-110551104D02*
X384230652Y-112551104D01*
X383992557Y-110646342D02*
X383790176Y-110551104D01*
X383790176Y-110551104D02*
X383409224Y-110551104D01*
X383409224Y-110551104D02*
X383230652Y-110646342D01*
X383230652Y-110646342D02*
X383147319Y-110741580D01*
X383147319Y-110741580D02*
X383075890Y-110932057D01*
X383075890Y-110932057D02*
X383147319Y-111503485D01*
X383147319Y-111503485D02*
X383266366Y-111693961D01*
X383266366Y-111693961D02*
X383373509Y-111789200D01*
X383373509Y-111789200D02*
X383575890Y-111884438D01*
X383575890Y-111884438D02*
X383956843Y-111884438D01*
X383956843Y-111884438D02*
X384135414Y-111789200D01*
X382421128Y-111789200D02*
X382242557Y-111884438D01*
X382242557Y-111884438D02*
X381861604Y-111884438D01*
X381861604Y-111884438D02*
X381659223Y-111789200D01*
X381659223Y-111789200D02*
X381540176Y-111598723D01*
X381540176Y-111598723D02*
X381528271Y-111503485D01*
X381528271Y-111503485D02*
X381599700Y-111313009D01*
X381599700Y-111313009D02*
X381778271Y-111217771D01*
X381778271Y-111217771D02*
X382063985Y-111217771D01*
X382063985Y-111217771D02*
X382242557Y-111122533D01*
X382242557Y-111122533D02*
X382313985Y-110932057D01*
X382313985Y-110932057D02*
X382302081Y-110836819D01*
X382302081Y-110836819D02*
X382183033Y-110646342D01*
X382183033Y-110646342D02*
X381980652Y-110551104D01*
X381980652Y-110551104D02*
X381694938Y-110551104D01*
X381694938Y-110551104D02*
X381516366Y-110646342D01*
X380694937Y-111693961D02*
X380611604Y-111789200D01*
X380611604Y-111789200D02*
X380718747Y-111884438D01*
X380718747Y-111884438D02*
X380802080Y-111789200D01*
X380802080Y-111789200D02*
X380694937Y-111693961D01*
X380694937Y-111693961D02*
X380718747Y-111884438D01*
X380563985Y-110646342D02*
X380480652Y-110741580D01*
X380480652Y-110741580D02*
X380587794Y-110836819D01*
X380587794Y-110836819D02*
X380671128Y-110741580D01*
X380671128Y-110741580D02*
X380563985Y-110646342D01*
X380563985Y-110646342D02*
X380587794Y-110836819D01*
X378075890Y-109789200D02*
X380111604Y-112360628D01*
X375980652Y-109789200D02*
X378016366Y-112360628D01*
X374552080Y-110551104D02*
X374754461Y-112170152D01*
X374754461Y-112170152D02*
X374873509Y-112360628D01*
X374873509Y-112360628D02*
X374980652Y-112455866D01*
X374980652Y-112455866D02*
X375183033Y-112551104D01*
X375183033Y-112551104D02*
X375468747Y-112551104D01*
X375468747Y-112551104D02*
X375647318Y-112455866D01*
X374706842Y-111789200D02*
X374909223Y-111884438D01*
X374909223Y-111884438D02*
X375290176Y-111884438D01*
X375290176Y-111884438D02*
X375468747Y-111789200D01*
X375468747Y-111789200D02*
X375552080Y-111693961D01*
X375552080Y-111693961D02*
X375623509Y-111503485D01*
X375623509Y-111503485D02*
X375552080Y-110932057D01*
X375552080Y-110932057D02*
X375433033Y-110741580D01*
X375433033Y-110741580D02*
X375325890Y-110646342D01*
X375325890Y-110646342D02*
X375123509Y-110551104D01*
X375123509Y-110551104D02*
X374742556Y-110551104D01*
X374742556Y-110551104D02*
X374563985Y-110646342D01*
X373766366Y-111884438D02*
X373599699Y-110551104D01*
X373516366Y-109884438D02*
X373623509Y-109979676D01*
X373623509Y-109979676D02*
X373540175Y-110074914D01*
X373540175Y-110074914D02*
X373433032Y-109979676D01*
X373433032Y-109979676D02*
X373516366Y-109884438D01*
X373516366Y-109884438D02*
X373540175Y-110074914D01*
X372933032Y-110551104D02*
X372171128Y-110551104D01*
X372563985Y-109884438D02*
X372778271Y-111598723D01*
X372778271Y-111598723D02*
X372706842Y-111789200D01*
X372706842Y-111789200D02*
X372528271Y-111884438D01*
X372528271Y-111884438D02*
X372337794Y-111884438D01*
X371671128Y-111884438D02*
X371421128Y-109884438D01*
X370813985Y-111884438D02*
X370683033Y-110836819D01*
X370683033Y-110836819D02*
X370754461Y-110646342D01*
X370754461Y-110646342D02*
X370933033Y-110551104D01*
X370933033Y-110551104D02*
X371218747Y-110551104D01*
X371218747Y-110551104D02*
X371421128Y-110646342D01*
X371421128Y-110646342D02*
X371528271Y-110741580D01*
X368837794Y-110551104D02*
X369004461Y-111884438D01*
X369694937Y-110551104D02*
X369825890Y-111598723D01*
X369825890Y-111598723D02*
X369754461Y-111789200D01*
X369754461Y-111789200D02*
X369575890Y-111884438D01*
X369575890Y-111884438D02*
X369290175Y-111884438D01*
X369290175Y-111884438D02*
X369087794Y-111789200D01*
X369087794Y-111789200D02*
X368980651Y-111693961D01*
X368052080Y-111884438D02*
X367802080Y-109884438D01*
X367897318Y-110646342D02*
X367694937Y-110551104D01*
X367694937Y-110551104D02*
X367313985Y-110551104D01*
X367313985Y-110551104D02*
X367135413Y-110646342D01*
X367135413Y-110646342D02*
X367052080Y-110741580D01*
X367052080Y-110741580D02*
X366980651Y-110932057D01*
X366980651Y-110932057D02*
X367052080Y-111503485D01*
X367052080Y-111503485D02*
X367171127Y-111693961D01*
X367171127Y-111693961D02*
X367278270Y-111789200D01*
X367278270Y-111789200D02*
X367480651Y-111884438D01*
X367480651Y-111884438D02*
X367861604Y-111884438D01*
X367861604Y-111884438D02*
X368040175Y-111789200D01*
X366218746Y-111693961D02*
X366135413Y-111789200D01*
X366135413Y-111789200D02*
X366242556Y-111884438D01*
X366242556Y-111884438D02*
X366325889Y-111789200D01*
X366325889Y-111789200D02*
X366218746Y-111693961D01*
X366218746Y-111693961D02*
X366242556Y-111884438D01*
X364421127Y-111789200D02*
X364623508Y-111884438D01*
X364623508Y-111884438D02*
X365004461Y-111884438D01*
X365004461Y-111884438D02*
X365183032Y-111789200D01*
X365183032Y-111789200D02*
X365266365Y-111693961D01*
X365266365Y-111693961D02*
X365337794Y-111503485D01*
X365337794Y-111503485D02*
X365266365Y-110932057D01*
X365266365Y-110932057D02*
X365147318Y-110741580D01*
X365147318Y-110741580D02*
X365040175Y-110646342D01*
X365040175Y-110646342D02*
X364837794Y-110551104D01*
X364837794Y-110551104D02*
X364456841Y-110551104D01*
X364456841Y-110551104D02*
X364278270Y-110646342D01*
X363290175Y-111884438D02*
X363468746Y-111789200D01*
X363468746Y-111789200D02*
X363552079Y-111693961D01*
X363552079Y-111693961D02*
X363623508Y-111503485D01*
X363623508Y-111503485D02*
X363552079Y-110932057D01*
X363552079Y-110932057D02*
X363433032Y-110741580D01*
X363433032Y-110741580D02*
X363325889Y-110646342D01*
X363325889Y-110646342D02*
X363123508Y-110551104D01*
X363123508Y-110551104D02*
X362837794Y-110551104D01*
X362837794Y-110551104D02*
X362659222Y-110646342D01*
X362659222Y-110646342D02*
X362575889Y-110741580D01*
X362575889Y-110741580D02*
X362504460Y-110932057D01*
X362504460Y-110932057D02*
X362575889Y-111503485D01*
X362575889Y-111503485D02*
X362694936Y-111693961D01*
X362694936Y-111693961D02*
X362802079Y-111789200D01*
X362802079Y-111789200D02*
X363004460Y-111884438D01*
X363004460Y-111884438D02*
X363290175Y-111884438D01*
X361766365Y-111884438D02*
X361599698Y-110551104D01*
X361623508Y-110741580D02*
X361516365Y-110646342D01*
X361516365Y-110646342D02*
X361313984Y-110551104D01*
X361313984Y-110551104D02*
X361028270Y-110551104D01*
X361028270Y-110551104D02*
X360849698Y-110646342D01*
X360849698Y-110646342D02*
X360778270Y-110836819D01*
X360778270Y-110836819D02*
X360909222Y-111884438D01*
X360778270Y-110836819D02*
X360659222Y-110646342D01*
X360659222Y-110646342D02*
X360456841Y-110551104D01*
X360456841Y-110551104D02*
X360171127Y-110551104D01*
X360171127Y-110551104D02*
X359992555Y-110646342D01*
X359992555Y-110646342D02*
X359921127Y-110836819D01*
X359921127Y-110836819D02*
X360052079Y-111884438D01*
X357409222Y-109789200D02*
X359444936Y-112360628D01*
X357123507Y-110551104D02*
X356361603Y-110551104D01*
X357004460Y-111884438D02*
X356790174Y-110170152D01*
X356790174Y-110170152D02*
X356671126Y-109979676D01*
X356671126Y-109979676D02*
X356468746Y-109884438D01*
X356468746Y-109884438D02*
X356278269Y-109884438D01*
X355004460Y-111884438D02*
X354754460Y-109884438D01*
X354992555Y-111789200D02*
X355194936Y-111884438D01*
X355194936Y-111884438D02*
X355575889Y-111884438D01*
X355575889Y-111884438D02*
X355754460Y-111789200D01*
X355754460Y-111789200D02*
X355837793Y-111693961D01*
X355837793Y-111693961D02*
X355909222Y-111503485D01*
X355909222Y-111503485D02*
X355837793Y-110932057D01*
X355837793Y-110932057D02*
X355718746Y-110741580D01*
X355718746Y-110741580D02*
X355611603Y-110646342D01*
X355611603Y-110646342D02*
X355409222Y-110551104D01*
X355409222Y-110551104D02*
X355028269Y-110551104D01*
X355028269Y-110551104D02*
X354849698Y-110646342D01*
X354052079Y-111884438D02*
X353885412Y-110551104D01*
X353933031Y-110932057D02*
X353813984Y-110741580D01*
X353813984Y-110741580D02*
X353706841Y-110646342D01*
X353706841Y-110646342D02*
X353504460Y-110551104D01*
X353504460Y-110551104D02*
X353313984Y-110551104D01*
X352040174Y-111789200D02*
X352242555Y-111884438D01*
X352242555Y-111884438D02*
X352623508Y-111884438D01*
X352623508Y-111884438D02*
X352802079Y-111789200D01*
X352802079Y-111789200D02*
X352873508Y-111598723D01*
X352873508Y-111598723D02*
X352778270Y-110836819D01*
X352778270Y-110836819D02*
X352659222Y-110646342D01*
X352659222Y-110646342D02*
X352456841Y-110551104D01*
X352456841Y-110551104D02*
X352075889Y-110551104D01*
X352075889Y-110551104D02*
X351897317Y-110646342D01*
X351897317Y-110646342D02*
X351825889Y-110836819D01*
X351825889Y-110836819D02*
X351849698Y-111027295D01*
X351849698Y-111027295D02*
X352825889Y-111217771D01*
X351183031Y-111789200D02*
X351004460Y-111884438D01*
X351004460Y-111884438D02*
X350623507Y-111884438D01*
X350623507Y-111884438D02*
X350421126Y-111789200D01*
X350421126Y-111789200D02*
X350302079Y-111598723D01*
X350302079Y-111598723D02*
X350290174Y-111503485D01*
X350290174Y-111503485D02*
X350361603Y-111313009D01*
X350361603Y-111313009D02*
X350540174Y-111217771D01*
X350540174Y-111217771D02*
X350825888Y-111217771D01*
X350825888Y-111217771D02*
X351004460Y-111122533D01*
X351004460Y-111122533D02*
X351075888Y-110932057D01*
X351075888Y-110932057D02*
X351063984Y-110836819D01*
X351063984Y-110836819D02*
X350944936Y-110646342D01*
X350944936Y-110646342D02*
X350742555Y-110551104D01*
X350742555Y-110551104D02*
X350456841Y-110551104D01*
X350456841Y-110551104D02*
X350278269Y-110646342D01*
X349480650Y-111884438D02*
X349230650Y-109884438D01*
X348623507Y-111884438D02*
X348492555Y-110836819D01*
X348492555Y-110836819D02*
X348563983Y-110646342D01*
X348563983Y-110646342D02*
X348742555Y-110551104D01*
X348742555Y-110551104D02*
X349028269Y-110551104D01*
X349028269Y-110551104D02*
X349230650Y-110646342D01*
X349230650Y-110646342D02*
X349337793Y-110741580D01*
X346813983Y-111884438D02*
X346683031Y-110836819D01*
X346683031Y-110836819D02*
X346754459Y-110646342D01*
X346754459Y-110646342D02*
X346933031Y-110551104D01*
X346933031Y-110551104D02*
X347313983Y-110551104D01*
X347313983Y-110551104D02*
X347516364Y-110646342D01*
X346802078Y-111789200D02*
X347004459Y-111884438D01*
X347004459Y-111884438D02*
X347480650Y-111884438D01*
X347480650Y-111884438D02*
X347659221Y-111789200D01*
X347659221Y-111789200D02*
X347730650Y-111598723D01*
X347730650Y-111598723D02*
X347706840Y-111408247D01*
X347706840Y-111408247D02*
X347587792Y-111217771D01*
X347587792Y-111217771D02*
X347385412Y-111122533D01*
X347385412Y-111122533D02*
X346909221Y-111122533D01*
X346909221Y-111122533D02*
X346706840Y-111027295D01*
X345694935Y-110551104D02*
X345909221Y-112265390D01*
X345909221Y-112265390D02*
X346028268Y-112455866D01*
X346028268Y-112455866D02*
X346230649Y-112551104D01*
X346230649Y-112551104D02*
X346325888Y-112551104D01*
X345611602Y-109884438D02*
X345718745Y-109979676D01*
X345718745Y-109979676D02*
X345635411Y-110074914D01*
X345635411Y-110074914D02*
X345528268Y-109979676D01*
X345528268Y-109979676D02*
X345611602Y-109884438D01*
X345611602Y-109884438D02*
X345635411Y-110074914D01*
X343218745Y-109789200D02*
X345254459Y-112360628D01*
X342849697Y-109884438D02*
X342433030Y-111884438D01*
X342433030Y-111884438D02*
X341516364Y-109884438D01*
X341099697Y-111884438D02*
X340849697Y-109884438D01*
X340849697Y-109884438D02*
X339956840Y-111884438D01*
X339956840Y-111884438D02*
X339706840Y-109884438D01*
X339028268Y-111313009D02*
X338075887Y-111313009D01*
X339290173Y-111884438D02*
X338373506Y-109884438D01*
X338373506Y-109884438D02*
X337956840Y-111884438D01*
X337790173Y-112074914D02*
X336266363Y-112074914D01*
X335766363Y-111884438D02*
X335516363Y-109884438D01*
X335516363Y-109884438D02*
X335040172Y-109884438D01*
X335040172Y-109884438D02*
X334766363Y-109979676D01*
X334766363Y-109979676D02*
X334599696Y-110170152D01*
X334599696Y-110170152D02*
X334528268Y-110360628D01*
X334528268Y-110360628D02*
X334480649Y-110741580D01*
X334480649Y-110741580D02*
X334516363Y-111027295D01*
X334516363Y-111027295D02*
X334659220Y-111408247D01*
X334659220Y-111408247D02*
X334778268Y-111598723D01*
X334778268Y-111598723D02*
X334992553Y-111789200D01*
X334992553Y-111789200D02*
X335290172Y-111884438D01*
X335290172Y-111884438D02*
X335766363Y-111884438D01*
X332992553Y-111789200D02*
X333194934Y-111884438D01*
X333194934Y-111884438D02*
X333575887Y-111884438D01*
X333575887Y-111884438D02*
X333754458Y-111789200D01*
X333754458Y-111789200D02*
X333825887Y-111598723D01*
X333825887Y-111598723D02*
X333730649Y-110836819D01*
X333730649Y-110836819D02*
X333611601Y-110646342D01*
X333611601Y-110646342D02*
X333409220Y-110551104D01*
X333409220Y-110551104D02*
X333028268Y-110551104D01*
X333028268Y-110551104D02*
X332849696Y-110646342D01*
X332849696Y-110646342D02*
X332778268Y-110836819D01*
X332778268Y-110836819D02*
X332802077Y-111027295D01*
X332802077Y-111027295D02*
X333778268Y-111217771D01*
X332135410Y-111789200D02*
X331956839Y-111884438D01*
X331956839Y-111884438D02*
X331575886Y-111884438D01*
X331575886Y-111884438D02*
X331373505Y-111789200D01*
X331373505Y-111789200D02*
X331254458Y-111598723D01*
X331254458Y-111598723D02*
X331242553Y-111503485D01*
X331242553Y-111503485D02*
X331313982Y-111313009D01*
X331313982Y-111313009D02*
X331492553Y-111217771D01*
X331492553Y-111217771D02*
X331778267Y-111217771D01*
X331778267Y-111217771D02*
X331956839Y-111122533D01*
X331956839Y-111122533D02*
X332028267Y-110932057D01*
X332028267Y-110932057D02*
X332016363Y-110836819D01*
X332016363Y-110836819D02*
X331897315Y-110646342D01*
X331897315Y-110646342D02*
X331694934Y-110551104D01*
X331694934Y-110551104D02*
X331409220Y-110551104D01*
X331409220Y-110551104D02*
X331230648Y-110646342D01*
X330433029Y-111884438D02*
X330266362Y-110551104D01*
X330183029Y-109884438D02*
X330290172Y-109979676D01*
X330290172Y-109979676D02*
X330206838Y-110074914D01*
X330206838Y-110074914D02*
X330099695Y-109979676D01*
X330099695Y-109979676D02*
X330183029Y-109884438D01*
X330183029Y-109884438D02*
X330206838Y-110074914D01*
X328456838Y-110551104D02*
X328659219Y-112170152D01*
X328659219Y-112170152D02*
X328778267Y-112360628D01*
X328778267Y-112360628D02*
X328885410Y-112455866D01*
X328885410Y-112455866D02*
X329087791Y-112551104D01*
X329087791Y-112551104D02*
X329373505Y-112551104D01*
X329373505Y-112551104D02*
X329552076Y-112455866D01*
X328611600Y-111789200D02*
X328813981Y-111884438D01*
X328813981Y-111884438D02*
X329194934Y-111884438D01*
X329194934Y-111884438D02*
X329373505Y-111789200D01*
X329373505Y-111789200D02*
X329456838Y-111693961D01*
X329456838Y-111693961D02*
X329528267Y-111503485D01*
X329528267Y-111503485D02*
X329456838Y-110932057D01*
X329456838Y-110932057D02*
X329337791Y-110741580D01*
X329337791Y-110741580D02*
X329230648Y-110646342D01*
X329230648Y-110646342D02*
X329028267Y-110551104D01*
X329028267Y-110551104D02*
X328647314Y-110551104D01*
X328647314Y-110551104D02*
X328468743Y-110646342D01*
X327504457Y-110551104D02*
X327671124Y-111884438D01*
X327528267Y-110741580D02*
X327421124Y-110646342D01*
X327421124Y-110646342D02*
X327218743Y-110551104D01*
X327218743Y-110551104D02*
X326933029Y-110551104D01*
X326933029Y-110551104D02*
X326754457Y-110646342D01*
X326754457Y-110646342D02*
X326683029Y-110836819D01*
X326683029Y-110836819D02*
X326813981Y-111884438D01*
D12*
X357319047Y-174129580D02*
X357366666Y-174177200D01*
X357366666Y-174177200D02*
X357509523Y-174224819D01*
X357509523Y-174224819D02*
X357604761Y-174224819D01*
X357604761Y-174224819D02*
X357747618Y-174177200D01*
X357747618Y-174177200D02*
X357842856Y-174081961D01*
X357842856Y-174081961D02*
X357890475Y-173986723D01*
X357890475Y-173986723D02*
X357938094Y-173796247D01*
X357938094Y-173796247D02*
X357938094Y-173653390D01*
X357938094Y-173653390D02*
X357890475Y-173462914D01*
X357890475Y-173462914D02*
X357842856Y-173367676D01*
X357842856Y-173367676D02*
X357747618Y-173272438D01*
X357747618Y-173272438D02*
X357604761Y-173224819D01*
X357604761Y-173224819D02*
X357509523Y-173224819D01*
X357509523Y-173224819D02*
X357366666Y-173272438D01*
X357366666Y-173272438D02*
X357319047Y-173320057D01*
X356461904Y-173558152D02*
X356461904Y-174224819D01*
X356699999Y-173177200D02*
X356938094Y-173891485D01*
X356938094Y-173891485D02*
X356319047Y-173891485D01*
X356033332Y-173224819D02*
X355414285Y-173224819D01*
X355414285Y-173224819D02*
X355747618Y-173605771D01*
X355747618Y-173605771D02*
X355604761Y-173605771D01*
X355604761Y-173605771D02*
X355509523Y-173653390D01*
X355509523Y-173653390D02*
X355461904Y-173701009D01*
X355461904Y-173701009D02*
X355414285Y-173796247D01*
X355414285Y-173796247D02*
X355414285Y-174034342D01*
X355414285Y-174034342D02*
X355461904Y-174129580D01*
X355461904Y-174129580D02*
X355509523Y-174177200D01*
X355509523Y-174177200D02*
X355604761Y-174224819D01*
X355604761Y-174224819D02*
X355890475Y-174224819D01*
X355890475Y-174224819D02*
X355985713Y-174177200D01*
X355985713Y-174177200D02*
X356033332Y-174129580D01*
X354461904Y-174224819D02*
X355033332Y-174224819D01*
X354747618Y-174224819D02*
X354747618Y-173224819D01*
X354747618Y-173224819D02*
X354842856Y-173367676D01*
X354842856Y-173367676D02*
X354938094Y-173462914D01*
X354938094Y-173462914D02*
X355033332Y-173510533D01*
X274462023Y-233941547D02*
X274462023Y-234008891D01*
X274462023Y-234008891D02*
X274529367Y-234143578D01*
X274529367Y-234143578D02*
X274596710Y-234210921D01*
X274596710Y-234210921D02*
X274731397Y-234278265D01*
X274731397Y-234278265D02*
X274866084Y-234278265D01*
X274866084Y-234278265D02*
X274967099Y-234244593D01*
X274967099Y-234244593D02*
X275135458Y-234143578D01*
X275135458Y-234143578D02*
X275236474Y-234042563D01*
X275236474Y-234042563D02*
X275337489Y-233874204D01*
X275337489Y-233874204D02*
X275371161Y-233773189D01*
X275371161Y-233773189D02*
X275371161Y-233638502D01*
X275371161Y-233638502D02*
X275303817Y-233503815D01*
X275303817Y-233503815D02*
X275236474Y-233436471D01*
X275236474Y-233436471D02*
X275101787Y-233369128D01*
X275101787Y-233369128D02*
X275034443Y-233369128D01*
X274462023Y-232662021D02*
X274798741Y-232998738D01*
X274798741Y-232998738D02*
X274495695Y-233369128D01*
X274495695Y-233369128D02*
X274495695Y-233301784D01*
X274495695Y-233301784D02*
X274462023Y-233200769D01*
X274462023Y-233200769D02*
X274293664Y-233032410D01*
X274293664Y-233032410D02*
X274192649Y-232998738D01*
X274192649Y-232998738D02*
X274125306Y-232998738D01*
X274125306Y-232998738D02*
X274024290Y-233032410D01*
X274024290Y-233032410D02*
X273855932Y-233200769D01*
X273855932Y-233200769D02*
X273822260Y-233301784D01*
X273822260Y-233301784D02*
X273822260Y-233369128D01*
X273822260Y-233369128D02*
X273855932Y-233470143D01*
X273855932Y-233470143D02*
X274024290Y-233638502D01*
X274024290Y-233638502D02*
X274125306Y-233672173D01*
X274125306Y-233672173D02*
X274192649Y-233672173D01*
X273990619Y-232190616D02*
X273923275Y-232123273D01*
X273923275Y-232123273D02*
X273822260Y-232089601D01*
X273822260Y-232089601D02*
X273754916Y-232089601D01*
X273754916Y-232089601D02*
X273653901Y-232123273D01*
X273653901Y-232123273D02*
X273485542Y-232224288D01*
X273485542Y-232224288D02*
X273317184Y-232392647D01*
X273317184Y-232392647D02*
X273216168Y-232561006D01*
X273216168Y-232561006D02*
X273182497Y-232662021D01*
X273182497Y-232662021D02*
X273182497Y-232729364D01*
X273182497Y-232729364D02*
X273216168Y-232830380D01*
X273216168Y-232830380D02*
X273283512Y-232897723D01*
X273283512Y-232897723D02*
X273384527Y-232931395D01*
X273384527Y-232931395D02*
X273451871Y-232931395D01*
X273451871Y-232931395D02*
X273552886Y-232897723D01*
X273552886Y-232897723D02*
X273721245Y-232796708D01*
X273721245Y-232796708D02*
X273889603Y-232628349D01*
X273889603Y-232628349D02*
X273990619Y-232459990D01*
X273990619Y-232459990D02*
X274024290Y-232358975D01*
X274024290Y-232358975D02*
X274024290Y-232291632D01*
X274024290Y-232291632D02*
X273990619Y-232190616D01*
X273519214Y-231719212D02*
X273081481Y-231281479D01*
X273081481Y-231281479D02*
X273047810Y-231786555D01*
X273047810Y-231786555D02*
X272946794Y-231685540D01*
X272946794Y-231685540D02*
X272845779Y-231651868D01*
X272845779Y-231651868D02*
X272778436Y-231651868D01*
X272778436Y-231651868D02*
X272677420Y-231685540D01*
X272677420Y-231685540D02*
X272509062Y-231853899D01*
X272509062Y-231853899D02*
X272475390Y-231954914D01*
X272475390Y-231954914D02*
X272475390Y-232022258D01*
X272475390Y-232022258D02*
X272509062Y-232123273D01*
X272509062Y-232123273D02*
X272711092Y-232325303D01*
X272711092Y-232325303D02*
X272812107Y-232358975D01*
X272812107Y-232358975D02*
X272879451Y-232358975D01*
X274579547Y-221678976D02*
X274646891Y-221678976D01*
X274646891Y-221678976D02*
X274781578Y-221611632D01*
X274781578Y-221611632D02*
X274848921Y-221544289D01*
X274848921Y-221544289D02*
X274916265Y-221409602D01*
X274916265Y-221409602D02*
X274916265Y-221274915D01*
X274916265Y-221274915D02*
X274882593Y-221173900D01*
X274882593Y-221173900D02*
X274781578Y-221005541D01*
X274781578Y-221005541D02*
X274680563Y-220904525D01*
X274680563Y-220904525D02*
X274512204Y-220803510D01*
X274512204Y-220803510D02*
X274411189Y-220769838D01*
X274411189Y-220769838D02*
X274276502Y-220769838D01*
X274276502Y-220769838D02*
X274141815Y-220837182D01*
X274141815Y-220837182D02*
X274074471Y-220904525D01*
X274074471Y-220904525D02*
X274007128Y-221039212D01*
X274007128Y-221039212D02*
X274007128Y-221106556D01*
X273300021Y-221678976D02*
X273636738Y-221342258D01*
X273636738Y-221342258D02*
X274007128Y-221645304D01*
X274007128Y-221645304D02*
X273939784Y-221645304D01*
X273939784Y-221645304D02*
X273838769Y-221678976D01*
X273838769Y-221678976D02*
X273670410Y-221847335D01*
X273670410Y-221847335D02*
X273636738Y-221948350D01*
X273636738Y-221948350D02*
X273636738Y-222015693D01*
X273636738Y-222015693D02*
X273670410Y-222116709D01*
X273670410Y-222116709D02*
X273838769Y-222285067D01*
X273838769Y-222285067D02*
X273939784Y-222318739D01*
X273939784Y-222318739D02*
X274007128Y-222318739D01*
X274007128Y-222318739D02*
X274108143Y-222285067D01*
X274108143Y-222285067D02*
X274276502Y-222116709D01*
X274276502Y-222116709D02*
X274310173Y-222015693D01*
X274310173Y-222015693D02*
X274310173Y-221948350D01*
X273300021Y-223093189D02*
X273704082Y-222689128D01*
X273502051Y-222891159D02*
X272794945Y-222184052D01*
X272794945Y-222184052D02*
X272963303Y-222217724D01*
X272963303Y-222217724D02*
X273097990Y-222217724D01*
X273097990Y-222217724D02*
X273199006Y-222184052D01*
X272155181Y-222823815D02*
X272087838Y-222891159D01*
X272087838Y-222891159D02*
X272054166Y-222992174D01*
X272054166Y-222992174D02*
X272054166Y-223059518D01*
X272054166Y-223059518D02*
X272087838Y-223160533D01*
X272087838Y-223160533D02*
X272188853Y-223328892D01*
X272188853Y-223328892D02*
X272357212Y-223497250D01*
X272357212Y-223497250D02*
X272525571Y-223598266D01*
X272525571Y-223598266D02*
X272626586Y-223631937D01*
X272626586Y-223631937D02*
X272693929Y-223631937D01*
X272693929Y-223631937D02*
X272794945Y-223598266D01*
X272794945Y-223598266D02*
X272862288Y-223530922D01*
X272862288Y-223530922D02*
X272895960Y-223429907D01*
X272895960Y-223429907D02*
X272895960Y-223362563D01*
X272895960Y-223362563D02*
X272862288Y-223261548D01*
X272862288Y-223261548D02*
X272761273Y-223093189D01*
X272761273Y-223093189D02*
X272592914Y-222924831D01*
X272592914Y-222924831D02*
X272424555Y-222823815D01*
X272424555Y-222823815D02*
X272323540Y-222790144D01*
X272323540Y-222790144D02*
X272256197Y-222790144D01*
X272256197Y-222790144D02*
X272155181Y-222823815D01*
X275895680Y-232767891D02*
X276468099Y-232666876D01*
X276299741Y-233171952D02*
X277006848Y-232464845D01*
X277006848Y-232464845D02*
X276737474Y-232195471D01*
X276737474Y-232195471D02*
X276636458Y-232161799D01*
X276636458Y-232161799D02*
X276569115Y-232161799D01*
X276569115Y-232161799D02*
X276468099Y-232195471D01*
X276468099Y-232195471D02*
X276367084Y-232296486D01*
X276367084Y-232296486D02*
X276333412Y-232397502D01*
X276333412Y-232397502D02*
X276333412Y-232464845D01*
X276333412Y-232464845D02*
X276367084Y-232565860D01*
X276367084Y-232565860D02*
X276636458Y-232835234D01*
X275963023Y-231421021D02*
X276299741Y-231757738D01*
X276299741Y-231757738D02*
X275996695Y-232128128D01*
X275996695Y-232128128D02*
X275996695Y-232060784D01*
X275996695Y-232060784D02*
X275963023Y-231959769D01*
X275963023Y-231959769D02*
X275794664Y-231791410D01*
X275794664Y-231791410D02*
X275693649Y-231757738D01*
X275693649Y-231757738D02*
X275626306Y-231757738D01*
X275626306Y-231757738D02*
X275525290Y-231791410D01*
X275525290Y-231791410D02*
X275356932Y-231959769D01*
X275356932Y-231959769D02*
X275323260Y-232060784D01*
X275323260Y-232060784D02*
X275323260Y-232128128D01*
X275323260Y-232128128D02*
X275356932Y-232229143D01*
X275356932Y-232229143D02*
X275525290Y-232397502D01*
X275525290Y-232397502D02*
X275626306Y-232431173D01*
X275626306Y-232431173D02*
X275693649Y-232431173D01*
X275491619Y-230949616D02*
X275424275Y-230882273D01*
X275424275Y-230882273D02*
X275323260Y-230848601D01*
X275323260Y-230848601D02*
X275255916Y-230848601D01*
X275255916Y-230848601D02*
X275154901Y-230882273D01*
X275154901Y-230882273D02*
X274986542Y-230983288D01*
X274986542Y-230983288D02*
X274818184Y-231151647D01*
X274818184Y-231151647D02*
X274717168Y-231320006D01*
X274717168Y-231320006D02*
X274683497Y-231421021D01*
X274683497Y-231421021D02*
X274683497Y-231488364D01*
X274683497Y-231488364D02*
X274717168Y-231589380D01*
X274717168Y-231589380D02*
X274784512Y-231656723D01*
X274784512Y-231656723D02*
X274885527Y-231690395D01*
X274885527Y-231690395D02*
X274952871Y-231690395D01*
X274952871Y-231690395D02*
X275053886Y-231656723D01*
X275053886Y-231656723D02*
X275222245Y-231555708D01*
X275222245Y-231555708D02*
X275390603Y-231387349D01*
X275390603Y-231387349D02*
X275491619Y-231218990D01*
X275491619Y-231218990D02*
X275525290Y-231117975D01*
X275525290Y-231117975D02*
X275525290Y-231050632D01*
X275525290Y-231050632D02*
X275491619Y-230949616D01*
X274414123Y-230343525D02*
X273942718Y-230814929D01*
X274851855Y-230242510D02*
X274515138Y-230915945D01*
X274515138Y-230915945D02*
X274077405Y-230478212D01*
D13*
%TO.C,C431*%
X356346267Y-174690000D02*
X356053733Y-174690000D01*
X356346267Y-175710000D02*
X356053733Y-175710000D01*
%TO.C,C503*%
X269659949Y-235008198D02*
X269866802Y-235215051D01*
X270381198Y-234286949D02*
X270588051Y-234493802D01*
D14*
%TO.C,G\u002A\u002A\u002A*%
G36*
X360409586Y-217647268D02*
G01*
X362956370Y-217911203D01*
X365469259Y-218339222D01*
X367943084Y-218929914D01*
X370372674Y-219681869D01*
X372752858Y-220593674D01*
X375078466Y-221663919D01*
X377344327Y-222891192D01*
X379545271Y-224274083D01*
X379951872Y-224545505D01*
X380323165Y-224788263D01*
X380624927Y-224980188D01*
X380833621Y-225106318D01*
X380925706Y-225151686D01*
X380939816Y-225152852D01*
X381003908Y-225222656D01*
X381038533Y-225271373D01*
X381183277Y-225408425D01*
X381414778Y-225604437D01*
X381704745Y-225834701D01*
X381794814Y-225904539D01*
X383130883Y-227007937D01*
X384479306Y-228241650D01*
X385810284Y-229574613D01*
X387094021Y-230975756D01*
X388300717Y-232414014D01*
X389400574Y-233858318D01*
X389546324Y-234061842D01*
X390904032Y-236111858D01*
X392129123Y-238251656D01*
X393217027Y-240468059D01*
X394163175Y-242747892D01*
X394962997Y-245077980D01*
X395611923Y-247445148D01*
X396105383Y-249836220D01*
X396438807Y-252238020D01*
X396607626Y-254637375D01*
X396629995Y-255179149D01*
X396657641Y-255633963D01*
X396689920Y-255950644D01*
X396728555Y-256145600D01*
X396775266Y-256235242D01*
X396873110Y-256409177D01*
X396873520Y-256630493D01*
X396775332Y-256806077D01*
X396737108Y-256869971D01*
X396696170Y-257045554D01*
X396662062Y-257341895D01*
X396633036Y-257775185D01*
X396607343Y-258361611D01*
X396601872Y-258502324D01*
X396419899Y-260904890D01*
X396073295Y-263308184D01*
X395566476Y-265699499D01*
X394903854Y-268066131D01*
X394089843Y-270395375D01*
X393128858Y-272674524D01*
X392025312Y-274890873D01*
X390783619Y-277031718D01*
X389408193Y-279084353D01*
X388442468Y-280366381D01*
X386946134Y-282154481D01*
X385329874Y-283876303D01*
X383622645Y-285501505D01*
X381853407Y-286999748D01*
X381619907Y-287190564D01*
X381349381Y-287425874D01*
X381150426Y-287615997D01*
X381054639Y-287731969D01*
X380989089Y-287821796D01*
X380855935Y-287889687D01*
X380842766Y-287892370D01*
X380707572Y-287958076D01*
X380460241Y-288101205D01*
X380123841Y-288307674D01*
X379721440Y-288563396D01*
X379276107Y-288854288D01*
X377628829Y-289894859D01*
X375790922Y-290933786D01*
X373940411Y-291847621D01*
X372041701Y-292655065D01*
X371984271Y-292677595D01*
X369933703Y-293421880D01*
X367899869Y-294038667D01*
X365851141Y-294534683D01*
X363755889Y-294916656D01*
X361582485Y-295191314D01*
X359299299Y-295365384D01*
X358775391Y-295392209D01*
X358260112Y-295413917D01*
X357794733Y-295425906D01*
X357347944Y-295427487D01*
X356888433Y-295417969D01*
X356384891Y-295396662D01*
X355806009Y-295362875D01*
X355120475Y-295315919D01*
X354296980Y-295255102D01*
X353078925Y-295141235D01*
X350725747Y-294799093D01*
X350211582Y-294690165D01*
X357713602Y-294690165D01*
X359120461Y-294634864D01*
X360110227Y-294583322D01*
X362640355Y-294335708D01*
X365138861Y-293924332D01*
X367597940Y-293351457D01*
X370009784Y-292619342D01*
X372366587Y-291730249D01*
X374660541Y-290686439D01*
X376883842Y-289490173D01*
X377178746Y-289316462D01*
X377687234Y-289008353D01*
X378195073Y-288691233D01*
X378681566Y-288378874D01*
X379126017Y-288085047D01*
X379507728Y-287823524D01*
X379806004Y-287608077D01*
X380000147Y-287452475D01*
X380069460Y-287370491D01*
X380062341Y-287344941D01*
X379985943Y-287198007D01*
X379843586Y-286963721D01*
X379657491Y-286679363D01*
X379086315Y-285776493D01*
X378291379Y-284286299D01*
X377625313Y-282724712D01*
X377097535Y-281117954D01*
X376717463Y-279492245D01*
X376494516Y-277873806D01*
X376458752Y-277473894D01*
X376420504Y-277059777D01*
X376387658Y-276717772D01*
X376364764Y-276496179D01*
X376325869Y-276151672D01*
X376284539Y-276147862D01*
X377078031Y-276147862D01*
X377135938Y-276959941D01*
X377219524Y-277875834D01*
X377471243Y-279513934D01*
X377854375Y-281079636D01*
X378377479Y-282604984D01*
X379049115Y-284122020D01*
X379230232Y-284480570D01*
X379496458Y-284978911D01*
X379769921Y-285463032D01*
X380036531Y-285910171D01*
X380282196Y-286297567D01*
X380492826Y-286602459D01*
X380654329Y-286802086D01*
X380752614Y-286873687D01*
X380830296Y-286844570D01*
X381032024Y-286713782D01*
X381326791Y-286491518D01*
X381697340Y-286192757D01*
X382126416Y-285832480D01*
X382596765Y-285425668D01*
X383091130Y-284987301D01*
X383592256Y-284532358D01*
X384082888Y-284075820D01*
X384545770Y-283632667D01*
X384963647Y-283217880D01*
X385910329Y-282220332D01*
X387266791Y-280658140D01*
X388537767Y-279032987D01*
X389696759Y-277379348D01*
X390717272Y-275731700D01*
X390810356Y-275568218D01*
X390965733Y-275283871D01*
X391072956Y-275071754D01*
X391112939Y-274968675D01*
X391087371Y-274931019D01*
X390948488Y-274810341D01*
X390716006Y-274637084D01*
X390420800Y-274435050D01*
X390202643Y-274282182D01*
X389799556Y-273969279D01*
X389381821Y-273615482D01*
X389011379Y-273271909D01*
X389010856Y-273271393D01*
X388731464Y-272997657D01*
X388500661Y-272774565D01*
X388342393Y-272625051D01*
X388280608Y-272572049D01*
X388261971Y-272583954D01*
X388134031Y-272667778D01*
X387912547Y-272813676D01*
X387629995Y-273000271D01*
X387479963Y-273095293D01*
X387113646Y-273310761D01*
X386661693Y-273562232D01*
X386167589Y-273825749D01*
X385674822Y-274077355D01*
X384965781Y-274413880D01*
X383307255Y-275074813D01*
X381616892Y-275572109D01*
X379880789Y-275909455D01*
X378085047Y-276090539D01*
X377078031Y-276147862D01*
X376284539Y-276147862D01*
X375203183Y-276048178D01*
X374643808Y-275988992D01*
X372828657Y-275688603D01*
X371667410Y-275385361D01*
X377078763Y-275385361D01*
X378170600Y-275334028D01*
X378418738Y-275320256D01*
X379943401Y-275148804D01*
X381493163Y-274833659D01*
X383034149Y-274385906D01*
X384532483Y-273816629D01*
X385954290Y-273136913D01*
X387265695Y-272357844D01*
X387691554Y-272075610D01*
X388955910Y-272075610D01*
X389004526Y-272189636D01*
X389159356Y-272379805D01*
X389397667Y-272625893D01*
X389696727Y-272907672D01*
X390033800Y-273204920D01*
X390386155Y-273497409D01*
X390731057Y-273764916D01*
X391045774Y-273987215D01*
X391307572Y-274144080D01*
X391544681Y-274266306D01*
X392172456Y-272971163D01*
X392337565Y-272625795D01*
X393301014Y-270391573D01*
X394126810Y-268071054D01*
X394807499Y-265684851D01*
X394862844Y-265461300D01*
X394961014Y-265046794D01*
X395036258Y-264704324D01*
X395082016Y-264464518D01*
X395091727Y-264358006D01*
X395077737Y-264356807D01*
X395005972Y-264454422D01*
X394890847Y-264663049D01*
X394749455Y-264952973D01*
X394643858Y-265173618D01*
X394245789Y-265925505D01*
X393771228Y-266727512D01*
X393252747Y-267526348D01*
X392722916Y-268268722D01*
X392259150Y-268860557D01*
X391565780Y-269661085D01*
X390805170Y-270441385D01*
X389947962Y-271231077D01*
X388964793Y-272059779D01*
X388955910Y-272075610D01*
X387691554Y-272075610D01*
X387862496Y-271962320D01*
X387455221Y-271286936D01*
X387408807Y-271208717D01*
X387185564Y-270804043D01*
X386974486Y-270381893D01*
X386815851Y-270021952D01*
X386701874Y-269756610D01*
X386561530Y-269514497D01*
X386448514Y-269432368D01*
X386426261Y-269433476D01*
X386249156Y-269457733D01*
X385968349Y-269507242D01*
X385633674Y-269573379D01*
X385601092Y-269579983D01*
X385056216Y-269658604D01*
X384392427Y-269708446D01*
X383655003Y-269729847D01*
X382889219Y-269723146D01*
X382140352Y-269688680D01*
X381453679Y-269626789D01*
X380874476Y-269537811D01*
X380629199Y-269485662D01*
X380118049Y-269363334D01*
X379613835Y-269227867D01*
X379489143Y-269189693D01*
X387341561Y-269189693D01*
X387349480Y-269318060D01*
X387424910Y-269553871D01*
X387551626Y-269864403D01*
X387713404Y-270216937D01*
X387894019Y-270578749D01*
X388077246Y-270917118D01*
X388246861Y-271199323D01*
X388386639Y-271392642D01*
X388480354Y-271464353D01*
X388563930Y-271418786D01*
X388751205Y-271283553D01*
X389011656Y-271080233D01*
X389316536Y-270830610D01*
X389876625Y-270339333D01*
X391012823Y-269192004D01*
X392063741Y-267920778D01*
X393010337Y-266549794D01*
X393833574Y-265103196D01*
X393886646Y-264999030D01*
X394067373Y-264637389D01*
X394209850Y-264341438D01*
X394300165Y-264140686D01*
X395105581Y-264140686D01*
X395148056Y-264183020D01*
X395190530Y-264140686D01*
X395148056Y-264098353D01*
X395105581Y-264140686D01*
X394300165Y-264140686D01*
X394300751Y-264139383D01*
X394326746Y-264059434D01*
X394269428Y-264106674D01*
X394141513Y-264259017D01*
X393971701Y-264483053D01*
X393229509Y-265386792D01*
X392322468Y-266282718D01*
X391310581Y-267108783D01*
X390226242Y-267840996D01*
X389101848Y-268455366D01*
X387969795Y-268927903D01*
X387682169Y-269033393D01*
X387458805Y-269124289D01*
X387348117Y-269180891D01*
X387341561Y-269189693D01*
X379489143Y-269189693D01*
X379196807Y-269100195D01*
X379153983Y-269085677D01*
X378853976Y-268982318D01*
X378641761Y-268924917D01*
X378492658Y-268932198D01*
X378381988Y-269022890D01*
X378285072Y-269215717D01*
X378177230Y-269529407D01*
X378033783Y-269982686D01*
X377886712Y-270460692D01*
X377541169Y-271806145D01*
X377295548Y-273174946D01*
X377137459Y-274631357D01*
X377078763Y-275385361D01*
X371667410Y-275385361D01*
X371066620Y-275228474D01*
X369362793Y-274610371D01*
X367722271Y-273836063D01*
X366150150Y-272907318D01*
X365880272Y-272733152D01*
X365600395Y-272558580D01*
X365398830Y-272439980D01*
X365307043Y-272396420D01*
X365271595Y-272419448D01*
X365147197Y-272561390D01*
X364955576Y-272815000D01*
X364710764Y-273159632D01*
X364426795Y-273574641D01*
X364117705Y-274039379D01*
X363797526Y-274533203D01*
X363480293Y-275035464D01*
X363180040Y-275525519D01*
X363017306Y-275799774D01*
X362482610Y-276748650D01*
X361941092Y-277775222D01*
X361419590Y-278825939D01*
X360944942Y-279847248D01*
X360543983Y-280785598D01*
X359897304Y-282515547D01*
X359270367Y-284502589D01*
X358744480Y-286531276D01*
X358327973Y-288565289D01*
X358029175Y-290568310D01*
X357856416Y-292504020D01*
X357847934Y-292651623D01*
X357818890Y-293134293D01*
X357788134Y-293619098D01*
X357761050Y-294020426D01*
X357713602Y-294690165D01*
X350211582Y-294690165D01*
X348370994Y-294300229D01*
X346033003Y-293651250D01*
X343730110Y-292858765D01*
X341480649Y-291929381D01*
X339302958Y-290869707D01*
X337215371Y-289686350D01*
X335236224Y-288385918D01*
X335032898Y-288245632D01*
X334749029Y-288062159D01*
X334530949Y-287936373D01*
X334414129Y-287889687D01*
X334413111Y-287889679D01*
X334279346Y-287826980D01*
X334126935Y-287678219D01*
X334116630Y-287665761D01*
X333972591Y-287521592D01*
X333731688Y-287305239D01*
X335046049Y-287305239D01*
X335046942Y-287308914D01*
X335130037Y-287388240D01*
X335332494Y-287540686D01*
X335631945Y-287751514D01*
X336006022Y-288005984D01*
X336432358Y-288289359D01*
X336888583Y-288586898D01*
X337352330Y-288883865D01*
X337801231Y-289165519D01*
X338212917Y-289417123D01*
X338565021Y-289623939D01*
X340232702Y-290521795D01*
X342530932Y-291593308D01*
X344888462Y-292506298D01*
X347305716Y-293260893D01*
X349783116Y-293857221D01*
X352321088Y-294295411D01*
X354920053Y-294575591D01*
X354950215Y-294577886D01*
X355424615Y-294611032D01*
X355881862Y-294638092D01*
X356271243Y-294656332D01*
X356542044Y-294663020D01*
X357021468Y-294663020D01*
X357076108Y-293287187D01*
X357150308Y-292010499D01*
X357415574Y-289600284D01*
X357840870Y-287189624D01*
X358421163Y-284795789D01*
X359151418Y-282436049D01*
X360026603Y-280127674D01*
X361041686Y-277887933D01*
X362191632Y-275734098D01*
X362330074Y-275499886D01*
X362600245Y-275059582D01*
X362921570Y-274549820D01*
X363270838Y-274006307D01*
X363624838Y-273464750D01*
X363960360Y-272960856D01*
X364254194Y-272530332D01*
X364483129Y-272208885D01*
X364715395Y-271895083D01*
X364516536Y-271736643D01*
X365797888Y-271736643D01*
X365864576Y-271822676D01*
X366059912Y-271974830D01*
X366360925Y-272177265D01*
X366744545Y-272416046D01*
X367187703Y-272677235D01*
X367667330Y-272946894D01*
X368160354Y-273211088D01*
X368643708Y-273455879D01*
X370021968Y-274070426D01*
X371471204Y-274580902D01*
X372963939Y-274964754D01*
X374547721Y-275236322D01*
X375186620Y-275312961D01*
X375687920Y-275351619D01*
X376044556Y-275349903D01*
X376266833Y-275307750D01*
X376365054Y-275225095D01*
X376385473Y-275133493D01*
X376408596Y-274900754D01*
X376418276Y-274611262D01*
X376451951Y-273942238D01*
X376547117Y-273142223D01*
X376695956Y-272267131D01*
X376890682Y-271357294D01*
X377123511Y-270453042D01*
X377386656Y-269594709D01*
X377744003Y-268529398D01*
X377038688Y-268169442D01*
X377005584Y-268151576D01*
X378713989Y-268151576D01*
X379169495Y-268321435D01*
X379597102Y-268467623D01*
X380657518Y-268737980D01*
X381801116Y-268917726D01*
X382983519Y-269002858D01*
X384160348Y-268989372D01*
X385287228Y-268873266D01*
X385554434Y-268829872D01*
X385887985Y-268769640D01*
X386132796Y-268717984D01*
X386249165Y-268682766D01*
X386277506Y-268635371D01*
X386277631Y-268433169D01*
X386212745Y-268077686D01*
X386174200Y-267849145D01*
X386133069Y-267450310D01*
X386101421Y-266967666D01*
X386080375Y-266443273D01*
X386071328Y-265934758D01*
X386790735Y-265934758D01*
X386803334Y-266664837D01*
X386860020Y-267381436D01*
X386956786Y-268008558D01*
X387056533Y-268489763D01*
X387661826Y-268274236D01*
X388211870Y-268062545D01*
X389473247Y-267450380D01*
X390660796Y-266692334D01*
X391763981Y-265797532D01*
X392772267Y-264775100D01*
X393675116Y-263634165D01*
X394461995Y-262383853D01*
X394499659Y-262315853D01*
X394637040Y-262059724D01*
X394726147Y-261880094D01*
X394749196Y-261812353D01*
X394735422Y-261820614D01*
X394628938Y-261914817D01*
X394444308Y-262091872D01*
X394210948Y-262323828D01*
X393577429Y-262893311D01*
X392653658Y-263536765D01*
X391635539Y-264062940D01*
X390551848Y-264455077D01*
X390535300Y-264459839D01*
X390266279Y-264531083D01*
X390009749Y-264582086D01*
X389729241Y-264616098D01*
X389388287Y-264636369D01*
X388950417Y-264646149D01*
X388379163Y-264648686D01*
X386877160Y-264648686D01*
X386817360Y-265364192D01*
X386790735Y-265934758D01*
X386071328Y-265934758D01*
X386071051Y-265919195D01*
X386074570Y-265437493D01*
X386092054Y-265040229D01*
X386124621Y-264769464D01*
X386187921Y-264466908D01*
X385486049Y-264200232D01*
X385246777Y-264105153D01*
X384571845Y-263767060D01*
X387124580Y-263767060D01*
X387150882Y-263903059D01*
X387191464Y-263922815D01*
X387384033Y-263952551D01*
X387693645Y-263967868D01*
X388085125Y-263969824D01*
X388523297Y-263959476D01*
X388972986Y-263937883D01*
X389399019Y-263906100D01*
X389766219Y-263865188D01*
X390039412Y-263816202D01*
X390501137Y-263688895D01*
X391568942Y-263278160D01*
X392542860Y-262734489D01*
X393413625Y-262068252D01*
X394171972Y-261289819D01*
X394808635Y-260409559D01*
X395314350Y-259437843D01*
X395679852Y-258385040D01*
X395895874Y-257261520D01*
X395938912Y-256901686D01*
X395628434Y-256911508D01*
X395599749Y-256912501D01*
X395358615Y-256926811D01*
X395190530Y-256946212D01*
X395180363Y-256948148D01*
X395020032Y-256976125D01*
X394751126Y-257021105D01*
X394425982Y-257074320D01*
X393779190Y-257209237D01*
X392757514Y-257534645D01*
X391754165Y-257984020D01*
X390818775Y-258537233D01*
X390364610Y-258879435D01*
X389840865Y-259338400D01*
X389320811Y-259850026D01*
X388851737Y-260367645D01*
X388480927Y-260844587D01*
X388414470Y-260942325D01*
X388152082Y-261362982D01*
X387896731Y-261821629D01*
X387659819Y-262292046D01*
X387452746Y-262748016D01*
X387286914Y-263163321D01*
X387173725Y-263511742D01*
X387124580Y-263767060D01*
X384571845Y-263767060D01*
X384184134Y-263572844D01*
X383203137Y-262892122D01*
X383155633Y-262854082D01*
X382920153Y-262669086D01*
X382747004Y-262538898D01*
X382670802Y-262489686D01*
X382637229Y-262515556D01*
X382506940Y-262640404D01*
X382304211Y-262845185D01*
X382055344Y-263103661D01*
X381272102Y-264002158D01*
X380486637Y-265056163D01*
X379753420Y-266197018D01*
X379101357Y-267382851D01*
X378713989Y-268151576D01*
X377005584Y-268151576D01*
X376611481Y-267938883D01*
X375687913Y-267348184D01*
X374775487Y-266631869D01*
X373848381Y-265770520D01*
X373602824Y-265526906D01*
X373297631Y-265227952D01*
X373049994Y-264989896D01*
X372880583Y-264832539D01*
X372810067Y-264775686D01*
X372807671Y-264776257D01*
X372717708Y-264836223D01*
X372525175Y-264980687D01*
X372256561Y-265189398D01*
X371938356Y-265442104D01*
X371619544Y-265703058D01*
X371017320Y-266217895D01*
X370374181Y-266790593D01*
X369725080Y-267388720D01*
X369104970Y-267979845D01*
X368548804Y-268531538D01*
X368091534Y-269011367D01*
X367944045Y-269173547D01*
X367581526Y-269579001D01*
X367211531Y-270001030D01*
X366851261Y-270419194D01*
X366517920Y-270813052D01*
X366228710Y-271162166D01*
X366000833Y-271446096D01*
X365851492Y-271644401D01*
X365797888Y-271736643D01*
X364516536Y-271736643D01*
X364428381Y-271666406D01*
X364319713Y-271576279D01*
X363992135Y-271279913D01*
X363592792Y-270893891D01*
X363148429Y-270446271D01*
X362685790Y-269965111D01*
X362231621Y-269478468D01*
X361812664Y-269014400D01*
X361455666Y-268600966D01*
X361187370Y-268266224D01*
X360961611Y-267957251D01*
X360625045Y-267472960D01*
X360300539Y-266982684D01*
X360034825Y-266555771D01*
X359536138Y-265715115D01*
X358016010Y-266587728D01*
X356455892Y-267508790D01*
X353484543Y-269410773D01*
X350614731Y-271447432D01*
X347850225Y-273615586D01*
X345194793Y-275912056D01*
X342652205Y-278333664D01*
X340226228Y-280877229D01*
X337920633Y-283539574D01*
X337868921Y-283602404D01*
X337532169Y-284017143D01*
X337168094Y-284473651D01*
X336791482Y-284952559D01*
X336417116Y-285434500D01*
X336059782Y-285900106D01*
X335734264Y-286330009D01*
X335455347Y-286704842D01*
X335237816Y-287005236D01*
X335096455Y-287211825D01*
X335046049Y-287305239D01*
X333731688Y-287305239D01*
X333730292Y-287303985D01*
X333420930Y-287040254D01*
X333075697Y-286757715D01*
X331280383Y-285224472D01*
X329467932Y-283464817D01*
X327777084Y-281593730D01*
X326212710Y-279619349D01*
X324779681Y-277549816D01*
X323482871Y-275393272D01*
X322327148Y-273157858D01*
X321317386Y-270851714D01*
X320458456Y-268482982D01*
X319755228Y-266059803D01*
X319212575Y-263590318D01*
X318896964Y-261597075D01*
X318647465Y-259073620D01*
X318562529Y-256550620D01*
X318570524Y-256291927D01*
X319371786Y-256291927D01*
X319373688Y-257133782D01*
X319382404Y-257952826D01*
X319397934Y-258719783D01*
X319420278Y-259405374D01*
X319449436Y-259980324D01*
X319485407Y-260415353D01*
X319508836Y-260615157D01*
X319575126Y-261122704D01*
X319658718Y-261711113D01*
X319751258Y-262322570D01*
X319844387Y-262899255D01*
X320303371Y-265190598D01*
X320951084Y-267601264D01*
X321755988Y-269958474D01*
X322713978Y-272255202D01*
X323820953Y-274484421D01*
X325072808Y-276639102D01*
X326465439Y-278712219D01*
X327994744Y-280696744D01*
X329656619Y-282585649D01*
X331446960Y-284371907D01*
X333361663Y-286048490D01*
X333447718Y-286118824D01*
X333772889Y-286380719D01*
X334047888Y-286596284D01*
X334245945Y-286744810D01*
X334340292Y-286805588D01*
X334382847Y-286781677D01*
X334517515Y-286646304D01*
X334720921Y-286411293D01*
X334974202Y-286098726D01*
X335258494Y-285730686D01*
X336740488Y-283830372D01*
X339015244Y-281134255D01*
X341397825Y-278565184D01*
X343896494Y-276114790D01*
X346519514Y-273774709D01*
X349275146Y-271536571D01*
X349301710Y-271515991D01*
X350502655Y-270612460D01*
X351803524Y-269681138D01*
X353167366Y-268746337D01*
X354557230Y-267832367D01*
X355936164Y-266963540D01*
X357267218Y-266164165D01*
X358513440Y-265458553D01*
X358648176Y-265383595D01*
X358668143Y-265371771D01*
X360186047Y-265371771D01*
X360416936Y-265772229D01*
X360597832Y-266077340D01*
X361106389Y-266870566D01*
X361669965Y-267674528D01*
X362238269Y-268416221D01*
X362354904Y-268557314D01*
X362688535Y-268937582D01*
X363079647Y-269359247D01*
X363500115Y-269794081D01*
X363921812Y-270213859D01*
X364316613Y-270590354D01*
X364656392Y-270895339D01*
X364913024Y-271100588D01*
X365169476Y-271282589D01*
X366057093Y-270209470D01*
X366551460Y-269630920D01*
X367382815Y-268720646D01*
X368302401Y-267775722D01*
X369276587Y-266828567D01*
X370271738Y-265911597D01*
X371254221Y-265057230D01*
X372190402Y-264297885D01*
X372218479Y-264276059D01*
X373528323Y-264276059D01*
X373541714Y-264323945D01*
X373653573Y-264497353D01*
X373860141Y-264746851D01*
X374138676Y-265048351D01*
X374466434Y-265377767D01*
X374820673Y-265711010D01*
X375178650Y-266023992D01*
X375328485Y-266147432D01*
X375782777Y-266501009D01*
X376247036Y-266835643D01*
X376700744Y-267139107D01*
X377123385Y-267399172D01*
X377494440Y-267603610D01*
X377793392Y-267740192D01*
X377999723Y-267796690D01*
X378092916Y-267760876D01*
X378183582Y-267548189D01*
X378349383Y-267215400D01*
X378568342Y-266805271D01*
X378821442Y-266351834D01*
X379089664Y-265889124D01*
X379353992Y-265451175D01*
X379595409Y-265072020D01*
X379606587Y-265055116D01*
X380063575Y-264388525D01*
X380524918Y-263769439D01*
X381031814Y-263144888D01*
X381625463Y-262461900D01*
X382108962Y-261919627D01*
X383266356Y-261919627D01*
X383285685Y-262004410D01*
X383400476Y-262121465D01*
X383630059Y-262306628D01*
X384106519Y-262655489D01*
X384872938Y-263119566D01*
X385625471Y-263463342D01*
X385642071Y-263469558D01*
X385929738Y-263573305D01*
X386153379Y-263646991D01*
X386265811Y-263675020D01*
X386269400Y-263674452D01*
X386334507Y-263588389D01*
X386427756Y-263384439D01*
X386530217Y-263103520D01*
X386644836Y-262776912D01*
X387132477Y-261680330D01*
X387753368Y-260634302D01*
X388487260Y-259666472D01*
X389313904Y-258804483D01*
X390213050Y-258075977D01*
X390325522Y-257995997D01*
X390553074Y-257826778D01*
X390694466Y-257710276D01*
X390722749Y-257668059D01*
X390628141Y-257693227D01*
X390404414Y-257765326D01*
X390088277Y-257872756D01*
X389714588Y-258003905D01*
X389656439Y-258024786D01*
X388886692Y-258329110D01*
X388055932Y-258701748D01*
X387220512Y-259114932D01*
X386436783Y-259540898D01*
X385761099Y-259951878D01*
X385519364Y-260113601D01*
X385091907Y-260413166D01*
X384649673Y-260736824D01*
X384223745Y-261060754D01*
X383845207Y-261361137D01*
X383545142Y-261614155D01*
X383354633Y-261795986D01*
X383323159Y-261831278D01*
X383266356Y-261919627D01*
X382108962Y-261919627D01*
X382119592Y-261907705D01*
X381657404Y-261246196D01*
X381561250Y-261107043D01*
X381345821Y-260784671D01*
X381166596Y-260502593D01*
X381054906Y-260309520D01*
X381033675Y-260269214D01*
X380927946Y-260103020D01*
X380853065Y-260036967D01*
X380846898Y-260037775D01*
X380718324Y-260085626D01*
X380467987Y-260198001D01*
X380121362Y-260362173D01*
X379703922Y-260565416D01*
X379241141Y-260795004D01*
X378758492Y-261038208D01*
X378281449Y-261282304D01*
X377835486Y-261514564D01*
X377446075Y-261722262D01*
X377138691Y-261892670D01*
X376783094Y-262100683D01*
X376328846Y-262376126D01*
X375847689Y-262676184D01*
X375361077Y-262986693D01*
X374890464Y-263293489D01*
X374457307Y-263582410D01*
X374083059Y-263839290D01*
X373789176Y-264049968D01*
X373597112Y-264200279D01*
X373528323Y-264276059D01*
X372218479Y-264276059D01*
X372423846Y-264116417D01*
X371968510Y-263393568D01*
X371915039Y-263306912D01*
X371717919Y-262964104D01*
X371507194Y-262568939D01*
X371298877Y-262154818D01*
X371108980Y-261755142D01*
X370953515Y-261403311D01*
X370848494Y-261132725D01*
X370809928Y-260976787D01*
X370798172Y-260928752D01*
X370738280Y-260897314D01*
X370611217Y-260905214D01*
X370398842Y-260957101D01*
X370083017Y-261057624D01*
X369645602Y-261211434D01*
X369068457Y-261423180D01*
X367967939Y-261839238D01*
X366385589Y-262470041D01*
X364868405Y-263118597D01*
X363354361Y-263811744D01*
X361781433Y-264576322D01*
X360186047Y-265371771D01*
X358668143Y-265371771D01*
X358916399Y-265224761D01*
X359102281Y-265100827D01*
X359171801Y-265033744D01*
X359170864Y-265026195D01*
X359127927Y-264901638D01*
X359033766Y-264673634D01*
X358906022Y-264385231D01*
X358454013Y-263300405D01*
X357932968Y-261694593D01*
X357563073Y-260028244D01*
X357342487Y-258292463D01*
X357294319Y-257097406D01*
X357993447Y-257097406D01*
X358127893Y-258841411D01*
X358424589Y-260564463D01*
X358884085Y-262253757D01*
X358975533Y-262527576D01*
X359140260Y-262991232D01*
X359314302Y-263452021D01*
X359484905Y-263878435D01*
X359639317Y-264238967D01*
X359764783Y-264502113D01*
X359848549Y-264636364D01*
X359889971Y-264642100D01*
X360057971Y-264593647D01*
X360316363Y-264482872D01*
X360629069Y-264324206D01*
X360659398Y-264307796D01*
X361342039Y-263953892D01*
X362154009Y-263557354D01*
X363065840Y-263131071D01*
X364048058Y-262687931D01*
X365071195Y-262240824D01*
X366105779Y-261802638D01*
X367122339Y-261386261D01*
X368091406Y-261004583D01*
X368972289Y-260674693D01*
X371489527Y-260674693D01*
X371495408Y-260727674D01*
X371564323Y-260956803D01*
X371698040Y-261286849D01*
X371880610Y-261685240D01*
X372096080Y-262119401D01*
X372328501Y-262556760D01*
X372561921Y-262964743D01*
X372780389Y-263310776D01*
X373020697Y-263666199D01*
X374187721Y-262878850D01*
X375003592Y-262339682D01*
X375929954Y-261760759D01*
X376854170Y-261223788D01*
X377830793Y-260697270D01*
X378914376Y-260149706D01*
X379072164Y-260071967D01*
X379536184Y-259842378D01*
X379673400Y-259773997D01*
X381598557Y-259773997D01*
X381598560Y-259774244D01*
X381642849Y-259867372D01*
X381758782Y-260061441D01*
X381923270Y-260321511D01*
X382113222Y-260612644D01*
X382305549Y-260899900D01*
X382477160Y-261148341D01*
X382604966Y-261323027D01*
X382665876Y-261389020D01*
X382714970Y-261357874D01*
X382870735Y-261235911D01*
X383104256Y-261043103D01*
X383387216Y-260802477D01*
X383399942Y-260791533D01*
X384187222Y-260163450D01*
X385080118Y-259532754D01*
X386025622Y-258933098D01*
X386970721Y-258398133D01*
X387862407Y-257961512D01*
X387997208Y-257900457D01*
X388240429Y-257782108D01*
X388381959Y-257700589D01*
X388394544Y-257670792D01*
X388318443Y-257680790D01*
X388084506Y-257729391D01*
X387735359Y-257811482D01*
X387300335Y-257919403D01*
X386808764Y-258045493D01*
X386289979Y-258182090D01*
X385773311Y-258321534D01*
X385288092Y-258456164D01*
X384863653Y-258578318D01*
X384529326Y-258680335D01*
X384117992Y-258814610D01*
X383599735Y-258990443D01*
X383092545Y-259168915D01*
X382621450Y-259340688D01*
X382211475Y-259496422D01*
X381887650Y-259626778D01*
X381675002Y-259722416D01*
X381598557Y-259773997D01*
X379673400Y-259773997D01*
X379939130Y-259641571D01*
X380258152Y-259481026D01*
X380470399Y-259372219D01*
X380553020Y-259326628D01*
X380551006Y-259247452D01*
X380511139Y-259047727D01*
X380441166Y-258775116D01*
X380365407Y-258526321D01*
X380302129Y-258357537D01*
X381091259Y-258357537D01*
X381123360Y-258500636D01*
X381186419Y-258688219D01*
X381199265Y-258725788D01*
X381267048Y-258913054D01*
X381306490Y-259003968D01*
X381340685Y-258999114D01*
X381508148Y-258948566D01*
X381790326Y-258853377D01*
X382159853Y-258722881D01*
X382589364Y-258566413D01*
X382680704Y-258532892D01*
X383242162Y-258333974D01*
X383845652Y-258130019D01*
X384424392Y-257943191D01*
X384911601Y-257795655D01*
X384975572Y-257777249D01*
X385373543Y-257661969D01*
X385709101Y-257563494D01*
X385948608Y-257491767D01*
X386058423Y-257456728D01*
X386074845Y-257448553D01*
X386040753Y-257429295D01*
X385881435Y-257426917D01*
X385631334Y-257439844D01*
X385324891Y-257466500D01*
X384996551Y-257505308D01*
X384996070Y-257505374D01*
X384735905Y-257542501D01*
X384345474Y-257600659D01*
X383862180Y-257674159D01*
X383323426Y-257757314D01*
X382766617Y-257844435D01*
X382603013Y-257870172D01*
X382054028Y-257957467D01*
X381648953Y-258028931D01*
X381368964Y-258094618D01*
X381195236Y-258164580D01*
X381108943Y-258248869D01*
X381091259Y-258357537D01*
X380302129Y-258357537D01*
X380293113Y-258333488D01*
X380246670Y-258261619D01*
X380243859Y-258262040D01*
X380132489Y-258285391D01*
X379884537Y-258339863D01*
X379526168Y-258419634D01*
X379083547Y-258518884D01*
X378582838Y-258631791D01*
X377598637Y-258859223D01*
X376102975Y-259227201D01*
X374704502Y-259601596D01*
X373358423Y-259994090D01*
X373213053Y-260038249D01*
X372649300Y-260209914D01*
X372224200Y-260341009D01*
X371918185Y-260438662D01*
X371711688Y-260509998D01*
X371585141Y-260562143D01*
X371518977Y-260602223D01*
X371493628Y-260637365D01*
X371489527Y-260674693D01*
X368972289Y-260674693D01*
X368983507Y-260670492D01*
X369332425Y-260542779D01*
X369745168Y-260388339D01*
X370081311Y-260258665D01*
X370313066Y-260164526D01*
X370412649Y-260116689D01*
X370424608Y-260050424D01*
X370408116Y-259846342D01*
X370359988Y-259542994D01*
X370285224Y-259177242D01*
X370225554Y-258898559D01*
X370173656Y-258607379D01*
X370136708Y-258312722D01*
X370112366Y-257981422D01*
X370098288Y-257580315D01*
X370092131Y-257076236D01*
X370091550Y-256436020D01*
X370091981Y-256326285D01*
X370740582Y-256326285D01*
X370749714Y-256884209D01*
X370798071Y-257513917D01*
X370869341Y-258138129D01*
X370953383Y-258695104D01*
X371045266Y-259160287D01*
X371140573Y-259514364D01*
X371234885Y-259738020D01*
X371323782Y-259811941D01*
X371415999Y-259791296D01*
X371650208Y-259727502D01*
X371993314Y-259628847D01*
X372416562Y-259503620D01*
X372891199Y-259360109D01*
X373048429Y-259312538D01*
X373743196Y-259110376D01*
X374532440Y-258891184D01*
X375379424Y-258664372D01*
X376247412Y-258439349D01*
X377099667Y-258225528D01*
X377899452Y-258032318D01*
X378610032Y-257869130D01*
X379194670Y-257745375D01*
X380146302Y-257556884D01*
X380145314Y-256523328D01*
X380145206Y-256410205D01*
X380846714Y-256410205D01*
X380854223Y-256726332D01*
X380872142Y-257024441D01*
X380898368Y-257254108D01*
X380930796Y-257364913D01*
X380992443Y-257364134D01*
X381153324Y-257345262D01*
X386222693Y-257345262D01*
X386254870Y-257382857D01*
X386303994Y-257396384D01*
X386417690Y-257376173D01*
X386416375Y-257347271D01*
X386306194Y-257331704D01*
X386222693Y-257345262D01*
X381153324Y-257345262D01*
X381197918Y-257340031D01*
X381520427Y-257294161D01*
X381932230Y-257230509D01*
X382405581Y-257153061D01*
X382745794Y-257097855D01*
X383406575Y-256997564D01*
X384129640Y-256894579D01*
X384848418Y-256798271D01*
X385496339Y-256718009D01*
X387142950Y-256525217D01*
X385323868Y-256301297D01*
X385312708Y-256299922D01*
X384684407Y-256219987D01*
X384030761Y-256132486D01*
X383400296Y-256044209D01*
X382841537Y-255961949D01*
X382403010Y-255892498D01*
X382344610Y-255882678D01*
X381919927Y-255810057D01*
X381547967Y-255744463D01*
X381267032Y-255692759D01*
X381244364Y-255688131D01*
X386299115Y-255688131D01*
X386311566Y-255698264D01*
X386412381Y-255688131D01*
X386425671Y-255662665D01*
X386355748Y-255631686D01*
X386310776Y-255637797D01*
X386299115Y-255688131D01*
X381244364Y-255688131D01*
X381115422Y-255661806D01*
X381001905Y-255651425D01*
X380924060Y-255725000D01*
X380870832Y-255928271D01*
X380851720Y-256126479D01*
X380846714Y-256410205D01*
X380145206Y-256410205D01*
X380144326Y-255489772D01*
X379023783Y-255256106D01*
X378657549Y-255178254D01*
X377313296Y-254870865D01*
X376960534Y-254782697D01*
X381070465Y-254782697D01*
X381077113Y-254883298D01*
X381118514Y-254901461D01*
X381308279Y-254947798D01*
X381625091Y-255009585D01*
X382042648Y-255082906D01*
X382534650Y-255163845D01*
X383074797Y-255248484D01*
X383636787Y-255332907D01*
X384194321Y-255413198D01*
X384721097Y-255485440D01*
X385190814Y-255545717D01*
X385577173Y-255590111D01*
X385853871Y-255614707D01*
X385994610Y-255615588D01*
X385985949Y-255590137D01*
X385844587Y-255529776D01*
X385589251Y-255445214D01*
X385258330Y-255349464D01*
X388337911Y-255349464D01*
X388350362Y-255359597D01*
X388451177Y-255349464D01*
X388464467Y-255323998D01*
X388394544Y-255293020D01*
X388349572Y-255299130D01*
X388337911Y-255349464D01*
X385258330Y-255349464D01*
X385246776Y-255346121D01*
X384989573Y-255271994D01*
X384523432Y-255127537D01*
X383980314Y-254950753D01*
X383408339Y-254757397D01*
X382855627Y-254563226D01*
X382842988Y-254558686D01*
X382370175Y-254389679D01*
X381954650Y-254242672D01*
X381622018Y-254126601D01*
X381397887Y-254050405D01*
X381307863Y-254023020D01*
X381290885Y-254033721D01*
X381230831Y-254153267D01*
X381163375Y-254357840D01*
X381104569Y-254587597D01*
X381070465Y-254782697D01*
X376960534Y-254782697D01*
X375889776Y-254515076D01*
X374446168Y-254126094D01*
X373041651Y-253719122D01*
X372793987Y-253644670D01*
X372293289Y-253494731D01*
X371860606Y-253365934D01*
X371519584Y-253265275D01*
X371293865Y-253199749D01*
X371207096Y-253176353D01*
X371166825Y-253249781D01*
X371110065Y-253460469D01*
X371043676Y-253776713D01*
X370973379Y-254166704D01*
X370904894Y-254598630D01*
X370843940Y-255040682D01*
X370796240Y-255461049D01*
X370770591Y-255747188D01*
X370740582Y-256326285D01*
X370091981Y-256326285D01*
X370093334Y-255981922D01*
X370100005Y-255432599D01*
X370113551Y-254998635D01*
X370136280Y-254647871D01*
X370170499Y-254348150D01*
X370218516Y-254067314D01*
X370282639Y-253773205D01*
X370329961Y-253559320D01*
X370388152Y-253244745D01*
X370415479Y-253016867D01*
X370406368Y-252914373D01*
X370329960Y-252874925D01*
X370120479Y-252788531D01*
X369815606Y-252672335D01*
X369450731Y-252540190D01*
X369117125Y-252418815D01*
X371405292Y-252418815D01*
X371638547Y-252507494D01*
X371733877Y-252542844D01*
X372187840Y-252696958D01*
X372773380Y-252879446D01*
X373463588Y-253083032D01*
X374231551Y-253300442D01*
X375050356Y-253524403D01*
X375893093Y-253747640D01*
X376732849Y-253962878D01*
X377542712Y-254162844D01*
X378295770Y-254340263D01*
X378965112Y-254487861D01*
X379004909Y-254496249D01*
X379415323Y-254583547D01*
X379769379Y-254660214D01*
X380030431Y-254718234D01*
X380161830Y-254749594D01*
X380172496Y-254752161D01*
X380258885Y-254723754D01*
X380334196Y-254582019D01*
X380413786Y-254299521D01*
X380465071Y-254080743D01*
X380513823Y-253859451D01*
X380533791Y-253749492D01*
X380516845Y-253732077D01*
X380379049Y-253646499D01*
X380120620Y-253503681D01*
X379763175Y-253315127D01*
X379591542Y-253227194D01*
X381598557Y-253227194D01*
X381602065Y-253237294D01*
X381710978Y-253314012D01*
X381957183Y-253431844D01*
X382320160Y-253582859D01*
X382779385Y-253759122D01*
X383314336Y-253952703D01*
X383904490Y-254155666D01*
X384529326Y-254360081D01*
X384884180Y-254468649D01*
X385333613Y-254598413D01*
X385830426Y-254736101D01*
X386344521Y-254873907D01*
X386845801Y-255004026D01*
X387304168Y-255118652D01*
X387689522Y-255209979D01*
X387971767Y-255270202D01*
X388120804Y-255291514D01*
X388130949Y-255287827D01*
X388071834Y-255231930D01*
X387890054Y-255119232D01*
X387608456Y-254963221D01*
X387249884Y-254777384D01*
X386745439Y-254510408D01*
X386105491Y-254141994D01*
X385450689Y-253737347D01*
X384808732Y-253315331D01*
X384207321Y-252894810D01*
X383674154Y-252494647D01*
X383236931Y-252133709D01*
X382923351Y-251830859D01*
X382787506Y-251709978D01*
X382662744Y-251652353D01*
X382618905Y-251680217D01*
X382493807Y-251820743D01*
X382321374Y-252047948D01*
X382125874Y-252325917D01*
X381931574Y-252618739D01*
X381762743Y-252890502D01*
X381643648Y-253105291D01*
X381598557Y-253227194D01*
X379591542Y-253227194D01*
X379328326Y-253092340D01*
X378837688Y-252846822D01*
X377976730Y-252412304D01*
X376937623Y-251858566D01*
X375973729Y-251305969D01*
X375035566Y-250725875D01*
X374073652Y-250089645D01*
X373878654Y-249957325D01*
X373531246Y-249723574D01*
X373248772Y-249536140D01*
X373056258Y-249411555D01*
X372978733Y-249366353D01*
X372971443Y-249367797D01*
X372881788Y-249459151D01*
X372738306Y-249672897D01*
X372555881Y-249981293D01*
X372349398Y-250356599D01*
X372133742Y-250771072D01*
X371923799Y-251196971D01*
X371734453Y-251606556D01*
X371580589Y-251972084D01*
X371405292Y-252418815D01*
X369117125Y-252418815D01*
X368470232Y-252183458D01*
X366250862Y-251307516D01*
X363974838Y-250318453D01*
X361675078Y-249230283D01*
X361359318Y-249075163D01*
X360881645Y-248842088D01*
X360468861Y-248642624D01*
X360142775Y-248487216D01*
X359925198Y-248386310D01*
X359837940Y-248350353D01*
X359803795Y-248393887D01*
X359715075Y-248565429D01*
X359590640Y-248836917D01*
X359445923Y-249175853D01*
X359067158Y-250167976D01*
X358558106Y-251867735D01*
X358209103Y-253597763D01*
X358020700Y-255345256D01*
X357993447Y-257097406D01*
X357294319Y-257097406D01*
X357269367Y-256478353D01*
X357304623Y-255209143D01*
X357480012Y-253450401D01*
X357804147Y-251763807D01*
X358278870Y-250140464D01*
X358906022Y-248571476D01*
X358931297Y-248515923D01*
X359053402Y-248244682D01*
X359139324Y-248049042D01*
X359171801Y-247968190D01*
X359169764Y-247965743D01*
X359078022Y-247907367D01*
X358870001Y-247785672D01*
X358592133Y-247627326D01*
X360191199Y-247627326D01*
X360209737Y-247646833D01*
X360352762Y-247734328D01*
X360620535Y-247878244D01*
X360993231Y-248069049D01*
X361451026Y-248297208D01*
X361974093Y-248553189D01*
X362542608Y-248827460D01*
X363136746Y-249110486D01*
X363736680Y-249392736D01*
X364322587Y-249664676D01*
X364874641Y-249916773D01*
X365373017Y-250139494D01*
X365797888Y-250323307D01*
X366011866Y-250413009D01*
X366550993Y-250634316D01*
X367140301Y-250870890D01*
X367753865Y-251112804D01*
X368365755Y-251350132D01*
X368950045Y-251572950D01*
X369480806Y-251771331D01*
X369932110Y-251935348D01*
X370278031Y-252055077D01*
X370492639Y-252120591D01*
X370536643Y-252130731D01*
X370697922Y-252129469D01*
X370778533Y-252021167D01*
X370823985Y-251893769D01*
X371010243Y-251415378D01*
X371225831Y-250934405D01*
X371487745Y-250416796D01*
X371812978Y-249828493D01*
X372218526Y-249135438D01*
X372381500Y-248862189D01*
X372169126Y-248714002D01*
X372074476Y-248643546D01*
X373512222Y-248643546D01*
X373513008Y-248722489D01*
X373575779Y-248816473D01*
X373720455Y-248945108D01*
X373966953Y-249128005D01*
X374335194Y-249384776D01*
X375581773Y-250203573D01*
X377340919Y-251242855D01*
X379201893Y-252219610D01*
X379394052Y-252314222D01*
X379858037Y-252539999D01*
X380259480Y-252731579D01*
X380576052Y-252878529D01*
X380785423Y-252970416D01*
X380865262Y-252996807D01*
X380868134Y-252992650D01*
X380929339Y-252889662D01*
X381047526Y-252683849D01*
X381200189Y-252414353D01*
X381381201Y-252109577D01*
X381604594Y-251763222D01*
X381800926Y-251486813D01*
X382091654Y-251109607D01*
X382049259Y-251061112D01*
X383212604Y-251061112D01*
X383249182Y-251124924D01*
X383402779Y-251282884D01*
X383655172Y-251506643D01*
X383983433Y-251777846D01*
X384364637Y-252078134D01*
X384775857Y-252389153D01*
X385194167Y-252692545D01*
X385596642Y-252969955D01*
X385754300Y-253073319D01*
X386502298Y-253525124D01*
X387338233Y-253978560D01*
X388207307Y-254406341D01*
X389054721Y-254781179D01*
X389825675Y-255075787D01*
X390125416Y-255177775D01*
X390436730Y-255281273D01*
X390657268Y-255351692D01*
X390752208Y-255377686D01*
X390750601Y-255370209D01*
X390661021Y-255293170D01*
X390472231Y-255150464D01*
X390213050Y-254964190D01*
X389874521Y-254712103D01*
X389007367Y-253935469D01*
X388217237Y-253035814D01*
X387524956Y-252041761D01*
X386951352Y-250981932D01*
X386517250Y-249884949D01*
X386500234Y-249833318D01*
X386395315Y-249553949D01*
X386299909Y-249357800D01*
X386232840Y-249284601D01*
X386059674Y-249324913D01*
X385779006Y-249427438D01*
X385434379Y-249573150D01*
X385068557Y-249743046D01*
X384724302Y-249918121D01*
X384444377Y-250079373D01*
X384425318Y-250091485D01*
X384063193Y-250333054D01*
X383732939Y-250573053D01*
X383462477Y-250789231D01*
X383279726Y-250959335D01*
X383212604Y-251061112D01*
X382049259Y-251061112D01*
X381792274Y-250767147D01*
X381720242Y-250684663D01*
X381493749Y-250424792D01*
X381219412Y-250109547D01*
X380941415Y-249789686D01*
X380540074Y-249294084D01*
X380093805Y-248685925D01*
X379634371Y-248012427D01*
X379191001Y-247317892D01*
X378792926Y-246646622D01*
X378469375Y-246042920D01*
X378466722Y-246037597D01*
X378287108Y-245686250D01*
X378131698Y-245398902D01*
X378017038Y-245205056D01*
X377959676Y-245134211D01*
X377858160Y-245167927D01*
X377635834Y-245277326D01*
X377332077Y-245444101D01*
X376979439Y-245649252D01*
X376610469Y-245873782D01*
X376257718Y-246098693D01*
X375953737Y-246304986D01*
X375951318Y-246306704D01*
X375660084Y-246529935D01*
X375312253Y-246821687D01*
X374934549Y-247156675D01*
X374553695Y-247509615D01*
X374196414Y-247855222D01*
X373889429Y-248168212D01*
X373659463Y-248423299D01*
X373533238Y-248595200D01*
X373512222Y-248643546D01*
X372074476Y-248643546D01*
X371764689Y-248412945D01*
X371215142Y-247964596D01*
X370595421Y-247426490D01*
X369927121Y-246819373D01*
X369231838Y-246163995D01*
X368531167Y-245481103D01*
X367846704Y-244791445D01*
X367200044Y-244115768D01*
X366612784Y-243474822D01*
X366106518Y-242889353D01*
X365873276Y-242611119D01*
X365590858Y-242279828D01*
X365358163Y-242013336D01*
X365194521Y-241833694D01*
X365119260Y-241762956D01*
X365100971Y-241760635D01*
X364958181Y-241824468D01*
X364726734Y-241996039D01*
X364423929Y-242257898D01*
X364067060Y-242592593D01*
X363673425Y-242982673D01*
X363260319Y-243410689D01*
X362845039Y-243859190D01*
X362444881Y-244310724D01*
X362077142Y-244747841D01*
X361759118Y-245153091D01*
X361568614Y-245414453D01*
X361308056Y-245789043D01*
X361039627Y-246190117D01*
X360780806Y-246590092D01*
X360549073Y-246961384D01*
X360361907Y-247276410D01*
X360236790Y-247507585D01*
X360191199Y-247627326D01*
X358592133Y-247627326D01*
X358573449Y-247616679D01*
X358216116Y-247416408D01*
X356174158Y-246229998D01*
X353617549Y-244604817D01*
X351089396Y-242844854D01*
X348614316Y-240968925D01*
X346216929Y-238995847D01*
X343921854Y-236944439D01*
X341753710Y-234833517D01*
X340488088Y-233514325D01*
X338940892Y-231815987D01*
X337464965Y-230099773D01*
X336087124Y-228397051D01*
X334834181Y-226739186D01*
X334766727Y-226648034D01*
X334572315Y-226403374D01*
X334416756Y-226233353D01*
X334328829Y-226170365D01*
X334276946Y-226194264D01*
X334105338Y-226313837D01*
X333840011Y-226519138D01*
X333500818Y-226793592D01*
X333107607Y-227120623D01*
X332680229Y-227483657D01*
X332238535Y-227866118D01*
X331802373Y-228251431D01*
X331391594Y-228623020D01*
X331028202Y-228965117D01*
X330374816Y-229613839D01*
X329683405Y-230335747D01*
X328991441Y-231090500D01*
X328336394Y-231837760D01*
X327755736Y-232537185D01*
X326818490Y-233752734D01*
X325360981Y-235860483D01*
X324055753Y-238042491D01*
X322903934Y-240296033D01*
X321906650Y-242618383D01*
X321065029Y-245006816D01*
X320380197Y-247458605D01*
X319853281Y-249971026D01*
X319485407Y-252541353D01*
X319464487Y-252765208D01*
X319432319Y-253281954D01*
X319406965Y-253922276D01*
X319388425Y-254656897D01*
X319376698Y-255456540D01*
X319371786Y-256291927D01*
X318570524Y-256291927D01*
X318640233Y-254036287D01*
X318878653Y-251538836D01*
X319275865Y-249066482D01*
X319829946Y-246627438D01*
X320538972Y-244229919D01*
X321401018Y-241882138D01*
X322414162Y-239592310D01*
X323576479Y-237368650D01*
X324886046Y-235219370D01*
X326340940Y-233152686D01*
X326725129Y-232655016D01*
X327609788Y-231576916D01*
X328573319Y-230482179D01*
X329584040Y-229404057D01*
X330610267Y-228375803D01*
X331620316Y-227430671D01*
X332582504Y-226601914D01*
X332786156Y-226435159D01*
X333164184Y-226125472D01*
X333503322Y-225847463D01*
X333746846Y-225647655D01*
X335011035Y-225647655D01*
X335014118Y-225670238D01*
X335091987Y-225809312D01*
X335258235Y-226055616D01*
X335499871Y-226392122D01*
X335803908Y-226801802D01*
X336157355Y-227267625D01*
X336547223Y-227772563D01*
X336960522Y-228299588D01*
X337384264Y-228831671D01*
X337805459Y-229351783D01*
X338211117Y-229842894D01*
X339108976Y-230897227D01*
X341484908Y-233506682D01*
X343975041Y-235990825D01*
X346578747Y-238349133D01*
X349295397Y-240581078D01*
X352124364Y-242686136D01*
X355065021Y-244663780D01*
X358116739Y-246513485D01*
X358467172Y-246713051D01*
X358850313Y-246926632D01*
X359163108Y-247095822D01*
X359380127Y-247206910D01*
X359475937Y-247246188D01*
X359537765Y-247187396D01*
X359667103Y-247008172D01*
X359841459Y-246737592D01*
X360040980Y-246405208D01*
X360049285Y-246390945D01*
X360684149Y-245400073D01*
X361441199Y-244383309D01*
X362286820Y-243380554D01*
X363187393Y-242431706D01*
X364109301Y-241576663D01*
X364524694Y-241218316D01*
X365770743Y-241218316D01*
X365823010Y-241332640D01*
X365974275Y-241549535D01*
X366209472Y-241851539D01*
X366513534Y-242221186D01*
X366871395Y-242641013D01*
X367267988Y-243093556D01*
X367688246Y-243561352D01*
X368117103Y-244026937D01*
X368539492Y-244472846D01*
X368940347Y-244881617D01*
X369106034Y-245045816D01*
X369631108Y-245553125D01*
X370185341Y-246071786D01*
X370743976Y-246579824D01*
X371282262Y-247055263D01*
X371775445Y-247476127D01*
X372198771Y-247820441D01*
X372527486Y-248066227D01*
X372843372Y-248285019D01*
X373073326Y-248000186D01*
X373554199Y-247453414D01*
X374283318Y-246745455D01*
X375104176Y-246057086D01*
X375975774Y-245422178D01*
X376857108Y-244874598D01*
X376999188Y-244794262D01*
X378765621Y-244794262D01*
X378775857Y-244905193D01*
X378860297Y-245134734D01*
X379006487Y-245457870D01*
X379201972Y-245849584D01*
X379434299Y-246284860D01*
X379691013Y-246738682D01*
X379959661Y-247186034D01*
X380128908Y-247453614D01*
X381042871Y-248745763D01*
X382035097Y-249911737D01*
X382643102Y-250560612D01*
X382906615Y-250316916D01*
X383200076Y-250062832D01*
X383950293Y-249525510D01*
X384679912Y-249115720D01*
X387109387Y-249115720D01*
X387114683Y-249293763D01*
X387185611Y-249577768D01*
X387311548Y-249942176D01*
X387481870Y-250361426D01*
X387685952Y-250809958D01*
X387913171Y-251262214D01*
X388152902Y-251692633D01*
X388394522Y-252075655D01*
X388919633Y-252771406D01*
X389762255Y-253654035D01*
X390713386Y-254415844D01*
X391759831Y-255049181D01*
X392888390Y-255546396D01*
X394085869Y-255899837D01*
X395339070Y-256101853D01*
X395954834Y-256161542D01*
X395903622Y-255748448D01*
X395877076Y-255552951D01*
X395632187Y-254434553D01*
X395244510Y-253390235D01*
X394724210Y-252430470D01*
X394081452Y-251565730D01*
X393326400Y-250806489D01*
X392469220Y-250163219D01*
X391520076Y-249646393D01*
X390489134Y-249266483D01*
X389386557Y-249033963D01*
X389357744Y-249030093D01*
X388861317Y-248982518D01*
X388344812Y-248963395D01*
X387855239Y-248971983D01*
X387439610Y-249007540D01*
X387144933Y-249069325D01*
X387109387Y-249115720D01*
X384679912Y-249115720D01*
X384787123Y-249055505D01*
X385653777Y-248686519D01*
X385725815Y-248660739D01*
X385977817Y-248563041D01*
X386106958Y-248484836D01*
X386144988Y-248398378D01*
X386123659Y-248275921D01*
X386123437Y-248275095D01*
X386088587Y-248037428D01*
X386069121Y-247670821D01*
X386063955Y-247214667D01*
X386067884Y-246967471D01*
X386822972Y-246967471D01*
X386823681Y-247201667D01*
X386828835Y-247622227D01*
X386838164Y-247964585D01*
X386850692Y-248198365D01*
X386865447Y-248293191D01*
X386889289Y-248300371D01*
X387047535Y-248306401D01*
X387316254Y-248298182D01*
X387654373Y-248276579D01*
X387694466Y-248273531D01*
X388915148Y-248260485D01*
X390077871Y-248406589D01*
X391183394Y-248712114D01*
X392232480Y-249177329D01*
X393225889Y-249802504D01*
X394164382Y-250587910D01*
X394794755Y-251186686D01*
X394469170Y-250594020D01*
X394257488Y-250222581D01*
X393443803Y-249001988D01*
X392514112Y-247892567D01*
X391478742Y-246903425D01*
X390348017Y-246043669D01*
X389132263Y-245322406D01*
X387841804Y-244748741D01*
X387839245Y-244747781D01*
X387544579Y-244643258D01*
X387304387Y-244568758D01*
X387170451Y-244540353D01*
X387163128Y-244540827D01*
X387070270Y-244634227D01*
X386988333Y-244876806D01*
X386919976Y-245249992D01*
X386867857Y-245735213D01*
X386834636Y-246313897D01*
X386822972Y-246967471D01*
X386067884Y-246967471D01*
X386072003Y-246708357D01*
X386092182Y-246191284D01*
X386123408Y-245702840D01*
X386164596Y-245282417D01*
X386214663Y-244969408D01*
X386227922Y-244908173D01*
X386285353Y-244613633D01*
X386317083Y-244397784D01*
X386316519Y-244303699D01*
X386232191Y-244270902D01*
X386025210Y-244213093D01*
X385744446Y-244144918D01*
X385726811Y-244141076D01*
X385460320Y-244102442D01*
X385064790Y-244066380D01*
X384577458Y-244034254D01*
X384035562Y-244007432D01*
X383476340Y-243987279D01*
X382937028Y-243975159D01*
X382454865Y-243972440D01*
X382067087Y-243980486D01*
X381810932Y-244000663D01*
X381537723Y-244045335D01*
X381051166Y-244138680D01*
X380542304Y-244250129D01*
X380042688Y-244371480D01*
X379583870Y-244494529D01*
X379197402Y-244611074D01*
X378914837Y-244712912D01*
X378767728Y-244791839D01*
X378765621Y-244794262D01*
X376999188Y-244794262D01*
X377117158Y-244727558D01*
X377397889Y-244568233D01*
X377593835Y-244456306D01*
X377673438Y-244409747D01*
X377674251Y-244407744D01*
X377652803Y-244308334D01*
X377587472Y-244083138D01*
X377487599Y-243763115D01*
X377362522Y-243379221D01*
X377353074Y-243350650D01*
X377102870Y-242519771D01*
X376879863Y-241639412D01*
X376691918Y-240750632D01*
X376546901Y-239894491D01*
X376452679Y-239112045D01*
X376417116Y-238444353D01*
X376412654Y-238263994D01*
X376392812Y-237980716D01*
X376363075Y-237788186D01*
X376326931Y-237695327D01*
X376245635Y-237632670D01*
X376081370Y-237607668D01*
X375790823Y-237606575D01*
X375615811Y-237611789D01*
X374839439Y-237675587D01*
X373963859Y-237801511D01*
X373032125Y-237980573D01*
X372087291Y-238203782D01*
X371172408Y-238462150D01*
X370330532Y-238746686D01*
X370257132Y-238774334D01*
X369539333Y-239070666D01*
X368757352Y-239432830D01*
X367967930Y-239832252D01*
X367227812Y-240240353D01*
X366593740Y-240628558D01*
X366333188Y-240801937D01*
X366055802Y-240992929D01*
X365858608Y-241136398D01*
X365772880Y-241210186D01*
X365770743Y-241218316D01*
X364524694Y-241218316D01*
X364671885Y-241091339D01*
X363966114Y-240085346D01*
X362828541Y-238361083D01*
X361600184Y-236225801D01*
X360507816Y-234006426D01*
X359556195Y-231717021D01*
X358750076Y-229371654D01*
X358094217Y-226984388D01*
X357593375Y-224569289D01*
X357252307Y-222140422D01*
X357075769Y-219711853D01*
X357023964Y-218357186D01*
X357728888Y-218357186D01*
X357730046Y-218406507D01*
X357744971Y-218768682D01*
X357772159Y-219251975D01*
X357808666Y-219816157D01*
X357851548Y-220420998D01*
X357897859Y-221026268D01*
X357944654Y-221591737D01*
X357988989Y-222077175D01*
X358027919Y-222442353D01*
X358060367Y-222703576D01*
X358466837Y-225231099D01*
X359034002Y-227705877D01*
X359760540Y-230124351D01*
X360645131Y-232482961D01*
X361686453Y-234778149D01*
X362883186Y-237006355D01*
X364234008Y-239164020D01*
X364427431Y-239450745D01*
X364684079Y-239828906D01*
X364901693Y-240146908D01*
X365061843Y-240377856D01*
X365146098Y-240494860D01*
X365193311Y-240540814D01*
X365266785Y-240557486D01*
X365382756Y-240523045D01*
X365565665Y-240426379D01*
X365839950Y-240256372D01*
X366230051Y-240001910D01*
X366945594Y-239555195D01*
X368461971Y-238751141D01*
X370067129Y-238077057D01*
X371560919Y-237597686D01*
X377078179Y-237597686D01*
X377136606Y-238380853D01*
X377208185Y-239141517D01*
X377318880Y-239998776D01*
X377454110Y-240821869D01*
X377603895Y-241543243D01*
X377629829Y-241648397D01*
X377714537Y-241964412D01*
X377822514Y-242342605D01*
X377943801Y-242750824D01*
X378068436Y-243156918D01*
X378186460Y-243528736D01*
X378287912Y-243834126D01*
X378362832Y-244040938D01*
X378401258Y-244117020D01*
X378429902Y-244109214D01*
X378586988Y-244059203D01*
X378848392Y-243973143D01*
X379177553Y-243862997D01*
X379197736Y-243856220D01*
X379810067Y-243690052D01*
X387362164Y-243690052D01*
X387428597Y-243779534D01*
X387604358Y-243874956D01*
X387917132Y-243994140D01*
X388986269Y-244436535D01*
X390122760Y-245047990D01*
X391221481Y-245779347D01*
X392249819Y-246606562D01*
X393175162Y-247505595D01*
X393964895Y-248452405D01*
X394003076Y-248503823D01*
X394174748Y-248727411D01*
X394295441Y-248872040D01*
X394341032Y-248908462D01*
X394341024Y-248907813D01*
X394300771Y-248791900D01*
X394192968Y-248559239D01*
X394033535Y-248240020D01*
X393838396Y-247864433D01*
X393623473Y-247462668D01*
X393404688Y-247064917D01*
X393197965Y-246701368D01*
X393019225Y-246402212D01*
X392449270Y-245547670D01*
X391558449Y-244395037D01*
X390574801Y-243301520D01*
X389541367Y-242317667D01*
X389466192Y-242251947D01*
X389103598Y-241936544D01*
X388842301Y-241721941D01*
X388658435Y-241600440D01*
X388528135Y-241564347D01*
X388427537Y-241605965D01*
X388332776Y-241717598D01*
X388219987Y-241891551D01*
X388085669Y-242114711D01*
X387900773Y-242451524D01*
X387714551Y-242815745D01*
X387548432Y-243163778D01*
X387423839Y-243452027D01*
X387362200Y-243636898D01*
X387362164Y-243690052D01*
X379810067Y-243690052D01*
X380508315Y-243500569D01*
X381886078Y-243282190D01*
X383296573Y-243203044D01*
X384705345Y-243265092D01*
X386077941Y-243470295D01*
X386607157Y-243579617D01*
X386705501Y-243276819D01*
X386722047Y-243227878D01*
X386874111Y-242855748D01*
X387090443Y-242407683D01*
X387343314Y-241938384D01*
X387604993Y-241502551D01*
X387736727Y-241275389D01*
X387821067Y-241081067D01*
X387827117Y-240982215D01*
X387751459Y-240920702D01*
X387634406Y-240839529D01*
X388955613Y-240839529D01*
X389460864Y-241270141D01*
X390343622Y-242059874D01*
X391621356Y-243364090D01*
X392753121Y-244738755D01*
X393748990Y-246196521D01*
X394619033Y-247750040D01*
X394744266Y-247994741D01*
X394917239Y-248319398D01*
X395048693Y-248548925D01*
X395127547Y-248664346D01*
X395142717Y-248646686D01*
X394731049Y-246965023D01*
X394010301Y-244538755D01*
X393165621Y-242227480D01*
X392197231Y-240031853D01*
X392053958Y-239738307D01*
X391862524Y-239358509D01*
X391702541Y-239055744D01*
X391587571Y-238855439D01*
X391531175Y-238783020D01*
X391529560Y-238783046D01*
X391394515Y-238836928D01*
X391161674Y-238978963D01*
X390860999Y-239186899D01*
X390522454Y-239438484D01*
X390176001Y-239711467D01*
X389851602Y-239983596D01*
X389579222Y-240232619D01*
X388955613Y-240839529D01*
X387634406Y-240839529D01*
X387519640Y-240759942D01*
X387192389Y-240550888D01*
X386804148Y-240314343D01*
X386389362Y-240071114D01*
X385982471Y-239842002D01*
X385617919Y-239647813D01*
X384258872Y-239016376D01*
X382705790Y-238448614D01*
X381092605Y-238019921D01*
X379389862Y-237721183D01*
X379192088Y-237696530D01*
X378694303Y-237647260D01*
X378198705Y-237612765D01*
X377788034Y-237599339D01*
X377078179Y-237597686D01*
X371560919Y-237597686D01*
X371739552Y-237540361D01*
X373457721Y-237148474D01*
X375200121Y-236908814D01*
X375619312Y-236870119D01*
X375968356Y-236827852D01*
X376196686Y-236769662D01*
X376330015Y-236676118D01*
X376394055Y-236527784D01*
X376396366Y-236502646D01*
X377102160Y-236502646D01*
X377115746Y-236686888D01*
X377167222Y-236788183D01*
X377264457Y-236830661D01*
X377415318Y-236838452D01*
X377627673Y-236835686D01*
X377681952Y-236836046D01*
X378140918Y-236856952D01*
X378709957Y-236905760D01*
X379339955Y-236976474D01*
X379981796Y-237063099D01*
X380586364Y-237159639D01*
X381104545Y-237260100D01*
X382530862Y-237628842D01*
X384256419Y-238230037D01*
X385926985Y-238985842D01*
X387524755Y-239888966D01*
X387809209Y-240066377D01*
X388082444Y-240234997D01*
X388271416Y-240349487D01*
X388346442Y-240391686D01*
X388397586Y-240348648D01*
X388548064Y-240208869D01*
X388772607Y-239995232D01*
X389046034Y-239731498D01*
X389210086Y-239577407D01*
X389624424Y-239216661D01*
X390065273Y-238862682D01*
X390461270Y-238573846D01*
X391196068Y-238076381D01*
X390885646Y-237519534D01*
X390816074Y-237395518D01*
X389847419Y-235801873D01*
X388739162Y-234196334D01*
X387514590Y-232606348D01*
X386196988Y-231059361D01*
X384809644Y-229582819D01*
X383375842Y-228204167D01*
X381918870Y-226950853D01*
X381671999Y-226752692D01*
X381334008Y-226486713D01*
X381056303Y-226274597D01*
X380862504Y-226134272D01*
X380776235Y-226083665D01*
X380765394Y-226086344D01*
X380664362Y-226183073D01*
X380501463Y-226401201D01*
X380291318Y-226716798D01*
X380048547Y-227105938D01*
X379787770Y-227544691D01*
X379523608Y-228009130D01*
X379270680Y-228475327D01*
X379043608Y-228919353D01*
X379010569Y-228986806D01*
X378340206Y-230541985D01*
X377806040Y-232166117D01*
X377417996Y-233824147D01*
X377185997Y-235481020D01*
X377157193Y-235788801D01*
X377118599Y-236211327D01*
X377102160Y-236502646D01*
X376396366Y-236502646D01*
X376414518Y-236305229D01*
X376417116Y-235989020D01*
X376421650Y-235843983D01*
X376446417Y-235488791D01*
X376487679Y-235064548D01*
X376539725Y-234634353D01*
X376842539Y-232933795D01*
X377318426Y-231183828D01*
X377952752Y-229494987D01*
X378745452Y-227867440D01*
X379696462Y-226301358D01*
X379809361Y-226128474D01*
X379972992Y-225856780D01*
X380076516Y-225655103D01*
X380101242Y-225557776D01*
X380101134Y-225557605D01*
X380018006Y-225489356D01*
X379815780Y-225344549D01*
X379517483Y-225139049D01*
X379146142Y-224888721D01*
X378724783Y-224609429D01*
X377224097Y-223669616D01*
X374993008Y-222438130D01*
X372701314Y-221364766D01*
X370349918Y-220449831D01*
X367939721Y-219693631D01*
X365471626Y-219096471D01*
X362946537Y-218658659D01*
X360365356Y-218380500D01*
X359905211Y-218348877D01*
X359340024Y-218319091D01*
X358823680Y-218301488D01*
X358380288Y-218296284D01*
X358033954Y-218303690D01*
X357808785Y-218323919D01*
X357728888Y-218357186D01*
X357023964Y-218357186D01*
X357021536Y-218293686D01*
X356333960Y-218308948D01*
X356262747Y-218310567D01*
X355846632Y-218322359D01*
X355470066Y-218338739D01*
X355091385Y-218362686D01*
X354668924Y-218397181D01*
X354161020Y-218445201D01*
X353526008Y-218509726D01*
X352597995Y-218617204D01*
X350102720Y-219021547D01*
X347652207Y-219588821D01*
X345249372Y-220317964D01*
X342897131Y-221207915D01*
X340598399Y-222257610D01*
X338356092Y-223465989D01*
X336173125Y-224831987D01*
X335931796Y-224994775D01*
X335576377Y-225237853D01*
X335287899Y-225439305D01*
X335091178Y-225581712D01*
X335011035Y-225647655D01*
X333746846Y-225647655D01*
X333772764Y-225626390D01*
X333941701Y-225487511D01*
X334063373Y-225390903D01*
X334425059Y-225124364D01*
X334927902Y-224773468D01*
X335568939Y-224340262D01*
X336345205Y-223826795D01*
X336639238Y-223636029D01*
X338721578Y-222397495D01*
X340902922Y-221287397D01*
X343167169Y-220311043D01*
X345498217Y-219473743D01*
X347879963Y-218780804D01*
X350296306Y-218237535D01*
X352731143Y-217849245D01*
X355168373Y-217621241D01*
X355235019Y-217617294D01*
X357834079Y-217548828D01*
X360409586Y-217647268D01*
G37*
G36*
X347405118Y-156621518D02*
G01*
X347426317Y-156867894D01*
X347371440Y-156947908D01*
X347143169Y-157135262D01*
X347116486Y-157128311D01*
X347025264Y-156867894D01*
X347036145Y-156794611D01*
X347308412Y-156600525D01*
X347405118Y-156621518D01*
G37*
G36*
X353779668Y-156641381D02*
G01*
X353843159Y-156867894D01*
X353788360Y-156948784D01*
X353575790Y-157135262D01*
X353537117Y-157122680D01*
X353308422Y-156867894D01*
X353287008Y-156726285D01*
X353575790Y-156600525D01*
X353779668Y-156641381D01*
G37*
G36*
X355910250Y-156610800D02*
G01*
X356115790Y-156867894D01*
X356112725Y-156928402D01*
X355997885Y-157135262D01*
X355954997Y-157122959D01*
X355714738Y-156867894D01*
X355672961Y-156764325D01*
X355832643Y-156600525D01*
X355910250Y-156610800D01*
G37*
G36*
X370398802Y-163840466D02*
G01*
X370420001Y-164086841D01*
X370365124Y-164166855D01*
X370136853Y-164354210D01*
X370110170Y-164347258D01*
X370018948Y-164086841D01*
X370029829Y-164013559D01*
X370302096Y-163819473D01*
X370398802Y-163840466D01*
G37*
G36*
X382379724Y-156610800D02*
G01*
X382585264Y-156867894D01*
X382582199Y-156928402D01*
X382467359Y-157135262D01*
X382424471Y-157122959D01*
X382184211Y-156867894D01*
X382142434Y-156764325D01*
X382302116Y-156600525D01*
X382379724Y-156610800D01*
G37*
G36*
X368487543Y-165230715D02*
G01*
X368574306Y-165243036D01*
X368645560Y-165291009D01*
X368259448Y-165324170D01*
X367478948Y-165335949D01*
X367250520Y-165334834D01*
X366592034Y-165315744D01*
X366362967Y-165278135D01*
X366615964Y-165228558D01*
X366651696Y-165224950D01*
X367603388Y-165185827D01*
X368487543Y-165230715D01*
G37*
G36*
X368487543Y-166300189D02*
G01*
X368574306Y-166312510D01*
X368645560Y-166360482D01*
X368259448Y-166393644D01*
X367478948Y-166405423D01*
X367250520Y-166404308D01*
X366592034Y-166385218D01*
X366362967Y-166347609D01*
X366615964Y-166298032D01*
X366651696Y-166294424D01*
X367603388Y-166255301D01*
X368487543Y-166300189D01*
G37*
G36*
X377129750Y-157404451D02*
G01*
X378166851Y-157447585D01*
X378858132Y-157539792D01*
X379109475Y-157669999D01*
X379094004Y-157704459D01*
X378727366Y-157826471D01*
X377943605Y-157907798D01*
X376836843Y-157937368D01*
X376543936Y-157935547D01*
X375506835Y-157892414D01*
X374815554Y-157800206D01*
X374564211Y-157669999D01*
X374579682Y-157635539D01*
X374946320Y-157513528D01*
X375730081Y-157432200D01*
X376836843Y-157402631D01*
X377129750Y-157404451D01*
G37*
G36*
X377165931Y-156066587D02*
G01*
X378177562Y-156107337D01*
X378859468Y-156200483D01*
X379109475Y-156333157D01*
X379092828Y-156368809D01*
X378721713Y-156490271D01*
X377933348Y-156571144D01*
X376821064Y-156600525D01*
X376629141Y-156599942D01*
X375513674Y-156563245D01*
X374857693Y-156472776D01*
X374697896Y-156333157D01*
X374734468Y-156300175D01*
X375172446Y-156180901D01*
X375969878Y-156097302D01*
X376986307Y-156065789D01*
X377165931Y-156066587D01*
G37*
G36*
X382996349Y-157870087D02*
G01*
X383318602Y-158204736D01*
X383342223Y-158293540D01*
X383351916Y-158469871D01*
X383130436Y-158204736D01*
X382991950Y-158058431D01*
X382926789Y-158201223D01*
X383006153Y-158806315D01*
X383084891Y-159450406D01*
X382983155Y-159743785D01*
X382643625Y-159808946D01*
X382316897Y-159739671D01*
X381953840Y-159407894D01*
X381937059Y-159083302D01*
X382156800Y-159035051D01*
X382426831Y-159341052D01*
X382487703Y-159383513D01*
X382418316Y-159006841D01*
X382323800Y-158602978D01*
X382246678Y-158068102D01*
X382360461Y-157847082D01*
X382696668Y-157803683D01*
X382996349Y-157870087D01*
G37*
G36*
X364404211Y-163742003D02*
G01*
X364434993Y-163750499D01*
X364834196Y-163974574D01*
X364937367Y-164231471D01*
X364671580Y-164354210D01*
X364634610Y-164361424D01*
X364472613Y-164659879D01*
X364407246Y-165254145D01*
X364433259Y-165948123D01*
X364545401Y-166545715D01*
X364738422Y-166850821D01*
X364788706Y-166886477D01*
X364585114Y-166953699D01*
X364003159Y-166975771D01*
X363719864Y-166967958D01*
X363337173Y-166919329D01*
X363401580Y-166843590D01*
X363484245Y-166816313D01*
X363721382Y-166589323D01*
X363838232Y-166079354D01*
X363869475Y-165161741D01*
X363879951Y-164405630D01*
X363944072Y-163894777D01*
X364104635Y-163711244D01*
X364404211Y-163742003D01*
G37*
G36*
X356694471Y-157748262D02*
G01*
X357014583Y-158071052D01*
X357056614Y-158276121D01*
X356909504Y-158472104D01*
X356824103Y-158454574D01*
X356650527Y-158160175D01*
X356640064Y-158053096D01*
X356509362Y-157989409D01*
X356482012Y-158263017D01*
X356625977Y-158808585D01*
X356754808Y-159309462D01*
X356713337Y-159657014D01*
X356451228Y-159772596D01*
X355976720Y-159672612D01*
X355690104Y-159334368D01*
X355673750Y-159206549D01*
X355757071Y-159267525D01*
X355802280Y-159340234D01*
X356147478Y-159541578D01*
X356255024Y-159441822D01*
X356125197Y-159024418D01*
X355970850Y-158664394D01*
X355848422Y-158088629D01*
X355902901Y-157890169D01*
X356243935Y-157689173D01*
X356694471Y-157748262D01*
G37*
G36*
X354242364Y-157729765D02*
G01*
X354778948Y-158071052D01*
X354952976Y-158342801D01*
X354811686Y-158472104D01*
X354719147Y-158459020D01*
X354511580Y-158204736D01*
X354499523Y-158128404D01*
X354222968Y-157937368D01*
X354058294Y-158154412D01*
X354120916Y-158806315D01*
X354316992Y-159538864D01*
X354574318Y-160176451D01*
X354813793Y-160500478D01*
X354980267Y-160408147D01*
X355050228Y-160281828D01*
X355340882Y-160226808D01*
X355407626Y-160283529D01*
X355435951Y-160629526D01*
X355162402Y-160882886D01*
X354718462Y-160833349D01*
X354256622Y-160398484D01*
X353848526Y-159653256D01*
X353565814Y-158672631D01*
X353480242Y-158025737D01*
X353578368Y-157734512D01*
X353914350Y-157669999D01*
X354242364Y-157729765D01*
G37*
G36*
X348085809Y-157747470D02*
G01*
X348477601Y-158123758D01*
X348500157Y-158184007D01*
X348553251Y-158446031D01*
X348324473Y-158271578D01*
X348139727Y-158102028D01*
X347828626Y-157966805D01*
X347749742Y-158284289D01*
X347892741Y-159073683D01*
X347923647Y-159196772D01*
X348151537Y-159923112D01*
X348381098Y-160426488D01*
X348558390Y-160611158D01*
X348629475Y-160381378D01*
X348655038Y-160253955D01*
X348896843Y-160209999D01*
X348968964Y-160264621D01*
X349164211Y-160645427D01*
X349029483Y-160796438D01*
X348565137Y-160830174D01*
X348559367Y-160829330D01*
X347956418Y-160483968D01*
X347498843Y-159710036D01*
X347244957Y-158605789D01*
X347224978Y-158331917D01*
X347327237Y-157888566D01*
X347726497Y-157722705D01*
X348085809Y-157747470D01*
G37*
G36*
X371079494Y-164966418D02*
G01*
X371471285Y-165342705D01*
X371493841Y-165402954D01*
X371546935Y-165664979D01*
X371318157Y-165490525D01*
X371133412Y-165320976D01*
X370822310Y-165185752D01*
X370743427Y-165503237D01*
X370886425Y-166292631D01*
X370917331Y-166415720D01*
X371145221Y-167142060D01*
X371374782Y-167645436D01*
X371552075Y-167830105D01*
X371623159Y-167600325D01*
X371648722Y-167472903D01*
X371890527Y-167428946D01*
X371962648Y-167483568D01*
X372157896Y-167864374D01*
X372023167Y-168015385D01*
X371558821Y-168049121D01*
X371553052Y-168048277D01*
X370950102Y-167702915D01*
X370492527Y-166928983D01*
X370238641Y-165824736D01*
X370218662Y-165550864D01*
X370320921Y-165107514D01*
X370720181Y-164941652D01*
X371079494Y-164966418D01*
G37*
G36*
X368475562Y-147016769D02*
G01*
X368579760Y-147191925D01*
X368549110Y-147475067D01*
X368638413Y-148123728D01*
X368823801Y-148913709D01*
X369056747Y-149644812D01*
X369288727Y-150116841D01*
X369360399Y-150375019D01*
X368966433Y-150451052D01*
X368633954Y-150391686D01*
X368544609Y-150189852D01*
X368575016Y-150091860D01*
X368556945Y-149560240D01*
X368406678Y-148816908D01*
X368107316Y-147705164D01*
X367450397Y-149123057D01*
X367136812Y-149728522D01*
X366792190Y-150212134D01*
X366570985Y-150295474D01*
X366473497Y-150126857D01*
X366252239Y-149529865D01*
X366024987Y-148716707D01*
X365891881Y-148237693D01*
X365627058Y-147542479D01*
X365387056Y-147183433D01*
X365351578Y-147039936D01*
X365770819Y-146979356D01*
X365999887Y-146985813D01*
X366348867Y-147132815D01*
X366355094Y-147576841D01*
X366336483Y-148082196D01*
X366484019Y-148831643D01*
X366601488Y-149117352D01*
X366740374Y-149225275D01*
X366918082Y-148949357D01*
X367206068Y-148230064D01*
X367389790Y-147789539D01*
X367782170Y-147167183D01*
X368199473Y-146975262D01*
X368475562Y-147016769D01*
G37*
G36*
X386032374Y-157910981D02*
G01*
X385940280Y-158345615D01*
X385651650Y-158644958D01*
X385541528Y-158714988D01*
X384912213Y-158790203D01*
X384273437Y-158396816D01*
X383709439Y-157580976D01*
X383601605Y-157308359D01*
X383582789Y-156913910D01*
X384218253Y-156913910D01*
X384450225Y-157786278D01*
X384654214Y-158170213D01*
X385044033Y-158458347D01*
X385382075Y-158330304D01*
X385526317Y-157786106D01*
X385526060Y-157749076D01*
X385383605Y-156920611D01*
X385039315Y-156306168D01*
X384581120Y-156065789D01*
X384557577Y-156066469D01*
X384256558Y-156307500D01*
X384218253Y-156913910D01*
X383582789Y-156913910D01*
X383566382Y-156569964D01*
X383886680Y-156016421D01*
X384496006Y-155798420D01*
X384828223Y-155749711D01*
X384954387Y-155488240D01*
X384875536Y-154862631D01*
X384800033Y-154334173D01*
X384878455Y-154004356D01*
X385200050Y-153926841D01*
X385347808Y-153939574D01*
X385625187Y-154172009D01*
X385703045Y-154795789D01*
X385711592Y-155071180D01*
X385790745Y-155992557D01*
X385925317Y-156974596D01*
X385956528Y-157166516D01*
X386019652Y-157786106D01*
X386032374Y-157910981D01*
G37*
G36*
X352112813Y-158464555D02*
G01*
X352007900Y-158565721D01*
X351526295Y-158857010D01*
X351045889Y-158744877D01*
X350722553Y-158621388D01*
X350375033Y-158727073D01*
X350269360Y-158824565D01*
X349850417Y-158842985D01*
X349620071Y-158667233D01*
X349381182Y-158257902D01*
X349302407Y-157853147D01*
X349456611Y-157669999D01*
X349567869Y-157715053D01*
X349698948Y-158071052D01*
X349726917Y-158255268D01*
X349947653Y-158472104D01*
X349953659Y-158471930D01*
X350062653Y-158233053D01*
X349947653Y-157604922D01*
X349731006Y-156719070D01*
X349730622Y-156560159D01*
X350471126Y-156560159D01*
X350511706Y-157223927D01*
X350805175Y-158004210D01*
X350880657Y-158126819D01*
X351286595Y-158437569D01*
X351668605Y-158375306D01*
X351837896Y-157949948D01*
X351794880Y-157522740D01*
X351553625Y-156811198D01*
X351185178Y-156289874D01*
X350787598Y-156128797D01*
X350684892Y-156168147D01*
X350471126Y-156560159D01*
X349730622Y-156560159D01*
X349729612Y-156142042D01*
X350005329Y-155867936D01*
X350593299Y-155798420D01*
X351317781Y-155931452D01*
X352013834Y-156388582D01*
X352427226Y-157048886D01*
X352484652Y-157783749D01*
X352393878Y-157949948D01*
X352112813Y-158464555D01*
G37*
G36*
X359282737Y-154160657D02*
G01*
X359909192Y-154695403D01*
X360126317Y-155551756D01*
X360093471Y-155915655D01*
X359833932Y-156310906D01*
X359190527Y-156600525D01*
X358595648Y-156928697D01*
X358266254Y-157445112D01*
X358318382Y-157963678D01*
X358729314Y-158339247D01*
X359476333Y-158426672D01*
X360091302Y-158215980D01*
X360395421Y-157669999D01*
X360470501Y-157377994D01*
X360588439Y-157202247D01*
X360740205Y-157491340D01*
X360836976Y-157840831D01*
X360907314Y-158560814D01*
X360862387Y-158859603D01*
X360755946Y-158820104D01*
X360748443Y-158802529D01*
X360503189Y-158633821D01*
X359974948Y-158796179D01*
X359906374Y-158825416D01*
X359052745Y-158908830D01*
X358254290Y-158551263D01*
X357680915Y-157824671D01*
X357644111Y-157740670D01*
X357505241Y-157000569D01*
X357826196Y-156429144D01*
X358644157Y-155954196D01*
X358954903Y-155805875D01*
X359485829Y-155353541D01*
X359517494Y-154883871D01*
X359035951Y-154450397D01*
X358423119Y-154266170D01*
X357915076Y-154443618D01*
X357720001Y-154987924D01*
X357707612Y-155117018D01*
X357537561Y-155453591D01*
X357303804Y-155561938D01*
X357181613Y-155330525D01*
X357154754Y-155125447D01*
X357034722Y-154595262D01*
X357025715Y-154560514D01*
X357022164Y-154232575D01*
X357309619Y-154066031D01*
X358009908Y-153984594D01*
X358284333Y-153975199D01*
X359282737Y-154160657D01*
G37*
G36*
X371247187Y-153659473D02*
G01*
X370861579Y-154196011D01*
X370078867Y-155285278D01*
X369374072Y-156266315D01*
X368461828Y-157536315D01*
X370173772Y-159541578D01*
X370642562Y-160098269D01*
X371283426Y-160888759D01*
X371723804Y-161470872D01*
X371888122Y-161747368D01*
X371807787Y-161786889D01*
X371297424Y-161850661D01*
X370394455Y-161901716D01*
X369190042Y-161935609D01*
X367775347Y-161947894D01*
X363660168Y-161947894D01*
X363230084Y-160873010D01*
X363162797Y-160703971D01*
X362887916Y-159953553D01*
X362857600Y-159648325D01*
X363093904Y-159751633D01*
X363618883Y-160226819D01*
X363938547Y-160519897D01*
X364288672Y-160758164D01*
X364724613Y-160911284D01*
X365358566Y-161003505D01*
X366302730Y-161059077D01*
X367669301Y-161102249D01*
X370900837Y-161192395D01*
X369135927Y-159132186D01*
X367371016Y-157071978D01*
X368828667Y-155100941D01*
X369162270Y-154646218D01*
X369739175Y-153839699D01*
X370137640Y-153254457D01*
X370286317Y-152993636D01*
X370167439Y-152953629D01*
X369618408Y-152903968D01*
X368724745Y-152869972D01*
X367599355Y-152857367D01*
X365890544Y-152919004D01*
X364554004Y-153123558D01*
X363686051Y-153477748D01*
X363261813Y-153988058D01*
X363196912Y-154120878D01*
X363008342Y-154194210D01*
X362994867Y-154171271D01*
X363031883Y-153802567D01*
X363239873Y-153191578D01*
X363603640Y-152322631D01*
X367905848Y-152322631D01*
X372208057Y-152322631D01*
X371247187Y-153659473D01*
G37*
D13*
%TO.C,C510*%
X270004829Y-225932922D02*
X270211682Y-225726069D01*
X270726078Y-226654171D02*
X270932931Y-226447318D01*
%TO.C,R504*%
X271489420Y-234427346D02*
X271849654Y-234787580D01*
X272228346Y-233688420D02*
X272588580Y-234048654D01*
D14*
%TO.C,G\u002A\u002A\u002A*%
G36*
X350348617Y-126177625D02*
G01*
X351491460Y-126228680D01*
X352225021Y-126317161D01*
X352484043Y-126437394D01*
X352363934Y-126521917D01*
X351776803Y-126621295D01*
X350759271Y-126685083D01*
X349376596Y-126707607D01*
X348404575Y-126697162D01*
X347261732Y-126646107D01*
X346528171Y-126557626D01*
X346269149Y-126437394D01*
X346389258Y-126352870D01*
X346976389Y-126253493D01*
X347993921Y-126189705D01*
X349376596Y-126167181D01*
X350348617Y-126177625D01*
G37*
G36*
X376359436Y-131856009D02*
G01*
X377463543Y-131910935D01*
X378230814Y-131999044D01*
X378559575Y-132111862D01*
X378479008Y-132205702D01*
X377917613Y-132302431D01*
X376856084Y-132361850D01*
X375317021Y-132382075D01*
X374139726Y-132371093D01*
X372949621Y-132321864D01*
X372253668Y-132234826D01*
X372074468Y-132111862D01*
X372294029Y-132021057D01*
X372977312Y-131927034D01*
X374018867Y-131864407D01*
X375317021Y-131841649D01*
X376359436Y-131856009D01*
G37*
G36*
X376359436Y-133747498D02*
G01*
X377463543Y-133802425D01*
X378230814Y-133890533D01*
X378559575Y-134003351D01*
X378479008Y-134097192D01*
X377917613Y-134193921D01*
X376856084Y-134253339D01*
X375317021Y-134273564D01*
X374139726Y-134262583D01*
X372949621Y-134213353D01*
X372253668Y-134126315D01*
X372074468Y-134003351D01*
X372294029Y-133912546D01*
X372977312Y-133818524D01*
X374018867Y-133755897D01*
X375317021Y-133733138D01*
X376359436Y-133747498D01*
G37*
G36*
X349404040Y-136796026D02*
G01*
X349601855Y-137296922D01*
X349728483Y-138280442D01*
X349810157Y-139677819D01*
X351282206Y-139677819D01*
X351880704Y-139701300D01*
X352510067Y-139799445D01*
X352754255Y-139948032D01*
X352621776Y-140059236D01*
X352081963Y-140173824D01*
X351268085Y-140218245D01*
X349781915Y-140218245D01*
X349781915Y-141524273D01*
X349772593Y-141955830D01*
X349710414Y-142652193D01*
X349609119Y-143003097D01*
X349513792Y-143080777D01*
X349225905Y-143032675D01*
X349038311Y-142508183D01*
X348971277Y-141553361D01*
X348971277Y-140218245D01*
X347485106Y-140218245D01*
X346873482Y-140194158D01*
X346243251Y-140096010D01*
X345998936Y-139948032D01*
X346131416Y-139836828D01*
X346671229Y-139722240D01*
X347485106Y-139677819D01*
X348971277Y-139677819D01*
X348971277Y-138169131D01*
X349030210Y-137276705D01*
X349193878Y-136786404D01*
X349404040Y-136796026D01*
G37*
G36*
X358792512Y-125669573D02*
G01*
X359275395Y-125732727D01*
X359293080Y-125858050D01*
X359174156Y-125973173D01*
X359096899Y-126308575D01*
X359168834Y-126928246D01*
X359395648Y-127948061D01*
X359401102Y-127970382D01*
X359686763Y-128948044D01*
X359999208Y-129731450D01*
X360271767Y-130152819D01*
X360401620Y-130314688D01*
X360236822Y-130422845D01*
X359681442Y-130476260D01*
X358660812Y-130490585D01*
X356627907Y-130490585D01*
X356337650Y-129544841D01*
X356293837Y-129392284D01*
X356200771Y-128824498D01*
X356292313Y-128599096D01*
X356350180Y-128606764D01*
X356537234Y-128869309D01*
X356610741Y-129137509D01*
X357047065Y-129644510D01*
X357707864Y-130052759D01*
X358397752Y-130220372D01*
X359177419Y-130220372D01*
X358638284Y-128073574D01*
X358366148Y-127064902D01*
X358105156Y-126347770D01*
X357840575Y-125965414D01*
X357520852Y-125813564D01*
X357403198Y-125764411D01*
X357647592Y-125704322D01*
X358293617Y-125667691D01*
X358792512Y-125669573D01*
G37*
G36*
X358792512Y-138909998D02*
G01*
X359275395Y-138973153D01*
X359293080Y-139098476D01*
X359174156Y-139213599D01*
X359096899Y-139549001D01*
X359168834Y-140168671D01*
X359395648Y-141188487D01*
X359401102Y-141210807D01*
X359686763Y-142188469D01*
X359999208Y-142971875D01*
X360271767Y-143393245D01*
X360401620Y-143555113D01*
X360236822Y-143663271D01*
X359681442Y-143716685D01*
X358660812Y-143731011D01*
X356627907Y-143731011D01*
X356337650Y-142785266D01*
X356293837Y-142632709D01*
X356200771Y-142064924D01*
X356292313Y-141839521D01*
X356350180Y-141847190D01*
X356537234Y-142109734D01*
X356610741Y-142377935D01*
X357047065Y-142884936D01*
X357707864Y-143293185D01*
X358397752Y-143460798D01*
X359177419Y-143460798D01*
X358638284Y-141314000D01*
X358366148Y-140305327D01*
X358105156Y-139588195D01*
X357840575Y-139205839D01*
X357520852Y-139053990D01*
X357403198Y-139004836D01*
X357647592Y-138944747D01*
X358293617Y-138908117D01*
X358792512Y-138909998D01*
G37*
G36*
X336347185Y-129289681D02*
G01*
X336154751Y-129833091D01*
X335768469Y-130244247D01*
X335229637Y-130602098D01*
X334785106Y-130760798D01*
X334366843Y-130615896D01*
X333801744Y-130244247D01*
X333724172Y-130179396D01*
X333373048Y-129759612D01*
X333206179Y-129177524D01*
X333176540Y-128525594D01*
X333829198Y-128525594D01*
X334009673Y-129612394D01*
X334173549Y-129920387D01*
X334653618Y-130201622D01*
X335194108Y-130167964D01*
X335566835Y-129792953D01*
X335652585Y-129490887D01*
X335739873Y-128636137D01*
X335703053Y-127684591D01*
X335557281Y-126846739D01*
X335317712Y-126333070D01*
X334838962Y-126062775D01*
X334397747Y-126217884D01*
X334058723Y-126739370D01*
X333857377Y-127538263D01*
X333829198Y-128525594D01*
X333176540Y-128525594D01*
X333163830Y-128246020D01*
X333190666Y-127666071D01*
X333460592Y-126560166D01*
X334000444Y-125866870D01*
X334785106Y-125626755D01*
X335144084Y-125670111D01*
X335828619Y-126106192D01*
X336257757Y-126978352D01*
X336406383Y-128246020D01*
X336405506Y-128426906D01*
X336391363Y-128636137D01*
X336347185Y-129289681D01*
G37*
G36*
X336347185Y-142530107D02*
G01*
X336154751Y-143073517D01*
X335768469Y-143484672D01*
X335229637Y-143842523D01*
X334785106Y-144001224D01*
X334366843Y-143856321D01*
X333801744Y-143484672D01*
X333724172Y-143419821D01*
X333373048Y-143000038D01*
X333206179Y-142417950D01*
X333176540Y-141766020D01*
X333829198Y-141766020D01*
X334009673Y-142852819D01*
X334173549Y-143160813D01*
X334653618Y-143442048D01*
X335194108Y-143408389D01*
X335566835Y-143033379D01*
X335652585Y-142731313D01*
X335739873Y-141876563D01*
X335703053Y-140925017D01*
X335557281Y-140087164D01*
X335317712Y-139573495D01*
X334838962Y-139303201D01*
X334397747Y-139458310D01*
X334058723Y-139979795D01*
X333857377Y-140778689D01*
X333829198Y-141766020D01*
X333176540Y-141766020D01*
X333163830Y-141486445D01*
X333190666Y-140906496D01*
X333460592Y-139800591D01*
X334000444Y-139107296D01*
X334785106Y-138867181D01*
X335144084Y-138910537D01*
X335828619Y-139346618D01*
X336257757Y-140218778D01*
X336406383Y-141486445D01*
X336405506Y-141667332D01*
X336391363Y-141876563D01*
X336347185Y-142530107D01*
G37*
G36*
X350971451Y-132922688D02*
G01*
X354921470Y-132928472D01*
X358346609Y-132942315D01*
X361244656Y-132964183D01*
X363613399Y-132994042D01*
X365450623Y-133031859D01*
X366754118Y-133077598D01*
X367521669Y-133131228D01*
X367751064Y-133192713D01*
X367623738Y-133227423D01*
X367015081Y-133277738D01*
X365955807Y-133322260D01*
X364500972Y-133360988D01*
X362705633Y-133393922D01*
X360624844Y-133421063D01*
X358313664Y-133442410D01*
X355827148Y-133457964D01*
X353220351Y-133467724D01*
X350548331Y-133471691D01*
X347866144Y-133469864D01*
X345228845Y-133462244D01*
X342691491Y-133448830D01*
X340309138Y-133429622D01*
X338136843Y-133404621D01*
X336229661Y-133373827D01*
X334642648Y-133337239D01*
X333430862Y-133294857D01*
X332649358Y-133246682D01*
X332353192Y-133192713D01*
X332357017Y-133178807D01*
X332702518Y-133119011D01*
X333585698Y-133067078D01*
X335004344Y-133023042D01*
X336956245Y-132986937D01*
X339439186Y-132958797D01*
X342450956Y-132938654D01*
X345989340Y-132926544D01*
X350052128Y-132922500D01*
X350971451Y-132922688D01*
G37*
G36*
X385747547Y-128872527D02*
G01*
X386901561Y-128915369D01*
X387578242Y-129005469D01*
X387746809Y-129139521D01*
X387650486Y-129245053D01*
X387190436Y-129409734D01*
X387108930Y-129424872D01*
X386956982Y-129616979D01*
X386862691Y-130096758D01*
X386814553Y-130948295D01*
X386801064Y-132255676D01*
X386801486Y-132702318D01*
X386814507Y-133828385D01*
X386861183Y-134551126D01*
X386962104Y-134975201D01*
X387137860Y-135205270D01*
X387409043Y-135345995D01*
X387535976Y-135406053D01*
X387539867Y-135511988D01*
X387082758Y-135567776D01*
X386125532Y-135580565D01*
X385990315Y-135579544D01*
X385136325Y-135548984D01*
X384766880Y-135482097D01*
X384909575Y-135383358D01*
X385083519Y-135330879D01*
X385325383Y-135195996D01*
X385479322Y-134927400D01*
X385570157Y-134423441D01*
X385622710Y-133582473D01*
X385661801Y-132302846D01*
X385738496Y-129409734D01*
X384499609Y-129409734D01*
X384092145Y-129414463D01*
X383494002Y-129499692D01*
X383147204Y-129783935D01*
X382853361Y-130384685D01*
X382533097Y-131037101D01*
X382333100Y-131190635D01*
X382273885Y-130836876D01*
X382368127Y-129986233D01*
X382546730Y-128869309D01*
X385230270Y-128869309D01*
X385747547Y-128872527D01*
G37*
G36*
X338609165Y-122171023D02*
G01*
X340947053Y-122249096D01*
X341297147Y-123262394D01*
X341459777Y-123871841D01*
X341442370Y-124238993D01*
X341244021Y-124166897D01*
X340917456Y-123607614D01*
X340569864Y-123132118D01*
X339725880Y-122734979D01*
X338497795Y-122702059D01*
X337677192Y-122789521D01*
X340210274Y-125626755D01*
X340532144Y-125988853D01*
X341402640Y-126985406D01*
X342105938Y-127815974D01*
X342576770Y-128402430D01*
X342749870Y-128666649D01*
X342694025Y-128710554D01*
X342235359Y-128791953D01*
X341413722Y-128848270D01*
X340349869Y-128869309D01*
X337943354Y-128869309D01*
X337512635Y-127605216D01*
X337427452Y-127355372D01*
X337192673Y-126648386D01*
X337110583Y-126297871D01*
X337166810Y-126179059D01*
X337346980Y-126167181D01*
X337559448Y-126326168D01*
X337776601Y-126822826D01*
X337791262Y-126879078D01*
X338230610Y-127733749D01*
X339001922Y-128191326D01*
X340146745Y-128277304D01*
X341377336Y-128193777D01*
X338830179Y-125356543D01*
X338502635Y-124989984D01*
X337628771Y-123993757D01*
X336922963Y-123162270D01*
X336450620Y-122573677D01*
X336277149Y-122306129D01*
X336322269Y-122265491D01*
X336759502Y-122192629D01*
X337562572Y-122158777D01*
X338609165Y-122171023D01*
G37*
G36*
X338609165Y-135681661D02*
G01*
X340947053Y-135759734D01*
X341297147Y-136773032D01*
X341459777Y-137382480D01*
X341442370Y-137749631D01*
X341244021Y-137677535D01*
X340917456Y-137118253D01*
X340569864Y-136642756D01*
X339725880Y-136245617D01*
X338497795Y-136212698D01*
X337677192Y-136300160D01*
X340210274Y-139137394D01*
X340532144Y-139499491D01*
X341402640Y-140496045D01*
X342105938Y-141326612D01*
X342576770Y-141913068D01*
X342749870Y-142177287D01*
X342694025Y-142221192D01*
X342235359Y-142302591D01*
X341413722Y-142358909D01*
X340349869Y-142379947D01*
X337943354Y-142379947D01*
X337512635Y-141115854D01*
X337427452Y-140866011D01*
X337192673Y-140159024D01*
X337110583Y-139808509D01*
X337166810Y-139689697D01*
X337346980Y-139677819D01*
X337559448Y-139836807D01*
X337776601Y-140333465D01*
X337791262Y-140389716D01*
X338230610Y-141244387D01*
X339001922Y-141701964D01*
X340146745Y-141787943D01*
X341377336Y-141704415D01*
X338830179Y-138867181D01*
X338502635Y-138500623D01*
X337628771Y-137504395D01*
X336922963Y-136672908D01*
X336450620Y-136084315D01*
X336277149Y-135816767D01*
X336322269Y-135776129D01*
X336759502Y-135703267D01*
X337562572Y-135669416D01*
X338609165Y-135681661D01*
G37*
G36*
X362928314Y-122171023D02*
G01*
X365266202Y-122249096D01*
X365616296Y-123262394D01*
X365778926Y-123871841D01*
X365761519Y-124238993D01*
X365563170Y-124166897D01*
X365236605Y-123607614D01*
X364889013Y-123132118D01*
X364045028Y-122734979D01*
X362816944Y-122702059D01*
X361996341Y-122789521D01*
X364529423Y-125626755D01*
X364851292Y-125988853D01*
X365721789Y-126985406D01*
X366425087Y-127815974D01*
X366895919Y-128402430D01*
X367069019Y-128666649D01*
X367013174Y-128710554D01*
X366554508Y-128791953D01*
X365732871Y-128848270D01*
X364669018Y-128869309D01*
X362262503Y-128869309D01*
X361831784Y-127605216D01*
X361746601Y-127355372D01*
X361511822Y-126648386D01*
X361429732Y-126297871D01*
X361485958Y-126179059D01*
X361666129Y-126167181D01*
X361878597Y-126326168D01*
X362095750Y-126822826D01*
X362110411Y-126879078D01*
X362549759Y-127733749D01*
X363321071Y-128191326D01*
X364465894Y-128277304D01*
X365696485Y-128193777D01*
X363149328Y-125356543D01*
X362821784Y-124989984D01*
X361947920Y-123993757D01*
X361242112Y-123162270D01*
X360769769Y-122573677D01*
X360596298Y-122306129D01*
X360641418Y-122265491D01*
X361078651Y-122192629D01*
X361881721Y-122158777D01*
X362928314Y-122171023D01*
G37*
G36*
X362928314Y-135681661D02*
G01*
X365266202Y-135759734D01*
X365616296Y-136773032D01*
X365778926Y-137382480D01*
X365761519Y-137749631D01*
X365563170Y-137677535D01*
X365236605Y-137118253D01*
X364889013Y-136642756D01*
X364045028Y-136245617D01*
X362816944Y-136212698D01*
X361996341Y-136300160D01*
X364529423Y-139137394D01*
X364851292Y-139499491D01*
X365721789Y-140496045D01*
X366425087Y-141326612D01*
X366895919Y-141913068D01*
X367069019Y-142177287D01*
X367013174Y-142221192D01*
X366554508Y-142302591D01*
X365732871Y-142358909D01*
X364669018Y-142379947D01*
X362262503Y-142379947D01*
X361831784Y-141115854D01*
X361746601Y-140866011D01*
X361511822Y-140159024D01*
X361429732Y-139808509D01*
X361485958Y-139689697D01*
X361666129Y-139677819D01*
X361878597Y-139836807D01*
X362095750Y-140333465D01*
X362110411Y-140389716D01*
X362549759Y-141244387D01*
X363321071Y-141701964D01*
X364465894Y-141787943D01*
X365696485Y-141704415D01*
X363149328Y-138867181D01*
X362821784Y-138500623D01*
X361947920Y-137504395D01*
X361242112Y-136672908D01*
X360769769Y-136084315D01*
X360596298Y-135816767D01*
X360641418Y-135776129D01*
X361078651Y-135703267D01*
X361881721Y-135669416D01*
X362928314Y-135681661D01*
G37*
%TD*%
M02*
