%TF.GenerationSoftware,KiCad,Pcbnew,9.0.2*%
%TF.CreationDate,2025-11-29T14:49:54-06:00*%
%TF.ProjectId,VNA_Project,564e415f-5072-46f6-9a65-63742e6b6963,rev?*%
%TF.SameCoordinates,Original*%
%TF.FileFunction,Soldermask,Bot*%
%TF.FilePolarity,Negative*%
%FSLAX46Y46*%
G04 Gerber Fmt 4.6, Leading zero omitted, Abs format (unit mm)*
G04 Created by KiCad (PCBNEW 9.0.2) date 2025-11-29 14:49:54*
%MOMM*%
%LPD*%
G01*
G04 APERTURE LIST*
G04 Aperture macros list*
%AMRoundRect*
0 Rectangle with rounded corners*
0 $1 Rounding radius*
0 $2 $3 $4 $5 $6 $7 $8 $9 X,Y pos of 4 corners*
0 Add a 4 corners polygon primitive as box body*
4,1,4,$2,$3,$4,$5,$6,$7,$8,$9,$2,$3,0*
0 Add four circle primitives for the rounded corners*
1,1,$1+$1,$2,$3*
1,1,$1+$1,$4,$5*
1,1,$1+$1,$6,$7*
1,1,$1+$1,$8,$9*
0 Add four rect primitives between the rounded corners*
20,1,$1+$1,$2,$3,$4,$5,0*
20,1,$1+$1,$4,$5,$6,$7,0*
20,1,$1+$1,$6,$7,$8,$9,0*
20,1,$1+$1,$8,$9,$2,$3,0*%
G04 Aperture macros list end*
%ADD10R,2.000000X4.600000*%
%ADD11O,2.000000X4.200000*%
%ADD12O,4.200000X2.000000*%
%ADD13O,2.200000X3.500000*%
%ADD14R,1.500000X2.500000*%
%ADD15O,1.500000X2.500000*%
%ADD16C,2.200000*%
%ADD17RoundRect,0.250001X1.149999X1.149999X-1.149999X1.149999X-1.149999X-1.149999X1.149999X-1.149999X0*%
%ADD18C,2.800000*%
%ADD19C,2.050000*%
%ADD20C,2.250000*%
%ADD21C,0.650000*%
%ADD22O,1.000000X2.100000*%
%ADD23O,1.000000X1.800000*%
%ADD24R,1.700000X1.700000*%
%ADD25C,1.700000*%
%ADD26C,3.250000*%
%ADD27C,1.890000*%
%ADD28R,1.900000X1.900000*%
%ADD29C,1.900000*%
%ADD30C,2.600000*%
%ADD31O,3.500000X2.200000*%
%ADD32R,2.500000X1.500000*%
%ADD33O,2.500000X1.500000*%
%ADD34RoundRect,0.250001X-1.149999X-1.149999X1.149999X-1.149999X1.149999X1.149999X-1.149999X1.149999X0*%
%ADD35RoundRect,0.237500X0.300000X0.237500X-0.300000X0.237500X-0.300000X-0.237500X0.300000X-0.237500X0*%
%ADD36RoundRect,0.237500X-0.380070X0.044194X0.044194X-0.380070X0.380070X-0.044194X-0.044194X0.380070X0*%
%ADD37RoundRect,0.237500X-0.044194X-0.380070X0.380070X0.044194X0.044194X0.380070X-0.380070X-0.044194X0*%
%ADD38RoundRect,0.237500X-0.344715X0.008839X0.008839X-0.344715X0.344715X-0.008839X-0.008839X0.344715X0*%
G04 APERTURE END LIST*
D10*
%TO.C,J202*%
X211650000Y-116750000D03*
D11*
X205350000Y-116750000D03*
D12*
X208750000Y-121550000D03*
%TD*%
D13*
%TO.C,SW401*%
X311410000Y-101610000D03*
X319610000Y-101610000D03*
D14*
X313510000Y-101610000D03*
D15*
X315510000Y-101610000D03*
X317510000Y-101610000D03*
%TD*%
D16*
%TO.C,H304*%
X200300000Y-295600000D03*
%TD*%
D17*
%TO.C,J302*%
X306600000Y-294400000D03*
D18*
X301600000Y-294400000D03*
%TD*%
D13*
%TO.C,SW202*%
X248500000Y-103700000D03*
X256700000Y-103700000D03*
D14*
X250600000Y-103700000D03*
D15*
X252600000Y-103700000D03*
X254600000Y-103700000D03*
%TD*%
D19*
%TO.C,J403*%
X355440000Y-199660000D03*
D20*
X352900000Y-202200000D03*
X357980000Y-202200000D03*
X352900000Y-197120000D03*
X357980000Y-197120000D03*
%TD*%
D13*
%TO.C,SW403*%
X336600000Y-101600000D03*
X344800000Y-101600000D03*
D14*
X338700000Y-101600000D03*
D15*
X340700000Y-101600000D03*
X342700000Y-101600000D03*
%TD*%
D21*
%TO.C,J201*%
X370560000Y-106020000D03*
X364780000Y-106020000D03*
D22*
X371990000Y-106540000D03*
D23*
X371990000Y-102340000D03*
D22*
X363350000Y-106540000D03*
D23*
X363350000Y-102340000D03*
%TD*%
D24*
%TO.C,J301*%
X247190000Y-296050000D03*
D25*
X247190000Y-293510000D03*
X249730000Y-296050000D03*
X249730000Y-293510000D03*
X252270000Y-296050000D03*
X252270000Y-293510000D03*
X254810000Y-296050000D03*
X254810000Y-293510000D03*
X257350000Y-296050000D03*
X257350000Y-293510000D03*
%TD*%
D13*
%TO.C,SW402*%
X324050000Y-101700000D03*
X332250000Y-101700000D03*
D14*
X326150000Y-101700000D03*
D15*
X328150000Y-101700000D03*
X330150000Y-101700000D03*
%TD*%
D26*
%TO.C,J501*%
X208866000Y-186146000D03*
X208866000Y-197576000D03*
D27*
X205486000Y-198186000D03*
X203966000Y-195646000D03*
X205486000Y-188076000D03*
X203966000Y-185536000D03*
D28*
X215206000Y-187416000D03*
D29*
X217746000Y-188686000D03*
X215206000Y-189956000D03*
X217746000Y-191226000D03*
X215206000Y-192496000D03*
X217746000Y-193766000D03*
X215206000Y-195036000D03*
X217746000Y-196306000D03*
D30*
X211916000Y-184086000D03*
X211916000Y-199636000D03*
%TD*%
D13*
%TO.C,SW301*%
X270930000Y-295307500D03*
X279130000Y-295307500D03*
D14*
X273030000Y-295307500D03*
D15*
X275030000Y-295307500D03*
X277030000Y-295307500D03*
%TD*%
D19*
%TO.C,J401*%
X392760000Y-179010000D03*
D20*
X390220000Y-176470000D03*
X390220000Y-181550000D03*
X395300000Y-176470000D03*
X395300000Y-181550000D03*
%TD*%
D31*
%TO.C,SW201*%
X201697500Y-166500000D03*
X201697500Y-158300000D03*
D32*
X201697500Y-164400000D03*
D33*
X201697500Y-162400000D03*
X201697500Y-160400000D03*
%TD*%
D34*
%TO.C,J203*%
X264000000Y-102950000D03*
D18*
X269000000Y-102950000D03*
%TD*%
D19*
%TO.C,J402*%
X392370000Y-209390000D03*
D20*
X389830000Y-206850000D03*
X389830000Y-211930000D03*
X394910000Y-206850000D03*
X394910000Y-211930000D03*
%TD*%
D16*
%TO.C,H303*%
X394300000Y-295600000D03*
%TD*%
%TO.C,H301*%
X200300000Y-101600000D03*
%TD*%
%TO.C,H302*%
X394300000Y-101600000D03*
%TD*%
D35*
%TO.C,C431*%
X357062500Y-175200000D03*
X355337500Y-175200000D03*
%TD*%
D36*
%TO.C,C503*%
X269514120Y-234141120D03*
X270733880Y-235360880D03*
%TD*%
D37*
%TO.C,C510*%
X269859000Y-226800000D03*
X271078760Y-225580240D03*
%TD*%
D38*
%TO.C,R504*%
X271393765Y-233592765D03*
X272684235Y-234883235D03*
%TD*%
M02*
