%TF.GenerationSoftware,KiCad,Pcbnew,9.0.2*%
%TF.CreationDate,2025-11-29T14:49:54-06:00*%
%TF.ProjectId,VNA_Project,564e415f-5072-46f6-9a65-63742e6b6963,rev?*%
%TF.SameCoordinates,Original*%
%TF.FileFunction,Paste,Top*%
%TF.FilePolarity,Positive*%
%FSLAX46Y46*%
G04 Gerber Fmt 4.6, Leading zero omitted, Abs format (unit mm)*
G04 Created by KiCad (PCBNEW 9.0.2) date 2025-11-29 14:49:54*
%MOMM*%
%LPD*%
G01*
G04 APERTURE LIST*
G04 Aperture macros list*
%AMRoundRect*
0 Rectangle with rounded corners*
0 $1 Rounding radius*
0 $2 $3 $4 $5 $6 $7 $8 $9 X,Y pos of 4 corners*
0 Add a 4 corners polygon primitive as box body*
4,1,4,$2,$3,$4,$5,$6,$7,$8,$9,$2,$3,0*
0 Add four circle primitives for the rounded corners*
1,1,$1+$1,$2,$3*
1,1,$1+$1,$4,$5*
1,1,$1+$1,$6,$7*
1,1,$1+$1,$8,$9*
0 Add four rect primitives between the rounded corners*
20,1,$1+$1,$2,$3,$4,$5,0*
20,1,$1+$1,$4,$5,$6,$7,0*
20,1,$1+$1,$6,$7,$8,$9,0*
20,1,$1+$1,$8,$9,$2,$3,0*%
%AMFreePoly0*
4,1,9,5.362500,-0.866500,1.237500,-0.866500,1.237500,-0.450000,-1.237500,-0.450000,-1.237500,0.450000,1.237500,0.450000,1.237500,0.866500,5.362500,0.866500,5.362500,-0.866500,5.362500,-0.866500,$1*%
G04 Aperture macros list end*
%ADD10C,0.128000*%
%ADD11C,0.010000*%
%ADD12RoundRect,0.225000X-0.250000X0.225000X-0.250000X-0.225000X0.250000X-0.225000X0.250000X0.225000X0*%
%ADD13RoundRect,0.225000X0.225000X0.250000X-0.225000X0.250000X-0.225000X-0.250000X0.225000X-0.250000X0*%
%ADD14RoundRect,0.237500X0.044194X0.380070X-0.380070X-0.044194X-0.044194X-0.380070X0.380070X0.044194X0*%
%ADD15RoundRect,0.250000X-0.475000X0.250000X-0.475000X-0.250000X0.475000X-0.250000X0.475000X0.250000X0*%
%ADD16RoundRect,0.250000X0.475000X-0.250000X0.475000X0.250000X-0.475000X0.250000X-0.475000X-0.250000X0*%
%ADD17RoundRect,0.237500X-0.300000X-0.237500X0.300000X-0.237500X0.300000X0.237500X-0.300000X0.237500X0*%
%ADD18RoundRect,0.237500X0.300000X0.237500X-0.300000X0.237500X-0.300000X-0.237500X0.300000X-0.237500X0*%
%ADD19RoundRect,0.162500X0.551543X-0.321734X-0.321734X0.551543X-0.551543X0.321734X0.321734X-0.551543X0*%
%ADD20RoundRect,0.237500X0.344715X-0.008839X-0.008839X0.344715X-0.344715X0.008839X0.008839X-0.344715X0*%
%ADD21RoundRect,0.237500X-0.287500X-0.237500X0.287500X-0.237500X0.287500X0.237500X-0.287500X0.237500X0*%
%ADD22RoundRect,0.237500X-0.008839X-0.344715X0.344715X0.008839X0.008839X0.344715X-0.344715X-0.008839X0*%
%ADD23RoundRect,0.237500X0.008839X0.344715X-0.344715X-0.008839X-0.008839X-0.344715X0.344715X0.008839X0*%
%ADD24RoundRect,0.237500X-0.344715X0.008839X0.008839X-0.344715X0.344715X-0.008839X-0.008839X0.344715X0*%
%ADD25RoundRect,0.237500X-0.237500X0.300000X-0.237500X-0.300000X0.237500X-0.300000X0.237500X0.300000X0*%
%ADD26RoundRect,0.237500X-0.237500X0.250000X-0.237500X-0.250000X0.237500X-0.250000X0.237500X0.250000X0*%
%ADD27RoundRect,0.237500X-0.044194X-0.380070X0.380070X0.044194X0.044194X0.380070X-0.380070X-0.044194X0*%
%ADD28R,0.609600X1.016000*%
%ADD29RoundRect,0.237500X-0.250000X-0.237500X0.250000X-0.237500X0.250000X0.237500X-0.250000X0.237500X0*%
%ADD30R,1.981200X0.558800*%
%ADD31RoundRect,0.250000X-0.250000X-0.475000X0.250000X-0.475000X0.250000X0.475000X-0.250000X0.475000X0*%
%ADD32RoundRect,0.237500X0.237500X-0.250000X0.237500X0.250000X-0.237500X0.250000X-0.237500X-0.250000X0*%
%ADD33RoundRect,0.237500X0.250000X0.237500X-0.250000X0.237500X-0.250000X-0.237500X0.250000X-0.237500X0*%
%ADD34RoundRect,0.237500X0.380070X-0.044194X-0.044194X0.380070X-0.380070X0.044194X0.044194X-0.380070X0*%
%ADD35R,0.355600X1.473200*%
%ADD36RoundRect,0.162500X-0.837500X-0.162500X0.837500X-0.162500X0.837500X0.162500X-0.837500X0.162500X0*%
%ADD37RoundRect,0.237500X0.237500X-0.300000X0.237500X0.300000X-0.237500X0.300000X-0.237500X-0.300000X0*%
%ADD38RoundRect,0.032500X-0.417500X-0.097500X0.417500X-0.097500X0.417500X0.097500X-0.417500X0.097500X0*%
%ADD39RoundRect,0.032500X-0.097500X-0.417500X0.097500X-0.417500X0.097500X0.417500X-0.097500X0.417500X0*%
%ADD40R,0.600000X1.240000*%
%ADD41R,0.300000X1.240000*%
%ADD42RoundRect,0.162500X-0.617500X-0.162500X0.617500X-0.162500X0.617500X0.162500X-0.617500X0.162500X0*%
%ADD43R,1.257300X0.482600*%
%ADD44RoundRect,0.250000X0.250000X0.475000X-0.250000X0.475000X-0.250000X-0.475000X0.250000X-0.475000X0*%
%ADD45RoundRect,0.250000X-0.600000X-2.600000X0.600000X-2.600000X0.600000X2.600000X-0.600000X2.600000X0*%
%ADD46RoundRect,0.200000X-0.035355X-0.318198X0.318198X0.035355X0.035355X0.318198X-0.318198X-0.035355X0*%
%ADD47RoundRect,0.075000X-0.725000X-0.075000X0.725000X-0.075000X0.725000X0.075000X-0.725000X0.075000X0*%
%ADD48RoundRect,0.075000X-0.075000X-0.725000X0.075000X-0.725000X0.075000X0.725000X-0.075000X0.725000X0*%
%ADD49RoundRect,0.250000X-2.600000X0.600000X-2.600000X-0.600000X2.600000X-0.600000X2.600000X0.600000X0*%
%ADD50RoundRect,0.237500X-0.035355X-0.371231X0.371231X0.035355X0.035355X0.371231X-0.371231X-0.035355X0*%
%ADD51RoundRect,0.225000X0.925000X0.225000X-0.925000X0.225000X-0.925000X-0.225000X0.925000X-0.225000X0*%
%ADD52FreePoly0,180.000000*%
%ADD53RoundRect,0.250000X0.000000X-0.360624X0.360624X0.000000X0.000000X0.360624X-0.360624X0.000000X0*%
%ADD54RoundRect,0.062500X-0.220971X-0.309359X0.309359X0.220971X0.220971X0.309359X-0.309359X-0.220971X0*%
%ADD55RoundRect,0.062500X0.220971X-0.309359X0.309359X-0.220971X-0.220971X0.309359X-0.309359X0.220971X0*%
%ADD56RoundRect,0.237500X0.287500X0.237500X-0.287500X0.237500X-0.287500X-0.237500X0.287500X-0.237500X0*%
%ADD57RoundRect,0.162500X-0.162500X0.617500X-0.162500X-0.617500X0.162500X-0.617500X0.162500X0.617500X0*%
%ADD58R,1.473200X0.228600*%
%ADD59R,0.228600X1.473200*%
G04 APERTURE END LIST*
%TO.C,D301*%
D10*
X243687000Y-296500000D02*
G75*
G02*
X243559000Y-296500000I-64000J0D01*
G01*
X243559000Y-296500000D02*
G75*
G02*
X243687000Y-296500000I64000J0D01*
G01*
X244103000Y-296500000D02*
G75*
G02*
X243975000Y-296500000I-64000J0D01*
G01*
X243975000Y-296500000D02*
G75*
G02*
X244103000Y-296500000I64000J0D01*
G01*
%TO.C,D304*%
X252441000Y-291275000D02*
G75*
G02*
X252313000Y-291275000I-64000J0D01*
G01*
X252313000Y-291275000D02*
G75*
G02*
X252441000Y-291275000I64000J0D01*
G01*
X252857000Y-291275000D02*
G75*
G02*
X252729000Y-291275000I-64000J0D01*
G01*
X252729000Y-291275000D02*
G75*
G02*
X252857000Y-291275000I64000J0D01*
G01*
D11*
%TO.C,U206*%
X273265000Y-120950000D02*
X271965000Y-120950000D01*
X271965000Y-119650000D01*
X273265000Y-119650000D01*
X273265000Y-120950000D01*
G36*
X273265000Y-120950000D02*
G01*
X271965000Y-120950000D01*
X271965000Y-119650000D01*
X273265000Y-119650000D01*
X273265000Y-120950000D01*
G37*
%TO.C,D302*%
D10*
X244471000Y-293400000D02*
G75*
G02*
X244343000Y-293400000I-64000J0D01*
G01*
X244343000Y-293400000D02*
G75*
G02*
X244471000Y-293400000I64000J0D01*
G01*
X244887000Y-293400000D02*
G75*
G02*
X244759000Y-293400000I-64000J0D01*
G01*
X244759000Y-293400000D02*
G75*
G02*
X244887000Y-293400000I64000J0D01*
G01*
%TO.C,D303*%
X249926000Y-291275000D02*
G75*
G02*
X249798000Y-291275000I-64000J0D01*
G01*
X249798000Y-291275000D02*
G75*
G02*
X249926000Y-291275000I64000J0D01*
G01*
X250342000Y-291275000D02*
G75*
G02*
X250214000Y-291275000I-64000J0D01*
G01*
X250214000Y-291275000D02*
G75*
G02*
X250342000Y-291275000I64000J0D01*
G01*
%TO.C,D305*%
X257501000Y-291160000D02*
G75*
G02*
X257373000Y-291160000I-64000J0D01*
G01*
X257373000Y-291160000D02*
G75*
G02*
X257501000Y-291160000I64000J0D01*
G01*
X257917000Y-291160000D02*
G75*
G02*
X257789000Y-291160000I-64000J0D01*
G01*
X257789000Y-291160000D02*
G75*
G02*
X257917000Y-291160000I64000J0D01*
G01*
%TD*%
D12*
%TO.C,C222*%
X267200000Y-115625000D03*
X267200000Y-117175000D03*
%TD*%
D13*
%TO.C,C221*%
X272575000Y-125600000D03*
X271025000Y-125600000D03*
%TD*%
%TO.C,C207*%
X248975000Y-113750000D03*
X247425000Y-113750000D03*
%TD*%
%TO.C,C204*%
X228625000Y-114150000D03*
X227075000Y-114150000D03*
%TD*%
%TO.C,C203*%
X372835000Y-109800000D03*
X371285000Y-109800000D03*
%TD*%
D14*
%TO.C,C502*%
X261539880Y-239220120D03*
X260320120Y-240439880D03*
%TD*%
D15*
%TO.C,C226*%
X286750000Y-116250000D03*
X286750000Y-118150000D03*
%TD*%
D16*
%TO.C,C206*%
X217100000Y-117000000D03*
X217100000Y-115100000D03*
%TD*%
D17*
%TO.C,C310*%
X310000000Y-184850000D03*
X311725000Y-184850000D03*
%TD*%
D18*
%TO.C,C414*%
X335192500Y-183850000D03*
X333467500Y-183850000D03*
%TD*%
%TO.C,C421*%
X355272500Y-182150000D03*
X353547500Y-182150000D03*
%TD*%
D19*
%TO.C,U502*%
X256492843Y-221566346D03*
X257164594Y-220894594D03*
X257836346Y-220222843D03*
X255927157Y-218313654D03*
X255255406Y-218985406D03*
X254583654Y-219657157D03*
%TD*%
D20*
%TO.C,R506*%
X260924235Y-222444235D03*
X259633765Y-221153765D03*
%TD*%
D21*
%TO.C,D206*%
X199575000Y-271700000D03*
X201325000Y-271700000D03*
%TD*%
D22*
%TO.C,R417*%
X366904765Y-170805235D03*
X368195235Y-169514765D03*
%TD*%
D21*
%TO.C,D309*%
X199550000Y-240450000D03*
X201300000Y-240450000D03*
%TD*%
D23*
%TO.C,R507*%
X256143235Y-215176765D03*
X254852765Y-216467235D03*
%TD*%
D14*
%TO.C,C501*%
X256989880Y-234500120D03*
X255770120Y-235719880D03*
%TD*%
D24*
%TO.C,R505*%
X258764765Y-227564765D03*
X260055235Y-228855235D03*
%TD*%
D25*
%TO.C,C411*%
X369310000Y-204717500D03*
X369310000Y-206442500D03*
%TD*%
D26*
%TO.C,R308*%
X253612500Y-284337500D03*
X253612500Y-286162500D03*
%TD*%
%TO.C,R414*%
X365200000Y-208870000D03*
X365200000Y-210695000D03*
%TD*%
D27*
%TO.C,C303*%
X308790120Y-201209880D03*
X310009880Y-199990120D03*
%TD*%
D28*
%TO.C,LED301*%
X199600000Y-252351700D03*
X199600000Y-250548300D03*
X200550000Y-250548300D03*
X200550000Y-252351700D03*
%TD*%
D29*
%TO.C,R322*%
X199477500Y-242180000D03*
X201302500Y-242180000D03*
%TD*%
D18*
%TO.C,C426*%
X355280000Y-185515000D03*
X353555000Y-185515000D03*
%TD*%
D15*
%TO.C,C223*%
X212250000Y-128750000D03*
X212250000Y-130650000D03*
%TD*%
D17*
%TO.C,C419*%
X353527500Y-178650000D03*
X355252500Y-178650000D03*
%TD*%
D30*
%TO.C,U301*%
X283546200Y-239355000D03*
X283546200Y-240625000D03*
X283546200Y-241895000D03*
X283546200Y-243165000D03*
X288473800Y-243165000D03*
X288473800Y-241895000D03*
X288473800Y-240625000D03*
X288473800Y-239355000D03*
%TD*%
D29*
%TO.C,R304*%
X276402751Y-242520334D03*
X278227751Y-242520334D03*
%TD*%
D27*
%TO.C,C509*%
X268575120Y-225359880D03*
X269794880Y-224140120D03*
%TD*%
D21*
%TO.C,D306*%
X199425000Y-228700000D03*
X201175000Y-228700000D03*
%TD*%
D26*
%TO.C,R210*%
X268650000Y-121387500D03*
X268650000Y-123212500D03*
%TD*%
D18*
%TO.C,C305*%
X284462500Y-187600000D03*
X282737500Y-187600000D03*
%TD*%
D21*
%TO.C,FB401*%
X342610000Y-171410000D03*
X344360000Y-171410000D03*
%TD*%
D29*
%TO.C,R305*%
X285987500Y-189650000D03*
X287812500Y-189650000D03*
%TD*%
D22*
%TO.C,R508*%
X254155765Y-224357235D03*
X255446235Y-223066765D03*
%TD*%
D31*
%TO.C,C209*%
X246200000Y-123020000D03*
X248100000Y-123020000D03*
%TD*%
D32*
%TO.C,R404*%
X372880000Y-205362500D03*
X372880000Y-203537500D03*
%TD*%
D33*
%TO.C,R321*%
X307662500Y-284400000D03*
X305837500Y-284400000D03*
%TD*%
D14*
%TO.C,C301*%
X277053814Y-192640120D03*
X275834054Y-193859880D03*
%TD*%
D17*
%TO.C,C505*%
X264057500Y-237640000D03*
X265782500Y-237640000D03*
%TD*%
D34*
%TO.C,C511*%
X264869760Y-221590000D03*
X263650000Y-220370240D03*
%TD*%
D35*
%TO.C,U305*%
X306412502Y-282050000D03*
X307062500Y-282050000D03*
X307712502Y-282050000D03*
X308362500Y-282050000D03*
X308362500Y-276208000D03*
X307712502Y-276208000D03*
X307062500Y-276208000D03*
X306412502Y-276208000D03*
%TD*%
D25*
%TO.C,C312*%
X304900000Y-202837500D03*
X304900000Y-204562500D03*
%TD*%
D21*
%TO.C,D204*%
X199675000Y-279600000D03*
X201425000Y-279600000D03*
%TD*%
%TO.C,D201*%
X199637500Y-267550000D03*
X201387500Y-267550000D03*
%TD*%
D16*
%TO.C,C215*%
X258900000Y-157150000D03*
X258900000Y-155250000D03*
%TD*%
D36*
%TO.C,U201*%
X223440000Y-116350000D03*
X223440000Y-117300000D03*
X223440000Y-118250000D03*
X226860000Y-118250000D03*
X226860000Y-117300000D03*
X226860000Y-116350000D03*
%TD*%
D18*
%TO.C,C403*%
X385462500Y-174860000D03*
X383737500Y-174860000D03*
%TD*%
D25*
%TO.C,C407*%
X346220000Y-189247500D03*
X346220000Y-190972500D03*
%TD*%
D17*
%TO.C,C306*%
X257737500Y-284400000D03*
X259462500Y-284400000D03*
%TD*%
D37*
%TO.C,C413*%
X374840000Y-205362500D03*
X374840000Y-203637500D03*
%TD*%
D32*
%TO.C,R406*%
X381450000Y-201972500D03*
X381450000Y-200147500D03*
%TD*%
D21*
%TO.C,D205*%
X199625000Y-275750000D03*
X201375000Y-275750000D03*
%TD*%
D29*
%TO.C,R312*%
X268375000Y-144450000D03*
X270200000Y-144450000D03*
%TD*%
%TO.C,R317*%
X199337500Y-230400000D03*
X201162500Y-230400000D03*
%TD*%
D38*
%TO.C,U206*%
X270930000Y-121050000D03*
D39*
X271615000Y-121985000D03*
X272115000Y-121985000D03*
X272615000Y-121985000D03*
X273115000Y-121985000D03*
X273615000Y-121985000D03*
D38*
X274300000Y-121050000D03*
X274300000Y-119550000D03*
D39*
X273615000Y-118615000D03*
X273115000Y-118615000D03*
X272615000Y-118615000D03*
X272115000Y-118615000D03*
X271615000Y-118615000D03*
D38*
X270930000Y-119550000D03*
%TD*%
D40*
%TO.C,J201*%
X370870000Y-107140000D03*
X370070000Y-107140000D03*
D41*
X368920000Y-107140000D03*
X367920000Y-107140000D03*
X367420000Y-107140000D03*
X366420000Y-107140000D03*
D40*
X365270000Y-107140000D03*
X364470000Y-107140000D03*
X364470000Y-107140000D03*
X365270000Y-107140000D03*
D41*
X365920000Y-107140000D03*
X366920000Y-107140000D03*
X368420000Y-107140000D03*
X369420000Y-107140000D03*
D40*
X370070000Y-107140000D03*
X370870000Y-107140000D03*
%TD*%
D31*
%TO.C,C224*%
X277750000Y-117300000D03*
X279650000Y-117300000D03*
%TD*%
D18*
%TO.C,C315*%
X288212500Y-194000000D03*
X286487500Y-194000000D03*
%TD*%
D42*
%TO.C,U205*%
X238700000Y-141800000D03*
X238700000Y-142750000D03*
X238700000Y-143700000D03*
X241400000Y-143700000D03*
X241400000Y-141800000D03*
%TD*%
D26*
%TO.C,R510*%
X201342000Y-203091500D03*
X201342000Y-204916500D03*
%TD*%
D31*
%TO.C,C218*%
X277600000Y-129820000D03*
X279500000Y-129820000D03*
%TD*%
D25*
%TO.C,C404*%
X377560000Y-204707500D03*
X377560000Y-206432500D03*
%TD*%
D43*
%TO.C,U402*%
X376302550Y-211675000D03*
X376302550Y-210405000D03*
X376302550Y-209135000D03*
X376302550Y-207865000D03*
X371057450Y-207865000D03*
X371057450Y-209135000D03*
X371057450Y-210405000D03*
X371057450Y-211675000D03*
%TD*%
D29*
%TO.C,R203*%
X199537500Y-265750000D03*
X201362500Y-265750000D03*
%TD*%
D44*
%TO.C,C214*%
X229000000Y-122500000D03*
X227100000Y-122500000D03*
%TD*%
D33*
%TO.C,R324*%
X204262500Y-253051700D03*
X202437500Y-253051700D03*
%TD*%
D37*
%TO.C,C408*%
X375740000Y-183032500D03*
X375740000Y-181307500D03*
%TD*%
D43*
%TO.C,U401*%
X382042550Y-179905000D03*
X382042550Y-178635000D03*
X382042550Y-177365000D03*
X382042550Y-176095000D03*
X376797450Y-176095000D03*
X376797450Y-177365000D03*
X376797450Y-178635000D03*
X376797450Y-179905000D03*
%TD*%
D15*
%TO.C,C225*%
X286450000Y-121050000D03*
X286450000Y-122950000D03*
%TD*%
D33*
%TO.C,R325*%
X204262500Y-249901700D03*
X202437500Y-249901700D03*
%TD*%
%TO.C,R326*%
X204312500Y-251451700D03*
X202487500Y-251451700D03*
%TD*%
D18*
%TO.C,C307*%
X284575000Y-185900000D03*
X282850000Y-185900000D03*
%TD*%
D31*
%TO.C,C219*%
X277650000Y-125600000D03*
X279550000Y-125600000D03*
%TD*%
D29*
%TO.C,R205*%
X223050000Y-114150000D03*
X224875000Y-114150000D03*
%TD*%
D45*
%TO.C,L201*%
X231050000Y-115000000D03*
X235550000Y-115000000D03*
%TD*%
D32*
%TO.C,R402*%
X386600000Y-214252500D03*
X386600000Y-212427500D03*
%TD*%
D46*
%TO.C,Y501*%
X259051502Y-236895283D03*
X260041451Y-235905334D03*
X259263634Y-235127517D03*
X258273685Y-236117466D03*
%TD*%
D29*
%TO.C,R209*%
X199515000Y-273920000D03*
X201340000Y-273920000D03*
%TD*%
D17*
%TO.C,C311*%
X308337500Y-182500000D03*
X310062500Y-182500000D03*
%TD*%
D47*
%TO.C,U303*%
X291525000Y-183900000D03*
X291525000Y-184400000D03*
X291525000Y-184900000D03*
X291525000Y-185400000D03*
X291525000Y-185900000D03*
X291525000Y-186400000D03*
X291525000Y-186900000D03*
X291525000Y-187400000D03*
X291525000Y-187900000D03*
X291525000Y-188400000D03*
X291525000Y-188900000D03*
X291525000Y-189400000D03*
X291525000Y-189900000D03*
X291525000Y-190400000D03*
X291525000Y-190900000D03*
X291525000Y-191400000D03*
X291525000Y-191900000D03*
X291525000Y-192400000D03*
X291525000Y-192900000D03*
X291525000Y-193400000D03*
X291525000Y-193900000D03*
X291525000Y-194400000D03*
X291525000Y-194900000D03*
X291525000Y-195400000D03*
X291525000Y-195900000D03*
D48*
X293200000Y-197575000D03*
X293700000Y-197575000D03*
X294200000Y-197575000D03*
X294700000Y-197575000D03*
X295200000Y-197575000D03*
X295700000Y-197575000D03*
X296200000Y-197575000D03*
X296700000Y-197575000D03*
X297200000Y-197575000D03*
X297700000Y-197575000D03*
X298200000Y-197575000D03*
X298700000Y-197575000D03*
X299200000Y-197575000D03*
X299700000Y-197575000D03*
X300200000Y-197575000D03*
X300700000Y-197575000D03*
X301200000Y-197575000D03*
X301700000Y-197575000D03*
X302200000Y-197575000D03*
X302700000Y-197575000D03*
X303200000Y-197575000D03*
X303700000Y-197575000D03*
X304200000Y-197575000D03*
X304700000Y-197575000D03*
X305200000Y-197575000D03*
D47*
X306875000Y-195900000D03*
X306875000Y-195400000D03*
X306875000Y-194900000D03*
X306875000Y-194400000D03*
X306875000Y-193900000D03*
X306875000Y-193400000D03*
X306875000Y-192900000D03*
X306875000Y-192400000D03*
X306875000Y-191900000D03*
X306875000Y-191400000D03*
X306875000Y-190900000D03*
X306875000Y-190400000D03*
X306875000Y-189900000D03*
X306875000Y-189400000D03*
X306875000Y-188900000D03*
X306875000Y-188400000D03*
X306875000Y-187900000D03*
X306875000Y-187400000D03*
X306875000Y-186900000D03*
X306875000Y-186400000D03*
X306875000Y-185900000D03*
X306875000Y-185400000D03*
X306875000Y-184900000D03*
X306875000Y-184400000D03*
X306875000Y-183900000D03*
D48*
X305200000Y-182225000D03*
X304700000Y-182225000D03*
X304200000Y-182225000D03*
X303700000Y-182225000D03*
X303200000Y-182225000D03*
X302700000Y-182225000D03*
X302200000Y-182225000D03*
X301700000Y-182225000D03*
X301200000Y-182225000D03*
X300700000Y-182225000D03*
X300200000Y-182225000D03*
X299700000Y-182225000D03*
X299200000Y-182225000D03*
X298700000Y-182225000D03*
X298200000Y-182225000D03*
X297700000Y-182225000D03*
X297200000Y-182225000D03*
X296700000Y-182225000D03*
X296200000Y-182225000D03*
X295700000Y-182225000D03*
X295200000Y-182225000D03*
X294700000Y-182225000D03*
X294200000Y-182225000D03*
X293700000Y-182225000D03*
X293200000Y-182225000D03*
%TD*%
D15*
%TO.C,C228*%
X296470000Y-114950000D03*
X296470000Y-116850000D03*
%TD*%
D20*
%TO.C,R503*%
X269507235Y-239051235D03*
X268216765Y-237760765D03*
%TD*%
D29*
%TO.C,R318*%
X199312500Y-234250000D03*
X201137500Y-234250000D03*
%TD*%
D25*
%TO.C,C427*%
X344020000Y-194407500D03*
X344020000Y-196132500D03*
%TD*%
D37*
%TO.C,C409*%
X369260000Y-214662500D03*
X369260000Y-212937500D03*
%TD*%
D23*
%TO.C,R501*%
X261726686Y-236670099D03*
X260436216Y-237960569D03*
%TD*%
D49*
%TO.C,L202*%
X241850000Y-155750000D03*
X241850000Y-160250000D03*
%TD*%
D17*
%TO.C,C422*%
X353557500Y-187480000D03*
X355282500Y-187480000D03*
%TD*%
D50*
%TO.C,FB501*%
X261182733Y-232684052D03*
X262420169Y-231446616D03*
%TD*%
D26*
%TO.C,R214*%
X282200000Y-119437500D03*
X282200000Y-121262500D03*
%TD*%
D30*
%TO.C,U302*%
X273186200Y-141695000D03*
X273186200Y-142965000D03*
X273186200Y-144235000D03*
X273186200Y-145505000D03*
X278113800Y-145505000D03*
X278113800Y-144235000D03*
X278113800Y-142965000D03*
X278113800Y-141695000D03*
%TD*%
D27*
%TO.C,C309*%
X307290120Y-199609880D03*
X308509880Y-198390120D03*
%TD*%
D26*
%TO.C,R212*%
X281350000Y-114987500D03*
X281350000Y-116812500D03*
%TD*%
D29*
%TO.C,R410*%
X352350000Y-207670000D03*
X354175000Y-207670000D03*
%TD*%
D15*
%TO.C,C230*%
X290450000Y-114950000D03*
X290450000Y-116850000D03*
%TD*%
D25*
%TO.C,C316*%
X200075000Y-255025000D03*
X200075000Y-256750000D03*
%TD*%
%TO.C,C429*%
X364600000Y-183297500D03*
X364600000Y-185022500D03*
%TD*%
D18*
%TO.C,C428*%
X354122500Y-209310000D03*
X352397500Y-209310000D03*
%TD*%
D37*
%TO.C,C313*%
X291300000Y-181362500D03*
X291300000Y-179637500D03*
%TD*%
D27*
%TO.C,C508*%
X266110000Y-222650000D03*
X267329760Y-221430240D03*
%TD*%
D14*
%TO.C,C506*%
X261271331Y-230325454D03*
X260051571Y-231545214D03*
%TD*%
D37*
%TO.C,C418*%
X337840000Y-175952500D03*
X337840000Y-174227500D03*
%TD*%
D21*
%TO.C,D202*%
X199650000Y-283550000D03*
X201400000Y-283550000D03*
%TD*%
D32*
%TO.C,R409*%
X355150000Y-194475000D03*
X355150000Y-192650000D03*
%TD*%
D26*
%TO.C,R309*%
X255562500Y-284337500D03*
X255562500Y-286162500D03*
%TD*%
D36*
%TO.C,U202*%
X243890000Y-115750000D03*
X243890000Y-116700000D03*
X243890000Y-117650000D03*
X247310000Y-117650000D03*
X247310000Y-116700000D03*
X247310000Y-115750000D03*
%TD*%
D51*
%TO.C,U204*%
X255750000Y-161050000D03*
D52*
X255662500Y-159550000D03*
D51*
X255750000Y-158050000D03*
%TD*%
D30*
%TO.C,U304*%
X332280000Y-193350000D03*
X332280000Y-194620000D03*
X332280000Y-195890000D03*
X332280000Y-197160000D03*
X337207600Y-197160000D03*
X337207600Y-195890000D03*
X337207600Y-194620000D03*
X337207600Y-193350000D03*
%TD*%
D17*
%TO.C,C416*%
X384267500Y-180450000D03*
X385992500Y-180450000D03*
%TD*%
D21*
%TO.C,D310*%
X199550000Y-245800000D03*
X201300000Y-245800000D03*
%TD*%
D25*
%TO.C,C410*%
X374870000Y-173017500D03*
X374870000Y-174742500D03*
%TD*%
D49*
%TO.C,L203*%
X254000000Y-112900000D03*
X254000000Y-117400000D03*
%TD*%
D46*
%TO.C,Y301*%
X278393934Y-191200000D03*
X279383883Y-190210051D03*
X278606066Y-189432234D03*
X277616117Y-190422183D03*
%TD*%
D29*
%TO.C,R208*%
X199577500Y-277750000D03*
X201402500Y-277750000D03*
%TD*%
D53*
%TO.C,U501*%
X265633685Y-230865334D03*
X266517568Y-231749217D03*
X266517568Y-229981451D03*
X267401451Y-230865334D03*
D54*
X264263665Y-231351470D03*
X264617219Y-231705023D03*
X264970772Y-232058577D03*
X265324325Y-232412130D03*
X265677879Y-232765683D03*
X266031432Y-233119237D03*
D55*
X267003704Y-233119237D03*
X267357257Y-232765683D03*
X267710811Y-232412130D03*
X268064364Y-232058577D03*
X268417917Y-231705023D03*
X268771471Y-231351470D03*
D54*
X268771471Y-230379198D03*
X268417917Y-230025645D03*
X268064364Y-229672091D03*
X267710811Y-229318538D03*
X267357257Y-228964985D03*
X267003704Y-228611431D03*
D55*
X266031432Y-228611431D03*
X265677879Y-228964985D03*
X265324325Y-229318538D03*
X264970772Y-229672091D03*
X264617219Y-230025645D03*
X264263665Y-230379198D03*
%TD*%
D29*
%TO.C,R315*%
X326981300Y-194265000D03*
X328806300Y-194265000D03*
%TD*%
D37*
%TO.C,C402*%
X348550000Y-176972500D03*
X348550000Y-175247500D03*
%TD*%
D16*
%TO.C,C212*%
X247500000Y-157040000D03*
X247500000Y-155140000D03*
%TD*%
D29*
%TO.C,R206*%
X199602500Y-281560000D03*
X201427500Y-281560000D03*
%TD*%
%TO.C,R323*%
X199497500Y-247640000D03*
X201322500Y-247640000D03*
%TD*%
D45*
%TO.C,L204*%
X272850000Y-111850000D03*
X277350000Y-111850000D03*
%TD*%
D18*
%TO.C,C423*%
X333162500Y-181980000D03*
X331437500Y-181980000D03*
%TD*%
D30*
%TO.C,U404*%
X356876200Y-207825000D03*
X356876200Y-209095000D03*
X356876200Y-210365000D03*
X356876200Y-211635000D03*
X361803800Y-211635000D03*
X361803800Y-210365000D03*
X361803800Y-209095000D03*
X361803800Y-207825000D03*
%TD*%
D32*
%TO.C,R204*%
X219300000Y-117112500D03*
X219300000Y-115287500D03*
%TD*%
D31*
%TO.C,C202*%
X242300000Y-119750000D03*
X244200000Y-119750000D03*
%TD*%
%TO.C,C213*%
X246200000Y-120700000D03*
X248100000Y-120700000D03*
%TD*%
D34*
%TO.C,C304*%
X277203814Y-188209880D03*
X275984054Y-186990120D03*
%TD*%
D29*
%TO.C,R215*%
X199552500Y-269740000D03*
X201377500Y-269740000D03*
%TD*%
%TO.C,R303*%
X276402751Y-240820334D03*
X278227751Y-240820334D03*
%TD*%
D26*
%TO.C,R302*%
X274950000Y-289350000D03*
X274950000Y-291175000D03*
%TD*%
D21*
%TO.C,D308*%
X199477500Y-236740000D03*
X201227500Y-236740000D03*
%TD*%
D26*
%TO.C,R201*%
X373890000Y-105137500D03*
X373890000Y-106962500D03*
%TD*%
D15*
%TO.C,C229*%
X293460000Y-114950000D03*
X293460000Y-116850000D03*
%TD*%
D56*
%TO.C,FB402*%
X344340000Y-173300000D03*
X342590000Y-173300000D03*
%TD*%
D29*
%TO.C,R512*%
X205056500Y-182167000D03*
X206881500Y-182167000D03*
%TD*%
D26*
%TO.C,R306*%
X249462500Y-284337500D03*
X249462500Y-286162500D03*
%TD*%
D23*
%TO.C,R408*%
X383935235Y-203904765D03*
X382644765Y-205195235D03*
%TD*%
D27*
%TO.C,C507*%
X267210000Y-223830000D03*
X268429760Y-222610240D03*
%TD*%
D57*
%TO.C,U203*%
X368720000Y-113400000D03*
X367770000Y-113400000D03*
X366820000Y-113400000D03*
X366820000Y-116100000D03*
X367770000Y-116100000D03*
X368720000Y-116100000D03*
%TD*%
D37*
%TO.C,C302*%
X289200000Y-181362500D03*
X289200000Y-179637500D03*
%TD*%
D25*
%TO.C,C308*%
X293150000Y-199887500D03*
X293150000Y-201612500D03*
%TD*%
D18*
%TO.C,C430*%
X362750000Y-182470000D03*
X361025000Y-182470000D03*
%TD*%
D33*
%TO.C,R413*%
X360710000Y-174770000D03*
X358885000Y-174770000D03*
%TD*%
D29*
%TO.C,R310*%
X268387500Y-140800000D03*
X270212500Y-140800000D03*
%TD*%
D44*
%TO.C,C220*%
X272750000Y-128050000D03*
X270850000Y-128050000D03*
%TD*%
D29*
%TO.C,R316*%
X327031300Y-195855000D03*
X328856300Y-195855000D03*
%TD*%
D22*
%TO.C,R509*%
X251049765Y-219525235D03*
X252340235Y-218234765D03*
%TD*%
%TO.C,R405*%
X383244765Y-184275235D03*
X384535235Y-182984765D03*
%TD*%
%TO.C,R415*%
X365564765Y-169535235D03*
X366855235Y-168244765D03*
%TD*%
D17*
%TO.C,C417*%
X377737500Y-200110000D03*
X379462500Y-200110000D03*
%TD*%
D32*
%TO.C,R401*%
X387190000Y-184002500D03*
X387190000Y-182177500D03*
%TD*%
D58*
%TO.C,U403*%
X346586400Y-186050000D03*
X346586400Y-185650001D03*
X346586400Y-185250002D03*
X346586401Y-184849999D03*
X346586401Y-184450000D03*
X346586401Y-184050001D03*
X346586400Y-183649998D03*
X346586400Y-183249999D03*
X346586400Y-182850001D03*
X346586400Y-182450002D03*
X346586401Y-182049999D03*
X346586401Y-181650000D03*
X346586401Y-181250001D03*
X346586400Y-180849998D03*
X346586400Y-180449999D03*
X346586400Y-180050000D03*
D59*
X345370000Y-178833600D03*
X344970001Y-178833600D03*
X344570002Y-178833600D03*
X344169999Y-178833599D03*
X343770000Y-178833599D03*
X343370001Y-178833599D03*
X342969998Y-178833600D03*
X342569999Y-178833600D03*
X342170001Y-178833600D03*
X341770002Y-178833600D03*
X341369999Y-178833599D03*
X340970000Y-178833599D03*
X340570001Y-178833599D03*
X340169998Y-178833600D03*
X339769999Y-178833600D03*
X339370000Y-178833600D03*
D58*
X338153600Y-180050000D03*
X338153600Y-180449999D03*
X338153600Y-180849998D03*
X338153599Y-181250001D03*
X338153599Y-181650000D03*
X338153599Y-182049999D03*
X338153600Y-182450002D03*
X338153600Y-182850001D03*
X338153600Y-183249999D03*
X338153600Y-183649998D03*
X338153599Y-184050001D03*
X338153599Y-184450000D03*
X338153599Y-184849999D03*
X338153600Y-185250002D03*
X338153600Y-185650001D03*
X338153600Y-186050000D03*
D59*
X339370000Y-187266400D03*
X339769999Y-187266400D03*
X340169998Y-187266400D03*
X340570001Y-187266401D03*
X340970000Y-187266401D03*
X341369999Y-187266401D03*
X341770002Y-187266400D03*
X342170001Y-187266400D03*
X342569999Y-187266400D03*
X342969998Y-187266400D03*
X343370001Y-187266401D03*
X343770000Y-187266401D03*
X344169999Y-187266401D03*
X344570002Y-187266400D03*
X344970001Y-187266400D03*
X345370000Y-187266400D03*
%TD*%
D16*
%TO.C,C217*%
X243950000Y-141550000D03*
X243950000Y-139650000D03*
%TD*%
D15*
%TO.C,C208*%
X247450000Y-159550000D03*
X247450000Y-161450000D03*
%TD*%
D18*
%TO.C,C424*%
X355280000Y-183745000D03*
X353555000Y-183745000D03*
%TD*%
D16*
%TO.C,C205*%
X236950000Y-155600000D03*
X236950000Y-153700000D03*
%TD*%
D29*
%TO.C,R311*%
X268387500Y-142600000D03*
X270212500Y-142600000D03*
%TD*%
%TO.C,R320*%
X199412500Y-238400000D03*
X201237500Y-238400000D03*
%TD*%
D33*
%TO.C,R319*%
X312112500Y-284450000D03*
X310287500Y-284450000D03*
%TD*%
D18*
%TO.C,C412*%
X374862500Y-178800000D03*
X373137500Y-178800000D03*
%TD*%
D25*
%TO.C,C425*%
X342420000Y-194385000D03*
X342420000Y-196110000D03*
%TD*%
D33*
%TO.C,R407*%
X386052500Y-178610000D03*
X384227500Y-178610000D03*
%TD*%
D30*
%TO.C,U405*%
X362206200Y-176345000D03*
X362206200Y-177615000D03*
X362206200Y-178885000D03*
X362206200Y-180155000D03*
X367133800Y-180155000D03*
X367133800Y-178885000D03*
X367133800Y-177615000D03*
X367133800Y-176345000D03*
%TD*%
D31*
%TO.C,C201*%
X223200000Y-120350000D03*
X225100000Y-120350000D03*
%TD*%
D29*
%TO.C,R314*%
X326981300Y-192605000D03*
X328806300Y-192605000D03*
%TD*%
D32*
%TO.C,R313*%
X286770000Y-205202500D03*
X286770000Y-203377500D03*
%TD*%
D17*
%TO.C,C504*%
X264020000Y-239240000D03*
X265745000Y-239240000D03*
%TD*%
D29*
%TO.C,R301*%
X276402751Y-239070334D03*
X278227751Y-239070334D03*
%TD*%
D31*
%TO.C,C216*%
X277600000Y-127700000D03*
X279500000Y-127700000D03*
%TD*%
D29*
%TO.C,R511*%
X211386500Y-180032000D03*
X213211500Y-180032000D03*
%TD*%
D17*
%TO.C,C415*%
X353487500Y-180330000D03*
X355212500Y-180330000D03*
%TD*%
D56*
%TO.C,FB301*%
X282750000Y-198000000D03*
X281000000Y-198000000D03*
%TD*%
D42*
%TO.C,U207*%
X216300000Y-128750000D03*
X216300000Y-129700000D03*
X216300000Y-130650000D03*
X219000000Y-130650000D03*
X219000000Y-128750000D03*
%TD*%
D15*
%TO.C,C227*%
X221800000Y-128750000D03*
X221800000Y-130650000D03*
%TD*%
D26*
%TO.C,R411*%
X360730000Y-171257500D03*
X360730000Y-173082500D03*
%TD*%
D21*
%TO.C,D307*%
X199375000Y-232550000D03*
X201125000Y-232550000D03*
%TD*%
D44*
%TO.C,C210*%
X229000000Y-120350000D03*
X227100000Y-120350000D03*
%TD*%
D18*
%TO.C,C317*%
X304425000Y-276100000D03*
X302700000Y-276100000D03*
%TD*%
D23*
%TO.C,R416*%
X364115235Y-204564765D03*
X362824765Y-205855235D03*
%TD*%
D26*
%TO.C,R213*%
X284900000Y-117125000D03*
X284900000Y-118950000D03*
%TD*%
D37*
%TO.C,C401*%
X340585000Y-175272500D03*
X340585000Y-173547500D03*
%TD*%
D32*
%TO.C,R412*%
X353980000Y-214242500D03*
X353980000Y-212417500D03*
%TD*%
D26*
%TO.C,R211*%
X276200000Y-117087500D03*
X276200000Y-118912500D03*
%TD*%
D27*
%TO.C,C405*%
X350080120Y-181129880D03*
X351299880Y-179910120D03*
%TD*%
D23*
%TO.C,R502*%
X273806235Y-236591765D03*
X272515765Y-237882235D03*
%TD*%
D18*
%TO.C,C314*%
X285562500Y-195750000D03*
X283837500Y-195750000D03*
%TD*%
D29*
%TO.C,R207*%
X199575000Y-263500000D03*
X201400000Y-263500000D03*
%TD*%
D23*
%TO.C,R403*%
X372865235Y-174884765D03*
X371574765Y-176175235D03*
%TD*%
D21*
%TO.C,D203*%
X199650000Y-261700000D03*
X201400000Y-261700000D03*
%TD*%
D26*
%TO.C,R307*%
X251612500Y-284337500D03*
X251612500Y-286162500D03*
%TD*%
D37*
%TO.C,C406*%
X346860000Y-176972500D03*
X346860000Y-175247500D03*
%TD*%
D16*
%TO.C,C211*%
X235050000Y-141400000D03*
X235050000Y-139500000D03*
%TD*%
D26*
%TO.C,R202*%
X361170000Y-105447500D03*
X361170000Y-107272500D03*
%TD*%
D25*
%TO.C,C420*%
X340810000Y-194395000D03*
X340810000Y-196120000D03*
%TD*%
M02*
