ISO-10303-21;
HEADER;
FILE_DESCRIPTION (( 'STEP AP214' ),
    '1' );
FILE_NAME ('SMV1247-040LF.STEP',
    '2025-04-18T06:17:07',
    ( '' ),
    ( '' ),
    'SwSTEP 2.0',
    'SolidWorks 2024',
    '' );
FILE_SCHEMA (( 'AUTOMOTIVE_DESIGN' ));
ENDSEC;

DATA;
#1 = FILL_AREA_STYLE_COLOUR ( '', #278 ) ;
#2 = FACE_OUTER_BOUND ( 'NONE', #312, .T. ) ;
#3 = VECTOR ( 'NONE', #300, 1000.000000000000000 ) ;
#4 = CARTESIAN_POINT ( 'NONE',  ( -0.1802529685262388992, 0.4119999999999999774, -0.3721693644277064283 ) ) ;
#5 = ORIENTED_EDGE ( 'NONE', *, *, #197, .F. ) ;
#6 = CARTESIAN_POINT ( 'NONE',  ( -0.2999999999999999334, 0.4099999999999999756, 0.5000000000000002220 ) ) ;
#7 = LINE ( 'NONE', #217, #44 ) ;
#8 = CARTESIAN_POINT ( 'NONE',  ( 0.2500000000000000000, -0.05000000000000000278, -0.4499999999999998446 ) ) ;
#9 = VECTOR ( 'NONE', #303, 1000.000000000000000 ) ;
#10 = PLANE ( 'NONE',  #537 ) ;
#11 = AXIS2_PLACEMENT_3D ( 'NONE', #536, #42, #639 ) ;
#12 = DIRECTION ( 'NONE',  ( -0.000000000000000000, 1.000000000000000000, -0.000000000000000000 ) ) ;
#13 = CARTESIAN_POINT ( 'NONE',  ( -0.2999999999999999334, 0.4099999999999999756, 0.5000000000000002220 ) ) ;
#14 = ORIENTED_EDGE ( 'NONE', *, *, #283, .F. ) ;
#15 = ORIENTED_EDGE ( 'NONE', *, *, #613, .F. ) ;
#16 = FILL_AREA_STYLE_COLOUR ( '', #556 ) ;
#17 = LINE ( 'NONE', #236, #432 ) ;
#18 = ORIENTED_EDGE ( 'NONE', *, *, #224, .T. ) ;
#19 = LINE ( 'NONE', #297, #158 ) ;
#20 = DIRECTION ( 'NONE',  ( 4.336808689942017736E-16, 0.000000000000000000, 1.000000000000000000 ) ) ;
#21 = ORIENTED_EDGE ( 'NONE', *, *, #124, .T. ) ;
#22 = CARTESIAN_POINT ( 'NONE',  ( 0.2500000000000000000, -0.05000000000000000278, 0.4500000000000002331 ) ) ;
#23 = EDGE_CURVE ( 'NONE', #232, #185, #153, .T. ) ;
#24 = APPLICATION_PROTOCOL_DEFINITION ( 'draft international standard', 'automotive_design', 1998, #41 ) ;
#25 = ORIENTED_EDGE ( 'NONE', *, *, #642, .T. ) ;
#26 = LINE ( 'NONE', #186, #659 ) ;
#27 = EDGE_CURVE ( 'NONE', #83, #257, #583, .T. ) ;
#28 = FILL_AREA_STYLE ('',( #568 ) ) ;
#29 = ORIENTED_EDGE ( 'NONE', *, *, #197, .T. ) ;
#30 = SURFACE_STYLE_FILL_AREA ( #677 ) ;
#31 = DIRECTION ( 'NONE',  ( -1.000000000000000000, 0.000000000000000000, 0.000000000000000000 ) ) ;
#32 = DIRECTION ( 'NONE',  ( -0.000000000000000000, -0.000000000000000000, 1.000000000000000000 ) ) ;
#33 = PRESENTATION_STYLE_ASSIGNMENT (( #523 ) ) ;
#34 = VECTOR ( 'NONE', #281, 1000.000000000000000 ) ;
#35 = PRODUCT_DEFINITION_FORMATION_WITH_SPECIFIED_SOURCE ( 'ANY', '', #633, .NOT_KNOWN. ) ;
#36 = VECTOR ( 'NONE', #12, 1000.000000000000000 ) ;
#37 = CARTESIAN_POINT ( 'NONE',  ( 0.2500000000000000000, 0.000000000000000000, -0.4499999999999998446 ) ) ;
#38 = LINE ( 'NONE', #255, #696 ) ;
#39 = DIRECTION ( 'NONE',  ( 1.000000000000000000, 0.000000000000000000, 0.000000000000000000 ) ) ;
#40 = ORIENTED_EDGE ( 'NONE', *, *, #426, .T. ) ;
#41 = APPLICATION_CONTEXT ( 'automotive_design' ) ;
#42 = DIRECTION ( 'NONE',  ( 0.000000000000000000, 0.000000000000000000, 1.000000000000000000 ) ) ;
#43 = EDGE_LOOP ( 'NONE', ( #554, #150, #545, #296 ) ) ;
#44 = VECTOR ( 'NONE', #375, 1000.000000000000000 ) ;
#45 = FACE_BOUND ( 'NONE', #249, .T. ) ;
#46 = ORIENTED_EDGE ( 'NONE', *, *, #378, .F. ) ;
#47 = AXIS2_PLACEMENT_3D ( 'NONE', #8, #116, #599 ) ;
#48 = ORIENTED_EDGE ( 'NONE', *, *, #294, .T. ) ;
#49 = UNCERTAINTY_MEASURE_WITH_UNIT (LENGTH_MEASURE( 1.000000000000000082E-05 ), #112, 'distance_accuracy_value', 'NONE');
#50 = SURFACE_STYLE_FILL_AREA ( #212 ) ;
#51 = EDGE_CURVE ( 'NONE', #259, #376, #38, .T. ) ;
#52 = DIRECTION ( 'NONE',  ( 1.000000000000000000, 0.000000000000000000, -0.000000000000000000 ) ) ;
#53 = ORIENTED_EDGE ( 'NONE', *, *, #617, .T. ) ;
#54 = ADVANCED_FACE ( 'NONE', ( #365 ), #100, .F. ) ;
#55 = DIRECTION ( 'NONE',  ( -0.000000000000000000, 0.000000000000000000, 1.000000000000000000 ) ) ;
#56 = LINE ( 'NONE', #646, #85 ) ;
#57 = EDGE_LOOP ( 'NONE', ( #48, #87, #334, #496 ) ) ;
#58 =( LENGTH_UNIT ( ) NAMED_UNIT ( * ) SI_UNIT ( .MILLI., .METRE. ) );
#59 = MECHANICAL_DESIGN_GEOMETRIC_PRESENTATION_REPRESENTATION (  '', ( #431 ), #501 ) ;
#60 = DIRECTION ( 'NONE',  ( -0.000000000000000000, -1.000000000000000000, -0.000000000000000000 ) ) ;
#61 = STYLED_ITEM ( 'NONE', ( #119 ), #309 ) ;
#62 = PLANE ( 'NONE',  #421 ) ;
#63 = FACE_OUTER_BOUND ( 'NONE', #511, .T. ) ;
#64 = ADVANCED_FACE ( 'NONE', ( #201 ), #587, .F. ) ;
#65 = LINE ( 'NONE', #489, #392 ) ;
#66 = SURFACE_STYLE_FILL_AREA ( #657 ) ;
#67 = EDGE_LOOP ( 'NONE', ( #280, #520, #538, #188 ) ) ;
#68 = DIRECTION ( 'NONE',  ( -0.000000000000000000, 1.000000000000000000, -0.000000000000000000 ) ) ;
#69 = ORIENTED_EDGE ( 'NONE', *, *, #234, .F. ) ;
#70 =( GEOMETRIC_REPRESENTATION_CONTEXT ( 3 ) GLOBAL_UNCERTAINTY_ASSIGNED_CONTEXT ( ( #80 ) ) GLOBAL_UNIT_ASSIGNED_CONTEXT ( ( #58, #264, #663 ) ) REPRESENTATION_CONTEXT ( 'NONE', 'WORKASPACE' ) );
#71 = EDGE_LOOP ( 'NONE', ( #18, #403, #15, #448 ) ) ;
#72 = LINE ( 'NONE', #155, #34 ) ;
#73 = LINE ( 'NONE', #561, #261 ) ;
#74 = EDGE_CURVE ( 'NONE', #304, #539, #352, .T. ) ;
#75 = EDGE_LOOP ( 'NONE', ( #286, #271, #288, #562 ) ) ;
#76 = CARTESIAN_POINT ( 'NONE',  ( 0.1802529685262388992, 0.4099999999999999756, -0.3721693644277064283 ) ) ;
#77 = LINE ( 'NONE', #341, #36 ) ;
#78 = DIRECTION ( 'NONE',  ( 0.000000000000000000, 0.000000000000000000, -1.000000000000000000 ) ) ;
#79 = ORIENTED_EDGE ( 'NONE', *, *, #656, .F. ) ;
#80 = UNCERTAINTY_MEASURE_WITH_UNIT (LENGTH_MEASURE( 1.000000000000000082E-05 ), #58, 'distance_accuracy_value', 'NONE');
#81 = CARTESIAN_POINT ( 'NONE',  ( 0.2500000000000001110, -0.05000000000000000278, 0.2000000000000002609 ) ) ;
#82 =( NAMED_UNIT ( * ) PLANE_ANGLE_UNIT ( ) SI_UNIT ( $, .RADIAN. ) );
#83 = VERTEX_POINT ( 'NONE', #522 ) ;
#84 = DIRECTION ( 'NONE',  ( -4.336808689942017736E-16, -0.000000000000000000, 1.000000000000000000 ) ) ;
#85 = VECTOR ( 'NONE', #216, 1000.000000000000000 ) ;
#86 =( NAMED_UNIT ( * ) SI_UNIT ( $, .STERADIAN. ) SOLID_ANGLE_UNIT ( ) );
#87 = ORIENTED_EDGE ( 'NONE', *, *, #402, .F. ) ;
#88 = CARTESIAN_POINT ( 'NONE',  ( 0.2500000000000000000, -0.05000000000000000278, -0.4499999999999998446 ) ) ;
#89 = EDGE_LOOP ( 'NONE', ( #497, #230, #277, #225 ) ) ;
#90 = DIRECTION ( 'NONE',  ( 1.000000000000000000, 0.000000000000000000, 0.000000000000000000 ) ) ;
#91 = DIRECTION ( 'NONE',  ( -0.000000000000000000, -1.000000000000000000, -0.000000000000000000 ) ) ;
#92 = ORIENTED_EDGE ( 'NONE', *, *, #23, .F. ) ;
#93 = PRESENTATION_LAYER_ASSIGNMENT (  '', '', ( #260 ) ) ;
#94 = STYLED_ITEM ( 'NONE', ( #664 ), #219 ) ;
#95 = DIRECTION ( 'NONE',  ( -0.000000000000000000, -1.000000000000000000, -0.000000000000000000 ) ) ;
#96 = CARTESIAN_POINT ( 'NONE',  ( -0.2999999999999999334, 0.000000000000000000, -0.4999999999999997780 ) ) ;
#97 = LINE ( 'NONE', #200, #382 ) ;
#98 = EDGE_LOOP ( 'NONE', ( #145, #644, #291, #342 ) ) ;
#99 = FACE_OUTER_BOUND ( 'NONE', #598, .T. ) ;
#100 = PLANE ( 'NONE',  #440 ) ;
#101 = ADVANCED_FACE ( 'NONE', ( #429 ), #62, .F. ) ;
#102 =( GEOMETRIC_REPRESENTATION_CONTEXT ( 3 ) GLOBAL_UNCERTAINTY_ASSIGNED_CONTEXT ( ( #409 ) ) GLOBAL_UNIT_ASSIGNED_CONTEXT ( ( #401, #621, #406 ) ) REPRESENTATION_CONTEXT ( 'NONE', 'WORKASPACE' ) );
#103 = DIRECTION ( 'NONE',  ( 0.000000000000000000, 0.000000000000000000, -1.000000000000000000 ) ) ;
#104 = VECTOR ( 'NONE', #68, 1000.000000000000000 ) ;
#105 = DIRECTION ( 'NONE',  ( -0.000000000000000000, -0.000000000000000000, -1.000000000000000000 ) ) ;
#106 = VECTOR ( 'NONE', #688, 1000.000000000000000 ) ;
#107 = DIRECTION ( 'NONE',  ( -1.000000000000000000, 0.000000000000000000, -0.000000000000000000 ) ) ;
#108 = CARTESIAN_POINT ( 'NONE',  ( -0.2999999999999999334, 0.4099999999999999756, -0.4999999999999997780 ) ) ;
#109 = LINE ( 'NONE', #171, #147 ) ;
#110 = ORIENTED_EDGE ( 'NONE', *, *, #27, .F. ) ;
#111 = SURFACE_STYLE_USAGE ( .BOTH. , #231 ) ;
#112 =( LENGTH_UNIT ( ) NAMED_UNIT ( * ) SI_UNIT ( .MILLI., .METRE. ) );
#113 = EDGE_LOOP ( 'NONE', ( #175, #482, #5, #612 ) ) ;
#114 = VECTOR ( 'NONE', #386, 1000.000000000000000 ) ;
#115 = ORIENTED_EDGE ( 'NONE', *, *, #580, .F. ) ;
#116 = DIRECTION ( 'NONE',  ( -1.000000000000000000, 0.000000000000000000, 4.336808689942017736E-16 ) ) ;
#117 = DIRECTION ( 'NONE',  ( -1.000000000000000000, 0.000000000000000000, 0.000000000000000000 ) ) ;
#118 = ORIENTED_EDGE ( 'NONE', *, *, #370, .F. ) ;
#119 = PRESENTATION_STYLE_ASSIGNMENT (( #385 ) ) ;
#120 = EDGE_CURVE ( 'NONE', #345, #460, #223, .T. ) ;
#121 = LINE ( 'NONE', #673, #517 ) ;
#122 = AXIS2_PLACEMENT_3D ( 'NONE', #326, #221, #551 ) ;
#123 = VERTEX_POINT ( 'NONE', #325 ) ;
#124 = EDGE_CURVE ( 'NONE', #232, #257, #56, .T. ) ;
#125 = FACE_OUTER_BOUND ( 'NONE', #465, .T. ) ;
#126 = EDGE_LOOP ( 'NONE', ( #354, #229, #348, #133 ) ) ;
#127 = FACE_OUTER_BOUND ( 'NONE', #142, .T. ) ;
#128 = LINE ( 'NONE', #446, #213 ) ;
#129 = APPLICATION_PROTOCOL_DEFINITION ( 'draft international standard', 'automotive_design', 1998, #637 ) ;
#130 = ORIENTED_EDGE ( 'NONE', *, *, #23, .T. ) ;
#131 = DIRECTION ( 'NONE',  ( -1.000000000000000000, 0.000000000000000000, -0.000000000000000000 ) ) ;
#132 = CARTESIAN_POINT ( 'NONE',  ( 0.2500000000000001110, 0.000000000000000000, -0.1999999999999998168 ) ) ;
#133 = ORIENTED_EDGE ( 'NONE', *, *, #387, .F. ) ;
#134 = MECHANICAL_DESIGN_GEOMETRIC_PRESENTATION_REPRESENTATION (  '', ( #359 ), #439 ) ;
#135 = LINE ( 'NONE', #474, #493 ) ;
#136 = VECTOR ( 'NONE', #20, 1000.000000000000000 ) ;
#137 = VECTOR ( 'NONE', #32, 1000.000000000000000 ) ;
#138 = CARTESIAN_POINT ( 'NONE',  ( -0.2500000000000000000, -0.05000000000000000278, -0.4499999999999998446 ) ) ;
#139 = ORIENTED_EDGE ( 'NONE', *, *, #426, .F. ) ;
#140 = LINE ( 'NONE', #563, #638 ) ;
#141 = ORIENTED_EDGE ( 'NONE', *, *, #248, .F. ) ;
#142 = EDGE_LOOP ( 'NONE', ( #40, #675, #79, #238 ) ) ;
#143 = DIRECTION ( 'NONE',  ( 0.000000000000000000, 0.000000000000000000, -1.000000000000000000 ) ) ;
#144 = FACE_OUTER_BOUND ( 'NONE', #315, .T. ) ;
#145 = ORIENTED_EDGE ( 'NONE', *, *, #27, .T. ) ;
#146 = PRODUCT_RELATED_PRODUCT_CATEGORY ( 'part', '', ( #633 ) ) ;
#147 = VECTOR ( 'NONE', #438, 1000.000000000000000 ) ;
#148 = VECTOR ( 'NONE', #478, 1000.000000000000000 ) ;
#149 = CARTESIAN_POINT ( 'NONE',  ( -0.2500000000000000000, -0.05000000000000000278, 0.2000000000000002609 ) ) ;
#150 = ORIENTED_EDGE ( 'NONE', *, *, #564, .F. ) ;
#151 = LINE ( 'NONE', #592, #703 ) ;
#152 = PLANE ( 'NONE',  #318 ) ;
#153 = LINE ( 'NONE', #358, #137 ) ;
#154 = EDGE_CURVE ( 'NONE', #689, #397, #164, .T. ) ;
#155 = CARTESIAN_POINT ( 'NONE',  ( -0.2500000000000000000, -0.05000000000000000278, 0.2000000000000002609 ) ) ;
#156 = EDGE_CURVE ( 'NONE', #163, #182, #65, .T. ) ;
#157 = CARTESIAN_POINT ( 'NONE',  ( 0.2999999999999999334, 0.000000000000000000, 0.5000000000000002220 ) ) ;
#158 = VECTOR ( 'NONE', #143, 1000.000000000000000 ) ;
#159 = CARTESIAN_POINT ( 'NONE',  ( -0.2500000000000000000, -0.05000000000000000278, -0.4499999999999998446 ) ) ;
#160 = SURFACE_STYLE_FILL_AREA ( #273 ) ;
#161 = FILL_AREA_STYLE_COLOUR ( '', #193 ) ;
#162 = PLANE ( 'NONE',  #408 ) ;
#163 = VERTEX_POINT ( 'NONE', #700 ) ;
#164 = LINE ( 'NONE', #372, #591 ) ;
#165 = CARTESIAN_POINT ( 'NONE',  ( -0.2500000000000000000, -0.05000000000000000278, -0.1999999999999998168 ) ) ;
#166 = VECTOR ( 'NONE', #90, 1000.000000000000000 ) ;
#167 = DIRECTION ( 'NONE',  ( 0.000000000000000000, 0.000000000000000000, 1.000000000000000000 ) ) ;
#168 = PLANE ( 'NONE',  #514 ) ;
#169 = PRESENTATION_LAYER_ASSIGNMENT (  '', '', ( #61 ) ) ;
#170 = PLANE ( 'NONE',  #203 ) ;
#171 = CARTESIAN_POINT ( 'NONE',  ( -0.2500000000000000000, 0.000000000000000000, 0.2000000000000002609 ) ) ;
#172 = ADVANCED_FACE ( 'NONE', ( #491 ), #162, .F. ) ;
#173 = SURFACE_SIDE_STYLE ('',( #274 ) ) ;
#174 =( LENGTH_UNIT ( ) NAMED_UNIT ( * ) SI_UNIT ( .MILLI., .METRE. ) );
#175 = ORIENTED_EDGE ( 'NONE', *, *, #248, .T. ) ;
#176 = ORIENTED_EDGE ( 'NONE', *, *, #668, .F. ) ;
#177 = FACE_OUTER_BOUND ( 'NONE', #89, .T. ) ;
#178 = ORIENTED_EDGE ( 'NONE', *, *, #613, .T. ) ;
#179 = COLOUR_RGB ( '',0.1098039215686274495, 0.1098039215686274495, 0.1098039215686274495 ) ;
#180 = LINE ( 'NONE', #616, #693 ) ;
#181 = ADVANCED_FACE ( 'NONE', ( #500 ), #266, .F. ) ;
#182 = VERTEX_POINT ( 'NONE', #157 ) ;
#183 = PLANE ( 'NONE',  #390 ) ;
#184 = DIRECTION ( 'NONE',  ( -1.000000000000000000, 0.000000000000000000, -4.336808689942017736E-16 ) ) ;
#185 = VERTEX_POINT ( 'NONE', #6 ) ;
#186 = CARTESIAN_POINT ( 'NONE',  ( 0.2999999999999999334, 0.4099999999999999756, 0.5000000000000002220 ) ) ;
#187 = CARTESIAN_POINT ( 'NONE',  ( 0.2999999999999999334, 0.4099999999999999756, -0.4999999999999997780 ) ) ;
#188 = ORIENTED_EDGE ( 'NONE', *, *, #378, .T. ) ;
#189 = AXIS2_PLACEMENT_3D ( 'NONE', #445, #335, #389 ) ;
#190 = EDGE_CURVE ( 'NONE', #686, #499, #590, .T. ) ;
#191 = DIRECTION ( 'NONE',  ( 0.000000000000000000, 0.000000000000000000, -1.000000000000000000 ) ) ;
#192 = AXIS2_PLACEMENT_3D ( 'NONE', #419, #487, #207 ) ;
#193 = COLOUR_RGB ( '',0.1098039215686274495, 0.1098039215686274495, 0.1098039215686274495 ) ;
#194 = LINE ( 'NONE', #138, #502 ) ;
#195 = ORIENTED_EDGE ( 'NONE', *, *, #350, .F. ) ;
#196 = CARTESIAN_POINT ( 'NONE',  ( -0.2500000000000000000, -0.05000000000000000278, -0.1999999999999998168 ) ) ;
#197 = EDGE_CURVE ( 'NONE', #691, #259, #655, .T. ) ;
#198 = CARTESIAN_POINT ( 'NONE',  ( -0.2500000000000000000, 0.000000000000000000, -0.4499999999999998446 ) ) ;
#199 = CARTESIAN_POINT ( 'NONE',  ( 0.000000000000000000, -0.05000000000000000278, 0.000000000000000000 ) ) ;
#200 = CARTESIAN_POINT ( 'NONE',  ( -0.1802529685262388992, 0.4119999999999999774, -0.4527530444747308036 ) ) ;
#201 = FACE_OUTER_BOUND ( 'NONE', #113, .T. ) ;
#202 = PRESENTATION_LAYER_ASSIGNMENT (  '', '', ( #431 ) ) ;
#203 = AXIS2_PLACEMENT_3D ( 'NONE', #204, #31, #307 ) ;
#204 = CARTESIAN_POINT ( 'NONE',  ( 0.2999999999999999334, 0.4099999999999999756, 0.5000000000000002220 ) ) ;
#205 = ORIENTED_EDGE ( 'NONE', *, *, #156, .F. ) ;
#206 = EDGE_CURVE ( 'NONE', #559, #566, #383, .T. ) ;
#207 = DIRECTION ( 'NONE',  ( 0.000000000000000000, 0.000000000000000000, -1.000000000000000000 ) ) ;
#208 = DIRECTION ( 'NONE',  ( 0.000000000000000000, -0.000000000000000000, -1.000000000000000000 ) ) ;
#209 = DIRECTION ( 'NONE',  ( -1.000000000000000000, 0.000000000000000000, -0.000000000000000000 ) ) ;
#210 = SURFACE_SIDE_STYLE ('',( #160 ) ) ;
#211 = VECTOR ( 'NONE', #603, 1000.000000000000000 ) ;
#212 = FILL_AREA_STYLE ('',( #16 ) ) ;
#213 = VECTOR ( 'NONE', #610, 1000.000000000000000 ) ;
#214 = SURFACE_STYLE_FILL_AREA ( #320 ) ;
#215 = PLANE ( 'NONE',  #122 ) ;
#216 = DIRECTION ( 'NONE',  ( -0.000000000000000000, -1.000000000000000000, -0.000000000000000000 ) ) ;
#217 = CARTESIAN_POINT ( 'NONE',  ( -0.2500000000000000000, -0.05000000000000000278, 0.4500000000000002331 ) ) ;
#218 = ORIENTED_EDGE ( 'NONE', *, *, #370, .T. ) ;
#219 = MANIFOLD_SOLID_BREP ( 'Boss-Extrude3', #660 ) ;
#220 = CARTESIAN_POINT ( 'NONE',  ( -0.1802529685262388992, 0.4099999999999999756, -0.4527530444747308036 ) ) ;
#221 = DIRECTION ( 'NONE',  ( -0.000000000000000000, 0.000000000000000000, 1.000000000000000000 ) ) ;
#222 = COLOUR_RGB ( '',0.1098039215686274495, 0.1098039215686274495, 0.1098039215686274495 ) ;
#223 = LINE ( 'NONE', #498, #625 ) ;
#224 = EDGE_CURVE ( 'NONE', #327, #627, #128, .T. ) ;
#225 = ORIENTED_EDGE ( 'NONE', *, *, #572, .T. ) ;
#226 = AXIS2_PLACEMENT_3D ( 'NONE', #630, #481, #525 ) ;
#227 = DIRECTION ( 'NONE',  ( 0.000000000000000000, 0.000000000000000000, -1.000000000000000000 ) ) ;
#228 = DIRECTION ( 'NONE',  ( 0.000000000000000000, 0.000000000000000000, 1.000000000000000000 ) ) ;
#229 = ORIENTED_EDGE ( 'NONE', *, *, #294, .F. ) ;
#230 = ORIENTED_EDGE ( 'NONE', *, *, #555, .F. ) ;
#231 = SURFACE_SIDE_STYLE ('',( #50 ) ) ;
#232 = VERTEX_POINT ( 'NONE', #108 ) ;
#233 = DIRECTION ( 'NONE',  ( 1.000000000000000000, 0.000000000000000000, -0.000000000000000000 ) ) ;
#234 = EDGE_CURVE ( 'NONE', #362, #182, #121, .T. ) ;
#235 = ORIENTED_EDGE ( 'NONE', *, *, #555, .T. ) ;
#236 = CARTESIAN_POINT ( 'NONE',  ( 0.1802529685262388992, 0.4099999999999999756, -0.4527530444747308036 ) ) ;
#237 = VECTOR ( 'NONE', #628, 1000.000000000000000 ) ;
#238 = ORIENTED_EDGE ( 'NONE', *, *, #51, .T. ) ;
#239 = MECHANICAL_DESIGN_GEOMETRIC_PRESENTATION_REPRESENTATION (  '', ( #94 ), #338 ) ;
#240 = PLANE ( 'NONE',  #336 ) ;
#241 = CARTESIAN_POINT ( 'NONE',  ( -0.2500000000000000000, -0.05000000000000000278, 0.4500000000000002331 ) ) ;
#242 = ORIENTED_EDGE ( 'NONE', *, *, #253, .F. ) ;
#243 = LINE ( 'NONE', #632, #483 ) ;
#244 = CARTESIAN_POINT ( 'NONE',  ( -0.1802529685262388992, 0.4099999999999999756, -0.3721693644277064283 ) ) ;
#245 = ORIENTED_EDGE ( 'NONE', *, *, #600, .F. ) ;
#246 = SURFACE_SIDE_STYLE ('',( #30 ) ) ;
#247 = CARTESIAN_POINT ( 'NONE',  ( -0.2500000000000000000, -0.05000000000000000278, 0.4500000000000002331 ) ) ;
#248 = EDGE_CURVE ( 'NONE', #499, #376, #400, .T. ) ;
#249 = EDGE_LOOP ( 'NONE', ( #531, #284, #176, #245 ) ) ;
#250 = AXIS2_PLACEMENT_3D ( 'NONE', #509, #233, #687 ) ;
#251 = CARTESIAN_POINT ( 'NONE',  ( -0.1802529685262388992, 0.4119999999999999774, -0.3721693644277064283 ) ) ;
#252 =( GEOMETRIC_REPRESENTATION_CONTEXT ( 3 ) GLOBAL_UNCERTAINTY_ASSIGNED_CONTEXT ( ( #49 ) ) GLOBAL_UNIT_ASSIGNED_CONTEXT ( ( #112, #543, #654 ) ) REPRESENTATION_CONTEXT ( 'NONE', 'WORKASPACE' ) );
#253 = EDGE_CURVE ( 'NONE', #123, #641, #515, .T. ) ;
#254 = CARTESIAN_POINT ( 'NONE',  ( -0.2999999999999999334, 0.4099999999999999756, -0.4999999999999997780 ) ) ;
#255 = CARTESIAN_POINT ( 'NONE',  ( -0.1802529685262388992, 0.4119999999999999774, -0.3721693644277064283 ) ) ;
#256 = DIRECTION ( 'NONE',  ( 0.000000000000000000, 1.000000000000000000, 0.000000000000000000 ) ) ;
#257 = VERTEX_POINT ( 'NONE', #337 ) ;
#258 = PLANE ( 'NONE',  #226 ) ;
#259 = VERTEX_POINT ( 'NONE', #396 ) ;
#260 = STYLED_ITEM ( 'NONE', ( #667 ), #450 ) ;
#261 = VECTOR ( 'NONE', #282, 1000.000000000000000 ) ;
#262 = FACE_BOUND ( 'NONE', #126, .T. ) ;
#263 = DIRECTION ( 'NONE',  ( 0.000000000000000000, -0.000000000000000000, 1.000000000000000000 ) ) ;
#264 =( NAMED_UNIT ( * ) PLANE_ANGLE_UNIT ( ) SI_UNIT ( $, .RADIAN. ) );
#265 = DIRECTION ( 'NONE',  ( -0.000000000000000000, -0.000000000000000000, -1.000000000000000000 ) ) ;
#266 = PLANE ( 'NONE',  #47 ) ;
#267 =( NAMED_UNIT ( * ) SI_UNIT ( $, .STERADIAN. ) SOLID_ANGLE_UNIT ( ) );
#268 = MECHANICAL_DESIGN_GEOMETRIC_PRESENTATION_REPRESENTATION (  '', ( #260 ), #70 ) ;
#269 = EDGE_CURVE ( 'NONE', #388, #443, #669, .T. ) ;
#270 = PLANE ( 'NONE',  #456 ) ;
#271 = ORIENTED_EDGE ( 'NONE', *, *, #453, .F. ) ;
#272 = ADVANCED_FACE ( 'NONE', ( #347 ), #461, .T. ) ;
#273 = FILL_AREA_STYLE ('',( #546 ) ) ;
#274 = SURFACE_STYLE_FILL_AREA ( #650 ) ;
#275 = VECTOR ( 'NONE', #84, 1000.000000000000000 ) ;
#276 = CARTESIAN_POINT ( 'NONE',  ( 0.2500000000000000000, -0.05000000000000000278, -0.4499999999999998446 ) ) ;
#277 = ORIENTED_EDGE ( 'NONE', *, *, #535, .F. ) ;
#278 = COLOUR_RGB ( '',0.7921568627450980005, 0.8196078431372548767, 0.9333333333333333481 ) ;
#279 = MECHANICAL_DESIGN_GEOMETRIC_PRESENTATION_REPRESENTATION (  '', ( #410 ), #316 ) ;
#280 = ORIENTED_EDGE ( 'NONE', *, *, #535, .T. ) ;
#281 = DIRECTION ( 'NONE',  ( -0.000000000000000000, 1.000000000000000000, -0.000000000000000000 ) ) ;
#282 = DIRECTION ( 'NONE',  ( -0.000000000000000000, -0.000000000000000000, -1.000000000000000000 ) ) ;
#283 = EDGE_CURVE ( 'NONE', #641, #304, #77, .T. ) ;
#284 = ORIENTED_EDGE ( 'NONE', *, *, #120, .F. ) ;
#285 = DIRECTION ( 'NONE',  ( -0.000000000000000000, 1.000000000000000000, -0.000000000000000000 ) ) ;
#286 = ORIENTED_EDGE ( 'NONE', *, *, #600, .T. ) ;
#287 = DIRECTION ( 'NONE',  ( 0.000000000000000000, 0.000000000000000000, 1.000000000000000000 ) ) ;
#288 = ORIENTED_EDGE ( 'NONE', *, *, #640, .F. ) ;
#289 = LINE ( 'NONE', #88, #328 ) ;
#290 = DIRECTION ( 'NONE',  ( 1.000000000000000000, 0.000000000000000000, 0.000000000000000000 ) ) ;
#291 = ORIENTED_EDGE ( 'NONE', *, *, #344, .F. ) ;
#292 = VECTOR ( 'NONE', #573, 1000.000000000000000 ) ;
#293 = DIRECTION ( 'NONE',  ( 1.000000000000000000, 0.000000000000000000, 0.000000000000000000 ) ) ;
#294 = EDGE_CURVE ( 'NONE', #539, #327, #73, .T. ) ;
#295 = DIRECTION ( 'NONE',  ( -0.000000000000000000, -0.000000000000000000, -1.000000000000000000 ) ) ;
#296 = ORIENTED_EDGE ( 'NONE', *, *, #283, .T. ) ;
#297 = CARTESIAN_POINT ( 'NONE',  ( -0.2500000000000000000, 0.000000000000000000, 0.4500000000000002331 ) ) ;
#298 = EDGE_CURVE ( 'NONE', #604, #686, #17, .T. ) ;
#299 = PRODUCT_DEFINITION_SHAPE ( 'NONE', 'NONE',  #311 ) ;
#300 = DIRECTION ( 'NONE',  ( -1.000000000000000000, -0.000000000000000000, -0.000000000000000000 ) ) ;
#301 = CARTESIAN_POINT ( 'NONE',  ( 0.2500000000000000000, 0.000000000000000000, -0.4499999999999998446 ) ) ;
#302 = ADVANCED_FACE ( 'NONE', ( #177 ), #391, .F. ) ;
#303 = DIRECTION ( 'NONE',  ( 4.336808689942017736E-16, 0.000000000000000000, 1.000000000000000000 ) ) ;
#304 = VERTEX_POINT ( 'NONE', #132 ) ;
#305 = DIRECTION ( 'NONE',  ( 0.000000000000000000, 0.000000000000000000, -1.000000000000000000 ) ) ;
#306 = STYLED_ITEM ( 'NONE', ( #597 ), #101 ) ;
#307 = DIRECTION ( 'NONE',  ( 0.000000000000000000, 0.000000000000000000, 1.000000000000000000 ) ) ;
#308 = ORIENTED_EDGE ( 'NONE', *, *, #428, .T. ) ;
#309 = ADVANCED_FACE ( 'NONE', ( #607 ), #170, .F. ) ;
#310 = LINE ( 'NONE', #37, #9 ) ;
#311 = PRODUCT_DEFINITION ( 'UNKNOWN', '', #35, #676 ) ;
#312 = EDGE_LOOP ( 'NONE', ( #407, #635, #425, #381 ) ) ;
#313 = CARTESIAN_POINT ( 'NONE',  ( -0.2500000000000000000, -0.05000000000000000278, -0.4499999999999998446 ) ) ;
#314 = ORIENTED_EDGE ( 'NONE', *, *, #552, .T. ) ;
#315 = EDGE_LOOP ( 'NONE', ( #609, #695, #413, #235 ) ) ;
#316 =( GEOMETRIC_REPRESENTATION_CONTEXT ( 3 ) GLOBAL_UNCERTAINTY_ASSIGNED_CONTEXT ( ( #363 ) ) GLOBAL_UNIT_ASSIGNED_CONTEXT ( ( #319, #451, #424 ) ) REPRESENTATION_CONTEXT ( 'NONE', 'WORKASPACE' ) );
#317 = VECTOR ( 'NONE', #39, 1000.000000000000000 ) ;
#318 = AXIS2_PLACEMENT_3D ( 'NONE', #530, #256, #364 ) ;
#319 =( LENGTH_UNIT ( ) NAMED_UNIT ( * ) SI_UNIT ( .MILLI., .METRE. ) );
#320 = FILL_AREA_STYLE ('',( #1 ) ) ;
#321 = FACE_OUTER_BOUND ( 'NONE', #43, .T. ) ;
#322 = EDGE_CURVE ( 'NONE', #505, #83, #470, .T. ) ;
#323 = CARTESIAN_POINT ( 'NONE',  ( -0.1802529685262388992, 0.4119999999999999774, -0.4527530444747308036 ) ) ;
#324 = SURFACE_STYLE_USAGE ( .BOTH. , #332 ) ;
#325 = CARTESIAN_POINT ( 'NONE',  ( 0.2500000000000000000, -0.05000000000000000278, -0.4499999999999998446 ) ) ;
#326 = CARTESIAN_POINT ( 'NONE',  ( -0.2500000000000000000, -0.05000000000000000278, 0.2000000000000002609 ) ) ;
#327 = VERTEX_POINT ( 'NONE', #198 ) ;
#328 = VECTOR ( 'NONE', #411, 1000.000000000000000 ) ;
#329 =( GEOMETRIC_REPRESENTATION_CONTEXT ( 3 ) GLOBAL_UNCERTAINTY_ASSIGNED_CONTEXT ( ( #398 ) ) GLOBAL_UNIT_ASSIGNED_CONTEXT ( ( #634, #351, #578 ) ) REPRESENTATION_CONTEXT ( 'NONE', 'WORKASPACE' ) );
#330 = DIRECTION ( 'NONE',  ( -4.336808689942017736E-16, -0.000000000000000000, 1.000000000000000000 ) ) ;
#331 = FILL_AREA_STYLE_COLOUR ( '', #671 ) ;
#332 = SURFACE_SIDE_STYLE ('',( #66 ) ) ;
#333 = ORIENTED_EDGE ( 'NONE', *, *, #322, .F. ) ;
#334 = ORIENTED_EDGE ( 'NONE', *, *, #154, .F. ) ;
#335 = DIRECTION ( 'NONE',  ( 0.000000000000000000, -1.000000000000000000, 0.000000000000000000 ) ) ;
#336 = AXIS2_PLACEMENT_3D ( 'NONE', #480, #420, #208 ) ;
#337 = CARTESIAN_POINT ( 'NONE',  ( -0.2999999999999999334, 0.000000000000000000, -0.4999999999999997780 ) ) ;
#338 =( GEOMETRIC_REPRESENTATION_CONTEXT ( 3 ) GLOBAL_UNCERTAINTY_ASSIGNED_CONTEXT ( ( #473 ) ) GLOBAL_UNIT_ASSIGNED_CONTEXT ( ( #174, #82, #86 ) ) REPRESENTATION_CONTEXT ( 'NONE', 'WORKASPACE' ) );
#339 = VERTEX_POINT ( 'NONE', #584 ) ;
#340 = CARTESIAN_POINT ( 'NONE',  ( 0.2500000000000000000, 0.000000000000000000, 0.4500000000000002331 ) ) ;
#341 = CARTESIAN_POINT ( 'NONE',  ( 0.2500000000000001110, -0.05000000000000000278, -0.1999999999999998168 ) ) ;
#342 = ORIENTED_EDGE ( 'NONE', *, *, #322, .T. ) ;
#343 = DIRECTION ( 'NONE',  ( -0.000000000000000000, -0.000000000000000000, 1.000000000000000000 ) ) ;
#344 = EDGE_CURVE ( 'NONE', #505, #232, #355, .T. ) ;
#345 = VERTEX_POINT ( 'NONE', #586 ) ;
#346 = FILL_AREA_STYLE_COLOUR ( '', #222 ) ;
#347 = FACE_OUTER_BOUND ( 'NONE', #67, .T. ) ;
#348 = ORIENTED_EDGE ( 'NONE', *, *, #74, .F. ) ;
#349 = CARTESIAN_POINT ( 'NONE',  ( -0.2500000000000000000, -0.05000000000000000278, -0.1999999999999998168 ) ) ;
#350 = EDGE_CURVE ( 'NONE', #691, #499, #97, .T. ) ;
#351 =( NAMED_UNIT ( * ) PLANE_ANGLE_UNIT ( ) SI_UNIT ( $, .RADIAN. ) );
#352 = LINE ( 'NONE', #574, #3 ) ;
#353 = LINE ( 'NONE', #575, #166 ) ;
#354 = ORIENTED_EDGE ( 'NONE', *, *, #224, .F. ) ;
#355 = LINE ( 'NONE', #254, #292 ) ;
#356 = ORIENTED_EDGE ( 'NONE', *, *, #682, .F. ) ;
#357 = PLANE ( 'NONE',  #11 ) ;
#358 = CARTESIAN_POINT ( 'NONE',  ( -0.2999999999999999334, 0.4099999999999999756, 0.5000000000000002220 ) ) ;
#359 = STYLED_ITEM ( 'NONE', ( #373 ), #702 ) ;
#360 = COLOUR_RGB ( '',0.1098039215686274495, 0.1098039215686274495, 0.1098039215686274495 ) ;
#361 = LINE ( 'NONE', #149, #317 ) ;
#362 = VERTEX_POINT ( 'NONE', #418 ) ;
#363 = UNCERTAINTY_MEASURE_WITH_UNIT (LENGTH_MEASURE( 1.000000000000000082E-05 ), #319, 'distance_accuracy_value', 'NONE');
#364 = DIRECTION ( 'NONE',  ( 0.000000000000000000, -0.000000000000000000, 1.000000000000000000 ) ) ;
#365 = FACE_OUTER_BOUND ( 'NONE', #618, .T. ) ;
#366 =( NAMED_UNIT ( * ) PLANE_ANGLE_UNIT ( ) SI_UNIT ( $, .RADIAN. ) );
#367 = CARTESIAN_POINT ( 'NONE',  ( -0.2500000000000000000, 0.000000000000000000, 0.4500000000000002331 ) ) ;
#368 = DIRECTION ( 'NONE',  ( -1.000000000000000000, -0.000000000000000000, -0.000000000000000000 ) ) ;
#369 = AXIS2_PLACEMENT_3D ( 'NONE', #452, #228, #516 ) ;
#370 = EDGE_CURVE ( 'NONE', #185, #163, #685, .T. ) ;
#371 = VECTOR ( 'NONE', #368, 1000.000000000000000 ) ;
#372 = CARTESIAN_POINT ( 'NONE',  ( -0.2500000000000000000, -0.05000000000000000278, -0.4499999999999998446 ) ) ;
#373 = PRESENTATION_STYLE_ASSIGNMENT (( #324 ) ) ;
#374 = DIRECTION ( 'NONE',  ( 1.000000000000000000, 0.000000000000000000, 0.000000000000000000 ) ) ;
#375 = DIRECTION ( 'NONE',  ( -1.000000000000000000, -0.000000000000000000, -0.000000000000000000 ) ) ;
#376 = VERTEX_POINT ( 'NONE', #405 ) ;
#377 = CARTESIAN_POINT ( 'NONE',  ( -0.2999999999999999334, 0.4099999999999999756, -0.4999999999999997780 ) ) ;
#378 = EDGE_CURVE ( 'NONE', #339, #547, #361, .T. ) ;
#379 = CARTESIAN_POINT ( 'NONE',  ( -0.1802529685262388992, 0.4119999999999999774, -0.4527530444747308036 ) ) ;
#380 = EDGE_LOOP ( 'NONE', ( #25, #333, #115, #393 ) ) ;
#381 = ORIENTED_EDGE ( 'NONE', *, *, #577, .T. ) ;
#382 = VECTOR ( 'NONE', #416, 1000.000000000000000 ) ;
#383 = LINE ( 'NONE', #602, #557 ) ;
#384 = LINE ( 'NONE', #4, #211 ) ;
#385 = SURFACE_STYLE_USAGE ( .BOTH. , #661 ) ;
#386 = DIRECTION ( 'NONE',  ( -1.000000000000000000, -0.000000000000000000, -0.000000000000000000 ) ) ;
#387 = EDGE_CURVE ( 'NONE', #627, #304, #310, .T. ) ;
#388 = VERTEX_POINT ( 'NONE', #247 ) ;
#389 = DIRECTION ( 'NONE',  ( 0.000000000000000000, -0.000000000000000000, -1.000000000000000000 ) ) ;
#390 = AXIS2_PLACEMENT_3D ( 'NONE', #251, #571, #131 ) ;
#391 = PLANE ( 'NONE',  #527 ) ;
#392 = VECTOR ( 'NONE', #60, 1000.000000000000000 ) ;
#393 = ORIENTED_EDGE ( 'NONE', *, *, #156, .T. ) ;
#394 = ADVANCED_FACE ( 'NONE', ( #99 ), #357, .F. ) ;
#395 = LINE ( 'NONE', #81, #237 ) ;
#396 = CARTESIAN_POINT ( 'NONE',  ( -0.1802529685262388992, 0.4119999999999999774, -0.3721693644277064283 ) ) ;
#397 = VERTEX_POINT ( 'NONE', #313 ) ;
#398 = UNCERTAINTY_MEASURE_WITH_UNIT (LENGTH_MEASURE( 1.000000000000000082E-05 ), #634, 'distance_accuracy_value', 'NONE');
#399 = CARTESIAN_POINT ( 'NONE',  ( -0.2500000000000000000, 0.000000000000000000, -0.1999999999999998168 ) ) ;
#400 = LINE ( 'NONE', #510, #441 ) ;
#401 =( LENGTH_UNIT ( ) NAMED_UNIT ( * ) SI_UNIT ( .MILLI., .METRE. ) );
#402 = EDGE_CURVE ( 'NONE', #397, #327, #194, .T. ) ;
#403 = ORIENTED_EDGE ( 'NONE', *, *, #552, .F. ) ;
#404 = CARTESIAN_POINT ( 'NONE',  ( 0.2500000000000000000, -0.05000000000000000278, 0.4500000000000002331 ) ) ;
#405 = CARTESIAN_POINT ( 'NONE',  ( -0.1802529685262388992, 0.4099999999999999756, -0.3721693644277064283 ) ) ;
#406 =( NAMED_UNIT ( * ) SI_UNIT ( $, .STERADIAN. ) SOLID_ANGLE_UNIT ( ) );
#407 = ORIENTED_EDGE ( 'NONE', *, *, #298, .T. ) ;
#408 = AXIS2_PLACEMENT_3D ( 'NONE', #595, #374, #495 ) ;
#409 = UNCERTAINTY_MEASURE_WITH_UNIT (LENGTH_MEASURE( 1.000000000000000082E-05 ), #401, 'distance_accuracy_value', 'NONE');
#410 = STYLED_ITEM ( 'NONE', ( #488 ), #444 ) ;
#411 = DIRECTION ( 'NONE',  ( -0.000000000000000000, 1.000000000000000000, -0.000000000000000000 ) ) ;
#412 = DIRECTION ( 'NONE',  ( -0.000000000000000000, 1.000000000000000000, -0.000000000000000000 ) ) ;
#413 = ORIENTED_EDGE ( 'NONE', *, *, #649, .F. ) ;
#414 = LINE ( 'NONE', #404, #275 ) ;
#415 = ADVANCED_FACE ( 'NONE', ( #144 ), #258, .F. ) ;
#416 = DIRECTION ( 'NONE',  ( -0.000000000000000000, -1.000000000000000000, -0.000000000000000000 ) ) ;
#417 = DIRECTION ( 'NONE',  ( 0.000000000000000000, 1.000000000000000000, 0.000000000000000000 ) ) ;
#418 = CARTESIAN_POINT ( 'NONE',  ( -0.2999999999999999334, 0.000000000000000000, 0.5000000000000002220 ) ) ;
#419 = CARTESIAN_POINT ( 'NONE',  ( -0.1802529685262388992, 0.4119999999999999774, -0.4527530444747308036 ) ) ;
#420 = DIRECTION ( 'NONE',  ( 0.000000000000000000, -1.000000000000000000, 0.000000000000000000 ) ) ;
#421 = AXIS2_PLACEMENT_3D ( 'NONE', #377, #549, #52 ) ;
#422 = EDGE_LOOP ( 'NONE', ( #454, #14, #242, #314 ) ) ;
#423 = ORIENTED_EDGE ( 'NONE', *, *, #206, .T. ) ;
#424 =( NAMED_UNIT ( * ) SI_UNIT ( $, .STERADIAN. ) SOLID_ANGLE_UNIT ( ) );
#425 = ORIENTED_EDGE ( 'NONE', *, *, #206, .F. ) ;
#426 = EDGE_CURVE ( 'NONE', #376, #604, #694, .T. ) ;
#427 = CARTESIAN_POINT ( 'NONE',  ( -0.1802529685262388992, 0.4099999999999999756, -0.4527530444747308036 ) ) ;
#428 = EDGE_CURVE ( 'NONE', #185, #362, #477, .T. ) ;
#429 = FACE_OUTER_BOUND ( 'NONE', #98, .T. ) ;
#430 = CARTESIAN_POINT ( 'NONE',  ( 0.1802529685262388992, 0.4119999999999999774, -0.4527530444747308036 ) ) ;
#431 = STYLED_ITEM ( 'NONE', ( #33 ), #629 ) ;
#432 = VECTOR ( 'NONE', #295, 1000.000000000000000 ) ;
#433 = PLANE ( 'NONE',  #589 ) ;
#434 = SURFACE_SIDE_STYLE ('',( #214 ) ) ;
#435 = SURFACE_STYLE_USAGE ( .BOTH. , #210 ) ;
#436 = CARTESIAN_POINT ( 'NONE',  ( 0.1802529685262388992, 0.4099999999999999756, -0.4527530444747308036 ) ) ;
#437 = ADVANCED_FACE ( 'NONE', ( #643 ), #152, .T. ) ;
#438 = DIRECTION ( 'NONE',  ( 1.000000000000000000, 0.000000000000000000, 0.000000000000000000 ) ) ;
#439 =( GEOMETRIC_REPRESENTATION_CONTEXT ( 3 ) GLOBAL_UNCERTAINTY_ASSIGNED_CONTEXT ( ( #479 ) ) GLOBAL_UNIT_ASSIGNED_CONTEXT ( ( #647, #553, #267 ) ) REPRESENTATION_CONTEXT ( 'NONE', 'WORKASPACE' ) );
#440 = AXIS2_PLACEMENT_3D ( 'NONE', #199, #417, #263 ) ;
#441 = VECTOR ( 'NONE', #287, 1000.000000000000000 ) ;
#442 = SURFACE_STYLE_FILL_AREA ( #28 ) ;
#443 = VERTEX_POINT ( 'NONE', #466 ) ;
#444 = ADVANCED_FACE ( 'NONE', ( #681 ), #10, .F. ) ;
#445 = CARTESIAN_POINT ( 'NONE',  ( 0.000000000000000000, 0.000000000000000000, 0.000000000000000000 ) ) ;
#446 = CARTESIAN_POINT ( 'NONE',  ( -0.2500000000000000000, 0.000000000000000000, -0.4499999999999998446 ) ) ;
#447 = DIRECTION ( 'NONE',  ( 1.000000000000000000, -0.000000000000000000, 0.000000000000000000 ) ) ;
#448 = ORIENTED_EDGE ( 'NONE', *, *, #402, .T. ) ;
#449 = ORIENTED_EDGE ( 'NONE', *, *, #605, .T. ) ;
#450 = ADVANCED_FACE ( 'NONE', ( #125, #45, #262 ), #485, .T. ) ;
#451 =( NAMED_UNIT ( * ) PLANE_ANGLE_UNIT ( ) SI_UNIT ( $, .RADIAN. ) );
#452 = CARTESIAN_POINT ( 'NONE',  ( 0.000000000000000000, 0.000000000000000000, 0.000000000000000000 ) ) ;
#453 = EDGE_CURVE ( 'NONE', #339, #670, #72, .T. ) ;
#454 = ORIENTED_EDGE ( 'NONE', *, *, #387, .T. ) ;
#455 = PLANE ( 'NONE',  #250 ) ;
#456 = AXIS2_PLACEMENT_3D ( 'NONE', #13, #447, #78 ) ;
#457 = MECHANICAL_DESIGN_GEOMETRIC_PRESENTATION_REPRESENTATION (  '', ( #61 ), #329 ) ;
#458 = ORIENTED_EDGE ( 'NONE', *, *, #154, .T. ) ;
#459 = DIRECTION ( 'NONE',  ( -0.000000000000000000, -1.000000000000000000, -0.000000000000000000 ) ) ;
#460 = VERTEX_POINT ( 'NONE', #340 ) ;
#461 = PLANE ( 'NONE',  #541 ) ;
#462 = ORIENTED_EDGE ( 'NONE', *, *, #656, .T. ) ;
#463 = FACE_BOUND ( 'NONE', #615, .T. ) ;
#464 = EDGE_CURVE ( 'NONE', #460, #443, #506, .T. ) ;
#465 = EDGE_LOOP ( 'NONE', ( #471, #69, #518, #110 ) ) ;
#466 = CARTESIAN_POINT ( 'NONE',  ( -0.2500000000000000000, 0.000000000000000000, 0.4500000000000002331 ) ) ;
#467 = ORIENTED_EDGE ( 'NONE', *, *, #298, .F. ) ;
#468 = FACE_OUTER_BOUND ( 'NONE', #57, .T. ) ;
#469 = VECTOR ( 'NONE', #672, 1000.000000000000000 ) ;
#470 = LINE ( 'NONE', #187, #601 ) ;
#471 = ORIENTED_EDGE ( 'NONE', *, *, #642, .F. ) ;
#472 = VECTOR ( 'NONE', #167, 1000.000000000000000 ) ;
#473 = UNCERTAINTY_MEASURE_WITH_UNIT (LENGTH_MEASURE( 1.000000000000000082E-05 ), #174, 'distance_accuracy_value', 'NONE');
#474 = CARTESIAN_POINT ( 'NONE',  ( 0.2500000000000000000, -0.05000000000000000278, 0.4500000000000002331 ) ) ;
#475 = CARTESIAN_POINT ( 'NONE',  ( -0.2999999999999999334, 0.4099999999999999756, 0.5000000000000002220 ) ) ;
#476 = DIRECTION ( 'NONE',  ( -0.000000000000000000, -1.000000000000000000, -0.000000000000000000 ) ) ;
#477 = LINE ( 'NONE', #582, #626 ) ;
#478 = DIRECTION ( 'NONE',  ( -1.000000000000000000, -0.000000000000000000, -0.000000000000000000 ) ) ;
#479 = UNCERTAINTY_MEASURE_WITH_UNIT (LENGTH_MEASURE( 1.000000000000000082E-05 ), #647, 'distance_accuracy_value', 'NONE');
#480 = CARTESIAN_POINT ( 'NONE',  ( 0.000000000000000000, 0.4099999999999999756, 0.000000000000000000 ) ) ;
#481 = DIRECTION ( 'NONE',  ( 0.000000000000000000, 0.000000000000000000, -1.000000000000000000 ) ) ;
#482 = ORIENTED_EDGE ( 'NONE', *, *, #51, .F. ) ;
#483 = VECTOR ( 'NONE', #519, 1000.000000000000000 ) ;
#484 = VECTOR ( 'NONE', #532, 1000.000000000000000 ) ;
#485 = PLANE ( 'NONE',  #189 ) ;
#486 = ADVANCED_FACE ( 'NONE', ( #321 ), #433, .F. ) ;
#487 = DIRECTION ( 'NONE',  ( 1.000000000000000000, 0.000000000000000000, 0.000000000000000000 ) ) ;
#488 = PRESENTATION_STYLE_ASSIGNMENT (( #594 ) ) ;
#489 = CARTESIAN_POINT ( 'NONE',  ( 0.2999999999999999334, 0.4099999999999999756, 0.5000000000000002220 ) ) ;
#490 = DIRECTION ( 'NONE',  ( -1.000000000000000000, -0.000000000000000000, -0.000000000000000000 ) ) ;
#491 = FACE_OUTER_BOUND ( 'NONE', #75, .T. ) ;
#492 = CARTESIAN_POINT ( 'NONE',  ( -0.2500000000000000000, 0.000000000000000000, 0.2000000000000002609 ) ) ;
#493 = VECTOR ( 'NONE', #285, 1000.000000000000000 ) ;
#494 = MECHANICAL_DESIGN_GEOMETRIC_PRESENTATION_REPRESENTATION (  '', ( #306 ), #252 ) ;
#495 = DIRECTION ( 'NONE',  ( 0.000000000000000000, 0.000000000000000000, -1.000000000000000000 ) ) ;
#496 = ORIENTED_EDGE ( 'NONE', *, *, #564, .T. ) ;
#497 = ORIENTED_EDGE ( 'NONE', *, *, #120, .T. ) ;
#498 = CARTESIAN_POINT ( 'NONE',  ( 0.2500000000000000000, 0.000000000000000000, 0.4500000000000002331 ) ) ;
#499 = VERTEX_POINT ( 'NONE', #427 ) ;
#500 = FACE_OUTER_BOUND ( 'NONE', #422, .T. ) ;
#501 =( GEOMETRIC_REPRESENTATION_CONTEXT ( 3 ) GLOBAL_UNCERTAINTY_ASSIGNED_CONTEXT ( ( #534 ) ) GLOBAL_UNIT_ASSIGNED_CONTEXT ( ( #636, #366, #692 ) ) REPRESENTATION_CONTEXT ( 'NONE', 'WORKASPACE' ) );
#502 = VECTOR ( 'NONE', #412, 1000.000000000000000 ) ;
#503 = ADVANCED_FACE ( 'NONE', ( #542 ), #645, .F. ) ;
#504 = ORIENTED_EDGE ( 'NONE', *, *, #190, .T. ) ;
#505 = VERTEX_POINT ( 'NONE', #567 ) ;
#506 = LINE ( 'NONE', #367, #524 ) ;
#507 = EDGE_LOOP ( 'NONE', ( #698, #526, #46, #576 ) ) ;
#508 = EDGE_LOOP ( 'NONE', ( #423, #533, #29, #462 ) ) ;
#509 = CARTESIAN_POINT ( 'NONE',  ( -0.2500000000000000000, -0.05000000000000000278, -0.4499999999999998446 ) ) ;
#510 = CARTESIAN_POINT ( 'NONE',  ( -0.1802529685262388992, 0.4099999999999999756, -0.4527530444747308036 ) ) ;
#511 = EDGE_LOOP ( 'NONE', ( #53, #697, #92, #21 ) ) ;
#512 = LINE ( 'NONE', #349, #469 ) ;
#513 = ADVANCED_FACE ( 'NONE', ( #468 ), #455, .F. ) ;
#514 = AXIS2_PLACEMENT_3D ( 'NONE', #430, #117, #544 ) ;
#515 = LINE ( 'NONE', #276, #136 ) ;
#516 = DIRECTION ( 'NONE',  ( 1.000000000000000000, 0.000000000000000000, 0.000000000000000000 ) ) ;
#517 = VECTOR ( 'NONE', #290, 1000.000000000000000 ) ;
#518 = ORIENTED_EDGE ( 'NONE', *, *, #617, .F. ) ;
#519 = DIRECTION ( 'NONE',  ( -0.000000000000000000, -1.000000000000000000, -0.000000000000000000 ) ) ;
#520 = ORIENTED_EDGE ( 'NONE', *, *, #649, .T. ) ;
#521 = FACE_OUTER_BOUND ( 'NONE', #665, .T. ) ;
#522 = CARTESIAN_POINT ( 'NONE',  ( 0.2999999999999999334, 0.000000000000000000, -0.4999999999999997780 ) ) ;
#523 = SURFACE_STYLE_USAGE ( .BOTH. , #246 ) ;
#524 = VECTOR ( 'NONE', #490, 1000.000000000000000 ) ;
#525 = DIRECTION ( 'NONE',  ( -1.000000000000000000, 0.000000000000000000, -0.000000000000000000 ) ) ;
#526 = ORIENTED_EDGE ( 'NONE', *, *, #572, .F. ) ;
#527 = AXIS2_PLACEMENT_3D ( 'NONE', #614, #184, #620 ) ;
#528 = CARTESIAN_POINT ( 'NONE',  ( 0.2500000000000001110, -0.05000000000000000278, -0.1999999999999998168 ) ) ;
#529 = EDGE_CURVE ( 'NONE', #566, #686, #140, .T. ) ;
#530 = CARTESIAN_POINT ( 'NONE',  ( 0.000000000000000000, 0.4119999999999999774, 0.000000000000000000 ) ) ;
#531 = ORIENTED_EDGE ( 'NONE', *, *, #464, .F. ) ;
#532 = DIRECTION ( 'NONE',  ( 1.000000000000000000, 0.000000000000000000, 0.000000000000000000 ) ) ;
#533 = ORIENTED_EDGE ( 'NONE', *, *, #682, .T. ) ;
#534 = UNCERTAINTY_MEASURE_WITH_UNIT (LENGTH_MEASURE( 1.000000000000000082E-05 ), #636, 'distance_accuracy_value', 'NONE');
#535 = EDGE_CURVE ( 'NONE', #547, #622, #414, .T. ) ;
#536 = CARTESIAN_POINT ( 'NONE',  ( -0.1802529685262388992, 0.4119999999999999774, -0.4527530444747308036 ) ) ;
#537 = AXIS2_PLACEMENT_3D ( 'NONE', #596, #227, #107 ) ;
#538 = ORIENTED_EDGE ( 'NONE', *, *, #640, .T. ) ;
#539 = VERTEX_POINT ( 'NONE', #399 ) ;
#540 = ADVANCED_FACE ( 'NONE', ( #127 ), #183, .F. ) ;
#541 = AXIS2_PLACEMENT_3D ( 'NONE', #678, #558, #565 ) ;
#542 = FACE_OUTER_BOUND ( 'NONE', #71, .T. ) ;
#543 =( NAMED_UNIT ( * ) PLANE_ANGLE_UNIT ( ) SI_UNIT ( $, .RADIAN. ) );
#544 = DIRECTION ( 'NONE',  ( 0.000000000000000000, 0.000000000000000000, 1.000000000000000000 ) ) ;
#545 = ORIENTED_EDGE ( 'NONE', *, *, #605, .F. ) ;
#546 = FILL_AREA_STYLE_COLOUR ( '', #179 ) ;
#547 = VERTEX_POINT ( 'NONE', #623 ) ;
#548 = AXIS2_PLACEMENT_3D ( 'NONE', #159, #55, #293 ) ;
#549 = DIRECTION ( 'NONE',  ( 0.000000000000000000, 0.000000000000000000, 1.000000000000000000 ) ) ;
#550 = CARTESIAN_POINT ( 'NONE',  ( -0.1802529685262388992, 0.4119999999999999774, -0.4527530444747308036 ) ) ;
#551 = DIRECTION ( 'NONE',  ( 1.000000000000000000, 0.000000000000000000, 0.000000000000000000 ) ) ;
#552 = EDGE_CURVE ( 'NONE', #123, #627, #289, .T. ) ;
#553 =( NAMED_UNIT ( * ) PLANE_ANGLE_UNIT ( ) SI_UNIT ( $, .RADIAN. ) );
#554 = ORIENTED_EDGE ( 'NONE', *, *, #74, .T. ) ;
#555 = EDGE_CURVE ( 'NONE', #622, #460, #135, .T. ) ;
#556 = COLOUR_RGB ( '',0.1098039215686274495, 0.1098039215686274495, 0.1098039215686274495 ) ;
#557 = VECTOR ( 'NONE', #105, 1000.000000000000000 ) ;
#558 = DIRECTION ( 'NONE',  ( 0.000000000000000000, -1.000000000000000000, 0.000000000000000000 ) ) ;
#559 = VERTEX_POINT ( 'NONE', #619 ) ;
#560 = CARTESIAN_POINT ( 'NONE',  ( 0.1802529685262388992, 0.4119999999999999774, -0.4527530444747308036 ) ) ;
#561 = CARTESIAN_POINT ( 'NONE',  ( -0.2500000000000000000, 0.000000000000000000, -0.4499999999999998446 ) ) ;
#562 = ORIENTED_EDGE ( 'NONE', *, *, #269, .T. ) ;
#563 = CARTESIAN_POINT ( 'NONE',  ( 0.1802529685262388992, 0.4119999999999999774, -0.4527530444747308036 ) ) ;
#564 = EDGE_CURVE ( 'NONE', #689, #539, #684, .T. ) ;
#565 = DIRECTION ( 'NONE',  ( 0.000000000000000000, -0.000000000000000000, -1.000000000000000000 ) ) ;
#566 = VERTEX_POINT ( 'NONE', #560 ) ;
#567 = CARTESIAN_POINT ( 'NONE',  ( 0.2999999999999999334, 0.4099999999999999756, -0.4999999999999997780 ) ) ;
#568 = FILL_AREA_STYLE_COLOUR ( '', #360 ) ;
#569 = PRESENTATION_LAYER_ASSIGNMENT (  '', '', ( #306 ) ) ;
#570 = EDGE_LOOP ( 'NONE', ( #585, #205, #118, #308 ) ) ;
#571 = DIRECTION ( 'NONE',  ( 0.000000000000000000, 0.000000000000000000, -1.000000000000000000 ) ) ;
#572 = EDGE_CURVE ( 'NONE', #547, #345, #395, .T. ) ;
#573 = DIRECTION ( 'NONE',  ( -1.000000000000000000, -0.000000000000000000, -0.000000000000000000 ) ) ;
#574 = CARTESIAN_POINT ( 'NONE',  ( -0.2500000000000000000, 0.000000000000000000, -0.1999999999999998168 ) ) ;
#575 = CARTESIAN_POINT ( 'NONE',  ( -0.2500000000000000000, -0.05000000000000000278, -0.4499999999999998446 ) ) ;
#576 = ORIENTED_EDGE ( 'NONE', *, *, #453, .T. ) ;
#577 = EDGE_CURVE ( 'NONE', #559, #604, #243, .T. ) ;
#578 =( NAMED_UNIT ( * ) SI_UNIT ( $, .STERADIAN. ) SOLID_ANGLE_UNIT ( ) );
#579 = ORIENTED_EDGE ( 'NONE', *, *, #253, .T. ) ;
#580 = EDGE_CURVE ( 'NONE', #163, #505, #26, .T. ) ;
#581 = VECTOR ( 'NONE', #680, 1000.000000000000000 ) ;
#582 = CARTESIAN_POINT ( 'NONE',  ( -0.2999999999999999334, 0.4099999999999999756, 0.5000000000000002220 ) ) ;
#583 = LINE ( 'NONE', #96, #148 ) ;
#584 = CARTESIAN_POINT ( 'NONE',  ( -0.2500000000000000000, -0.05000000000000000278, 0.2000000000000002609 ) ) ;
#585 = ORIENTED_EDGE ( 'NONE', *, *, #234, .T. ) ;
#586 = CARTESIAN_POINT ( 'NONE',  ( 0.2500000000000001110, 0.000000000000000000, 0.2000000000000002609 ) ) ;
#587 = PLANE ( 'NONE',  #192 ) ;
#588 = CARTESIAN_POINT ( 'NONE',  ( -0.2500000000000000000, -0.05000000000000000278, -0.1999999999999998168 ) ) ;
#589 = AXIS2_PLACEMENT_3D ( 'NONE', #588, #103, #209 ) ;
#590 = LINE ( 'NONE', #220, #371 ) ;
#591 = VECTOR ( 'NONE', #265, 1000.000000000000000 ) ;
#592 = CARTESIAN_POINT ( 'NONE',  ( -0.2500000000000000000, -0.05000000000000000278, 0.4500000000000002331 ) ) ;
#593 = PRESENTATION_LAYER_ASSIGNMENT (  '', '', ( #410 ) ) ;
#594 = SURFACE_STYLE_USAGE ( .BOTH. , #173 ) ;
#595 = CARTESIAN_POINT ( 'NONE',  ( -0.2500000000000000000, -0.05000000000000000278, 0.4500000000000002331 ) ) ;
#596 = CARTESIAN_POINT ( 'NONE',  ( -0.2999999999999999334, 0.4099999999999999756, 0.5000000000000002220 ) ) ;
#597 = PRESENTATION_STYLE_ASSIGNMENT (( #435 ) ) ;
#598 = EDGE_LOOP ( 'NONE', ( #504, #195, #356, #631 ) ) ;
#599 = DIRECTION ( 'NONE',  ( 4.336808689942017736E-16, 0.000000000000000000, 1.000000000000000000 ) ) ;
#600 = EDGE_CURVE ( 'NONE', #443, #670, #19, .T. ) ;
#601 = VECTOR ( 'NONE', #91, 1000.000000000000000 ) ;
#602 = CARTESIAN_POINT ( 'NONE',  ( 0.1802529685262388992, 0.4119999999999999774, -0.4527530444747308036 ) ) ;
#603 = DIRECTION ( 'NONE',  ( 1.000000000000000000, 0.000000000000000000, 0.000000000000000000 ) ) ;
#604 = VERTEX_POINT ( 'NONE', #76 ) ;
#605 = EDGE_CURVE ( 'NONE', #641, #689, #512, .T. ) ;
#606 = ADVANCED_BREP_SHAPE_REPRESENTATION ( 'SMV1247-040LF', ( #219, #369 ), #102 ) ;
#607 = FACE_OUTER_BOUND ( 'NONE', #380, .T. ) ;
#608 = LINE ( 'NONE', #550, #114 ) ;
#609 = ORIENTED_EDGE ( 'NONE', *, *, #464, .T. ) ;
#610 = DIRECTION ( 'NONE',  ( 1.000000000000000000, 0.000000000000000000, 0.000000000000000000 ) ) ;
#611 = SHAPE_DEFINITION_REPRESENTATION ( #299, #606 ) ;
#612 = ORIENTED_EDGE ( 'NONE', *, *, #350, .T. ) ;
#613 = EDGE_CURVE ( 'NONE', #397, #123, #353, .T. ) ;
#614 = CARTESIAN_POINT ( 'NONE',  ( 0.2500000000000000000, -0.05000000000000000278, 0.4500000000000002331 ) ) ;
#615 = EDGE_LOOP ( 'NONE', ( #467, #139, #141, #679 ) ) ;
#616 = CARTESIAN_POINT ( 'NONE',  ( -0.2999999999999999334, 0.000000000000000000, 0.5000000000000002220 ) ) ;
#617 = EDGE_CURVE ( 'NONE', #257, #362, #180, .T. ) ;
#618 = EDGE_LOOP ( 'NONE', ( #458, #178, #579, #449 ) ) ;
#619 = CARTESIAN_POINT ( 'NONE',  ( 0.1802529685262388992, 0.4119999999999999774, -0.3721693644277064283 ) ) ;
#620 = DIRECTION ( 'NONE',  ( -4.336808689942017736E-16, 0.000000000000000000, 1.000000000000000000 ) ) ;
#621 =( NAMED_UNIT ( * ) PLANE_ANGLE_UNIT ( ) SI_UNIT ( $, .RADIAN. ) );
#622 = VERTEX_POINT ( 'NONE', #22 ) ;
#623 = CARTESIAN_POINT ( 'NONE',  ( 0.2500000000000001110, -0.05000000000000000278, 0.2000000000000002609 ) ) ;
#624 = PRESENTATION_LAYER_ASSIGNMENT (  '', '', ( #359 ) ) ;
#625 = VECTOR ( 'NONE', #330, 1000.000000000000000 ) ;
#626 = VECTOR ( 'NONE', #95, 1000.000000000000000 ) ;
#627 = VERTEX_POINT ( 'NONE', #301 ) ;
#628 = DIRECTION ( 'NONE',  ( -0.000000000000000000, 1.000000000000000000, -0.000000000000000000 ) ) ;
#629 = ADVANCED_FACE ( 'NONE', ( #521, #463 ), #240, .F. ) ;
#630 = CARTESIAN_POINT ( 'NONE',  ( -0.2500000000000000000, -0.05000000000000000278, 0.4500000000000002331 ) ) ;
#631 = ORIENTED_EDGE ( 'NONE', *, *, #529, .T. ) ;
#632 = CARTESIAN_POINT ( 'NONE',  ( 0.1802529685262388992, 0.4119999999999999774, -0.3721693644277064283 ) ) ;
#633 = PRODUCT ( 'SMV1247-040LF', 'SMV1247-040LF', '', ( #674 ) ) ;
#634 =( LENGTH_UNIT ( ) NAMED_UNIT ( * ) SI_UNIT ( .MILLI., .METRE. ) );
#635 = ORIENTED_EDGE ( 'NONE', *, *, #529, .F. ) ;
#636 =( LENGTH_UNIT ( ) NAMED_UNIT ( * ) SI_UNIT ( .MILLI., .METRE. ) );
#637 = APPLICATION_CONTEXT ( 'automotive_design' ) ;
#638 = VECTOR ( 'NONE', #459, 1000.000000000000000 ) ;
#639 = DIRECTION ( 'NONE',  ( 1.000000000000000000, 0.000000000000000000, -0.000000000000000000 ) ) ;
#640 = EDGE_CURVE ( 'NONE', #388, #339, #151, .T. ) ;
#641 = VERTEX_POINT ( 'NONE', #528 ) ;
#642 = EDGE_CURVE ( 'NONE', #182, #83, #690, .T. ) ;
#643 = FACE_OUTER_BOUND ( 'NONE', #508, .T. ) ;
#644 = ORIENTED_EDGE ( 'NONE', *, *, #124, .F. ) ;
#645 = PLANE ( 'NONE',  #548 ) ;
#646 = CARTESIAN_POINT ( 'NONE',  ( -0.2999999999999999334, 0.4099999999999999756, -0.4999999999999997780 ) ) ;
#647 =( LENGTH_UNIT ( ) NAMED_UNIT ( * ) SI_UNIT ( .MILLI., .METRE. ) );
#648 = PRESENTATION_LAYER_ASSIGNMENT (  '', '', ( #94 ) ) ;
#649 = EDGE_CURVE ( 'NONE', #622, #388, #7, .T. ) ;
#650 = FILL_AREA_STYLE ('',( #161 ) ) ;
#651 = SURFACE_STYLE_USAGE ( .BOTH. , #434 ) ;
#652 = CARTESIAN_POINT ( 'NONE',  ( 0.2999999999999999334, 0.000000000000000000, 0.5000000000000002220 ) ) ;
#653 = ADVANCED_FACE ( 'NONE', ( #662 ), #215, .F. ) ;
#654 =( NAMED_UNIT ( * ) SI_UNIT ( $, .STERADIAN. ) SOLID_ANGLE_UNIT ( ) );
#655 = LINE ( 'NONE', #323, #472 ) ;
#656 = EDGE_CURVE ( 'NONE', #259, #559, #384, .T. ) ;
#657 = FILL_AREA_STYLE ('',( #331 ) ) ;
#658 = VECTOR ( 'NONE', #701, 1000.000000000000000 ) ;
#659 = VECTOR ( 'NONE', #191, 1000.000000000000000 ) ;
#660 = CLOSED_SHELL ( 'NONE', ( #450, #629, #309, #101, #702, #444, #699, #394, #64, #540, #437, #302, #415, #172, #653, #272, #513, #503, #181, #486, #54 ) ) ;
#661 = SURFACE_SIDE_STYLE ('',( #442 ) ) ;
#662 = FACE_OUTER_BOUND ( 'NONE', #507, .T. ) ;
#663 =( NAMED_UNIT ( * ) SI_UNIT ( $, .STERADIAN. ) SOLID_ANGLE_UNIT ( ) );
#664 = PRESENTATION_STYLE_ASSIGNMENT (( #651 ) ) ;
#665 = EDGE_LOOP ( 'NONE', ( #666, #683, #130, #218 ) ) ;
#666 = ORIENTED_EDGE ( 'NONE', *, *, #580, .T. ) ;
#667 = PRESENTATION_STYLE_ASSIGNMENT (( #111 ) ) ;
#668 = EDGE_CURVE ( 'NONE', #670, #345, #109, .T. ) ;
#669 = LINE ( 'NONE', #241, #104 ) ;
#670 = VERTEX_POINT ( 'NONE', #492 ) ;
#671 = COLOUR_RGB ( '',0.1098039215686274495, 0.1098039215686274495, 0.1098039215686274495 ) ;
#672 = DIRECTION ( 'NONE',  ( -1.000000000000000000, -0.000000000000000000, -0.000000000000000000 ) ) ;
#673 = CARTESIAN_POINT ( 'NONE',  ( -0.2999999999999999334, 0.000000000000000000, 0.5000000000000002220 ) ) ;
#674 = PRODUCT_CONTEXT ( 'NONE', #637, 'mechanical' ) ;
#675 = ORIENTED_EDGE ( 'NONE', *, *, #577, .F. ) ;
#676 = PRODUCT_DEFINITION_CONTEXT ( 'detailed design', #41, 'design' ) ;
#677 = FILL_AREA_STYLE ('',( #346 ) ) ;
#678 = CARTESIAN_POINT ( 'NONE',  ( 0.000000000000000000, -0.05000000000000000278, 0.000000000000000000 ) ) ;
#679 = ORIENTED_EDGE ( 'NONE', *, *, #190, .F. ) ;
#680 = DIRECTION ( 'NONE',  ( -0.000000000000000000, 1.000000000000000000, -0.000000000000000000 ) ) ;
#681 = FACE_OUTER_BOUND ( 'NONE', #570, .T. ) ;
#682 = EDGE_CURVE ( 'NONE', #566, #691, #608, .T. ) ;
#683 = ORIENTED_EDGE ( 'NONE', *, *, #344, .T. ) ;
#684 = LINE ( 'NONE', #196, #581 ) ;
#685 = LINE ( 'NONE', #475, #484 ) ;
#686 = VERTEX_POINT ( 'NONE', #436 ) ;
#687 = DIRECTION ( 'NONE',  ( -0.000000000000000000, 0.000000000000000000, -1.000000000000000000 ) ) ;
#688 = DIRECTION ( 'NONE',  ( 1.000000000000000000, 0.000000000000000000, 0.000000000000000000 ) ) ;
#689 = VERTEX_POINT ( 'NONE', #165 ) ;
#690 = LINE ( 'NONE', #652, #658 ) ;
#691 = VERTEX_POINT ( 'NONE', #379 ) ;
#692 =( NAMED_UNIT ( * ) SI_UNIT ( $, .STERADIAN. ) SOLID_ANGLE_UNIT ( ) );
#693 = VECTOR ( 'NONE', #343, 1000.000000000000000 ) ;
#694 = LINE ( 'NONE', #244, #106 ) ;
#695 = ORIENTED_EDGE ( 'NONE', *, *, #269, .F. ) ;
#696 = VECTOR ( 'NONE', #476, 1000.000000000000000 ) ;
#697 = ORIENTED_EDGE ( 'NONE', *, *, #428, .F. ) ;
#698 = ORIENTED_EDGE ( 'NONE', *, *, #668, .T. ) ;
#699 = ADVANCED_FACE ( 'NONE', ( #2 ), #168, .F. ) ;
#700 = CARTESIAN_POINT ( 'NONE',  ( 0.2999999999999999334, 0.4099999999999999756, 0.5000000000000002220 ) ) ;
#701 = DIRECTION ( 'NONE',  ( 0.000000000000000000, 0.000000000000000000, -1.000000000000000000 ) ) ;
#702 = ADVANCED_FACE ( 'NONE', ( #63 ), #270, .F. ) ;
#703 = VECTOR ( 'NONE', #305, 1000.000000000000000 ) ;
ENDSEC;
END-ISO-10303-21;
