M48
; DRILL file {KiCad 9.0.4} date 2025-11-28T17:26:29-0500
; FORMAT={-:-/ absolute / metric / decimal}
; #@! TF.CreationDate,2025-11-28T17:26:30-05:00
; #@! TF.GenerationSoftware,Kicad,Pcbnew,9.0.4
; #@! TF.FileFunction,Plated,1,6,PTH
FMAT,2
METRIC
; #@! TA.AperFunction,Plated,PTH,ViaDrill
T1C0.300
; #@! TA.AperFunction,Plated,PTH,ComponentDrill
T2C0.600
; #@! TA.AperFunction,Plated,PTH,ComponentDrill
T3C0.800
; #@! TA.AperFunction,Plated,PTH,ComponentDrill
T4C0.890
; #@! TA.AperFunction,Plated,PTH,ComponentDrill
T5C0.900
; #@! TA.AperFunction,Plated,PTH,ComponentDrill
T6C1.000
; #@! TA.AperFunction,Plated,PTH,ComponentDrill
T7C1.300
; #@! TA.AperFunction,Plated,PTH,ComponentDrill
T8C1.500
; #@! TA.AperFunction,Plated,PTH,ComponentDrill
T9C1.600
; #@! TA.AperFunction,Plated,PTH,ComponentDrill
T10C1.700
%
G90
G05
T1
X199.73Y-258.13
X201.68Y-255.24
X201.94Y-284.97
X202.31Y-234.67
X202.41Y-206.617
X202.44Y-231.02
X202.55Y-247.88
X202.59Y-238.72
X202.61Y-263.86
X202.61Y-274.13
X202.61Y-278.04
X202.64Y-266.0
X202.66Y-242.48
X202.74Y-270.15
X202.91Y-281.71
X203.43Y-233.53
X203.81Y-244.8
X204.61Y-240.64
X204.64Y-228.7
X205.98Y-237.06
X206.24Y-252.61
X206.31Y-251.18
X206.32Y-249.78
X206.4Y-261.2
X206.8Y-267.1
X207.8Y-270.5
X208.516Y-181.118
X208.8Y-273.0
X209.7Y-131.6
X209.9Y-276.2
X214.471Y-179.039
X215.2Y-147.1
X215.9Y-125.3
X216.75Y-132.8
X220.8Y-117.9
X223.4Y-130.8
X223.9Y-128.8
X224.0Y-168.2
X225.0Y-130.7
X225.1Y-115.25
X225.7Y-123.05
X225.79Y-124.5
X225.83Y-122.2
X225.83Y-125.81
X225.85Y-128.25
X225.9Y-126.9
X226.05Y-120.06
X226.08Y-119.13
X227.1Y-134.6
X227.1Y-142.2
X227.68Y-119.22
X229.5Y-155.0
X231.9Y-250.22
X231.95Y-121.3
X232.3Y-167.0
X232.75Y-155.85
X233.4Y-253.2
X235.8Y-138.25
X236.9Y-167.2
X236.9Y-245.7
X237.6Y-157.6
X238.95Y-152.2
X240.0Y-145.35
X241.7Y-115.95
X242.15Y-124.6
X242.806Y-296.5
X243.5Y-216.7
X243.5Y-293.4
X244.2Y-212.8
X244.3Y-121.05
X244.3Y-144.7
X244.5Y-138.1
X244.9Y-121.85
X245.6Y-119.15
X245.95Y-117.8
X246.3Y-118.65
X246.5Y-212.6
X246.6Y-153.37
X247.05Y-163.4
X247.15Y-118.85
X247.3Y-216.1
X248.0Y-118.4
X248.45Y-125.15
X249.0Y-215.1
X249.6Y-218.4
X251.0Y-290.5
X252.2Y-220.8
X253.5Y-290.6
X254.584Y-219.657
X254.66Y-236.49
X254.679Y-221.594
X254.701Y-226.044
X255.927Y-218.314
X257.108Y-230.473
X257.15Y-227.37
X257.17Y-237.17
X257.388Y-216.477
X258.05Y-153.45
X258.5Y-162.0
X258.502Y-222.03
X258.6Y-290.7
X258.931Y-232.125
X259.45Y-118.15
X259.673Y-223.379
X259.9Y-218.5
X260.17Y-242.23
X260.22Y-224.78
X260.9Y-285.3
X261.251Y-235.005
X261.7Y-167.8
X263.392Y-233.101
X263.681Y-232.355
X264.1Y-218.85
X265.552Y-230.893
X265.775Y-220.409
X266.051Y-240.455
X266.501Y-229.994
X266.518Y-230.865
X266.523Y-231.859
X267.544Y-230.899
X267.66Y-219.72
X267.886Y-226.435
X267.98Y-139.58
X268.86Y-221.1
X268.94Y-233.432
X269.945Y-233.07
X270.3Y-228.1
X271.35Y-129.95
X271.444Y-226.574
X271.553Y-223.414
X272.105Y-249.925
X272.5Y-147.5
X273.2Y-222.7
X273.515Y-223.435
X273.721Y-234.144
X273.9Y-224.2
X274.8Y-195.1
X275.08Y-288.09
X275.1Y-186.1
X275.27Y-144.32
X276.01Y-243.73
X276.1Y-191.3
X276.555Y-230.93
X277.205Y-247.075
X277.5Y-146.9
X278.3Y-291.69
X278.6Y-118.65
X279.25Y-131.4
X279.6Y-147.123
X279.7Y-245.96
X279.8Y-120.7
X279.85Y-115.85
X280.01Y-141.18
X280.157Y-230.893
X280.3Y-143.4
X280.3Y-199.6
X280.65Y-130.3
X280.7Y-129.2
X280.8Y-246.2
X281.1Y-190.4
X281.4Y-187.2
X281.5Y-131.55
X281.6Y-130.4
X281.75Y-129.1
X281.8Y-181.4
X282.15Y-128.0
X282.2Y-125.35
X282.75Y-114.85
X282.9Y-181.4
X283.9Y-114.8
X284.0Y-181.3
X284.0Y-194.5
X284.6Y-207.2
X285.0Y-120.45
X285.1Y-240.96
X285.17Y-242.96
X285.18Y-239.84
X285.207Y-194.275
X285.55Y-114.7
X285.7Y-186.8
X285.91Y-243.36
X285.91Y-246.15
X286.69Y-245.67
X286.7Y-215.4
X286.8Y-180.5
X286.82Y-243.29
X286.95Y-242.42
X286.98Y-241.24
X287.1Y-208.4
X287.3Y-114.8
X288.0Y-179.1
X288.65Y-114.8
X289.1Y-195.1
X289.86Y-275.03
X290.53Y-238.72
X290.59Y-274.34
X291.08Y-236.92
X291.4Y-200.4
X291.9Y-178.2
X292.0Y-114.8
X292.1Y-198.8
X292.5Y-202.9
X292.8Y-177.6
X293.3Y-188.8
X293.32Y-184.88
X293.4Y-185.9
X293.4Y-186.9
X293.5Y-190.8
X293.6Y-192.4
X293.61Y-184.04
X294.04Y-178.3
X294.24Y-195.28
X294.95Y-189.62
X294.99Y-188.71
X295.0Y-114.85
X295.12Y-179.54
X295.84Y-177.07
X296.48Y-178.95
X296.5Y-188.04
X296.74Y-180.46
X296.8Y-184.43
X296.81Y-183.57
X297.54Y-180.472
X297.7Y-114.8
X297.81Y-184.48
X299.24Y-208.44
X299.62Y-191.13
X300.09Y-208.42
X300.51Y-179.01
X301.14Y-208.39
X301.5Y-177.2
X301.68Y-185.53
X301.76Y-189.91
X302.8Y-277.2
X302.85Y-183.65
X303.0Y-179.149
X303.1Y-195.3
X303.1Y-273.8
X303.2Y-202.3
X303.4Y-199.4
X303.5Y-196.0
X303.9Y-179.149
X304.0Y-184.58
X304.42Y-183.69
X304.77Y-177.03
X305.1Y-200.1
X305.35Y-178.15
X305.5Y-205.8
X306.4Y-175.1
X307.9Y-169.8
X308.3Y-181.3
X308.9Y-283.5
X309.2Y-170.0
X309.2Y-183.7
X309.5Y-148.5
X309.67Y-280.06
X309.85Y-201.75
X310.8Y-183.6
X311.4Y-182.2
X311.89Y-200.54
X311.93Y-183.799
X312.2Y-191.6
X312.5Y-283.3
X313.8Y-151.1
X313.9Y-201.2
X314.7Y-193.98
X316.14Y-194.19
X317.1Y-175.6
X317.1Y-176.7
X317.2Y-178.1
X317.6Y-190.8
X317.6Y-193.5
X317.9Y-179.5
X318.3Y-191.6
X318.31Y-181.34
X319.3Y-182.1
X319.5Y-192.7
X320.0Y-190.1
X323.75Y-208.65
X325.3Y-179.5
X325.4Y-206.3
X326.6Y-191.11
X326.61Y-189.89
X327.01Y-176.59
X327.7Y-178.1
X327.8Y-205.8
X328.35Y-190.51
X328.41Y-179.79
X328.8Y-124.6
X328.9Y-180.8
X330.42Y-182.12
X330.8Y-151.9
X331.4Y-184.3
X331.8Y-192.1
X331.9Y-180.42
X332.3Y-203.4
X332.35Y-184.05
X334.1Y-197.1
X334.4Y-194.0
X334.5Y-200.2
X335.7Y-176.5
X335.8Y-175.2
X336.3Y-173.4
X337.1Y-156.7
X337.1Y-170.1
X337.1Y-190.19
X337.6Y-189.3
X338.89Y-195.97
X338.9Y-197.31
X338.94Y-194.56
X339.6Y-145.1
X339.7Y-180.4
X339.72Y-183.266
X339.9Y-181.7
X340.3Y-182.701
X340.77Y-184.87
X341.1Y-184.0
X341.15Y-189.0
X341.15Y-189.9
X341.2Y-177.4
X341.2Y-191.5
X341.207Y-190.698
X341.461Y-181.0
X341.6Y-185.6
X342.3Y-184.8
X342.71Y-175.44
X342.71Y-183.46
X343.56Y-181.3
X343.99Y-185.7
X344.2Y-180.37
X344.85Y-176.55
X345.029Y-181.548
X345.3Y-174.7
X345.3Y-196.68
X346.93Y-192.57
X347.93Y-186.68
X347.99Y-179.65
X348.1Y-181.03
X348.525Y-204.6
X348.768Y-180.589
X349.899Y-186.301
X349.96Y-182.67
X350.26Y-174.78
X350.31Y-209.2
X350.501Y-185.699
X350.66Y-207.88
X350.71Y-184.76
X350.895Y-181.995
X351.0Y-212.1
X351.1Y-188.4
X351.98Y-178.97
X352.17Y-182.76
X353.6Y-175.0
X354.6Y-211.3
X354.66Y-176.67
X354.66Y-191.01
X355.65Y-188.78
X356.52Y-177.8
X356.63Y-180.69
X357.801Y-182.701
X358.5Y-208.87
X359.73Y-107.55
X359.94Y-210.76
X360.31Y-177.41
X360.51Y-170.01
X360.7Y-178.6
X361.05Y-183.64
X362.1Y-214.1
X362.5Y-186.3
X364.04Y-186.72
X365.5Y-104.0
X365.51Y-114.78
X365.6Y-181.2
X367.57Y-183.71
X368.89Y-179.25
X369.4Y-104.0
X369.5Y-203.32
X369.55Y-216.06
X373.3Y-111.67
X374.27Y-108.17
X374.3Y-181.8
X376.1Y-205.8
X376.16Y-172.79
X376.99Y-203.44
X377.13Y-182.57
X377.2Y-197.34
X379.1Y-184.4
X379.96Y-209.835
X381.17Y-206.59
X382.4Y-171.7
X383.78Y-181.75
X386.01Y-176.04
X388.15Y-214.61
X388.79Y-184.32
T3
X201.697Y-160.4
X201.697Y-162.4
X201.697Y-164.4
X250.6Y-103.7
X252.6Y-103.7
X254.6Y-103.7
X273.03Y-295.308
X275.03Y-295.308
X277.03Y-295.308
X313.51Y-101.61
X315.51Y-101.61
X317.51Y-101.61
X326.15Y-101.7
X328.15Y-101.7
X330.15Y-101.7
X338.7Y-101.6
X340.7Y-101.6
X342.7Y-101.6
T4
X203.966Y-185.536
X203.966Y-195.646
X205.486Y-188.076
X205.486Y-198.186
T5
X215.206Y-187.416
X215.206Y-189.956
X215.206Y-192.496
X215.206Y-195.036
X217.746Y-188.686
X217.746Y-191.226
X217.746Y-193.766
X217.746Y-196.306
T6
X247.19Y-293.51
X247.19Y-296.05
X249.73Y-293.51
X249.73Y-296.05
X252.27Y-293.51
X252.27Y-296.05
X254.81Y-293.51
X254.81Y-296.05
X257.35Y-293.51
X257.35Y-296.05
T7
X264.0Y-102.95
X269.0Y-102.95
X301.6Y-294.4
X306.6Y-294.4
T8
X201.697Y-158.3
X201.697Y-166.5
X248.5Y-103.7
X256.7Y-103.7
X270.93Y-295.308
X279.13Y-295.308
X311.41Y-101.61
X319.61Y-101.61
X324.05Y-101.7
X332.25Y-101.7
X336.6Y-101.6
X344.8Y-101.6
X355.44Y-199.66
X392.37Y-209.39
X392.76Y-179.01
T9
X211.916Y-184.086
X211.916Y-199.636
T10
X352.9Y-197.12
X352.9Y-202.2
X357.98Y-197.12
X357.98Y-202.2
X389.83Y-206.85
X389.83Y-211.93
X390.22Y-176.47
X390.22Y-181.55
X394.91Y-206.85
X394.91Y-211.93
X395.3Y-176.47
X395.3Y-181.55
T2
G00X363.35Y-102.74
M15
G01X363.35Y-101.94
M16
G05
G00X363.35Y-107.09
M15
G01X363.35Y-105.99
M16
G05
G00X371.99Y-102.74
M15
G01X371.99Y-101.94
M16
G05
G00X371.99Y-107.09
M15
G01X371.99Y-105.99
M16
G05
T6
G00X205.35Y-115.65
M15
G01X205.35Y-117.85
M16
G05
G00X209.85Y-121.55
M15
G01X207.65Y-121.55
M16
G05
G00X211.65Y-115.45
M15
G01X211.65Y-118.05
M16
G05
M30
